<svg width="1440" height="612" viewBox="0 0 1440 612" fill="none" xmlns="http://www.w3.org/2000/svg">
<g clip-path="url(#clip0_3297_241102)">
<rect width="1440" height="612" fill="#001746"/>
<rect width="1440" height="612" fill="url(#paint0_linear_3297_241102)" fill-opacity="0.15"/>
<rect width="1440" height="612" fill="url(#paint1_radial_3297_241102)" fill-opacity="0.15"/>
<rect width="1440" height="612" fill="url(#paint2_radial_3297_241102)" fill-opacity="0.15"/>
<g opacity="0.1">
<path d="M984.208 106.945C984.679 107.76 985.137 108.583 985.583 109.414C984.773 108.885 984.232 107.979 984.208 106.945Z" fill="white"/>
<path d="M967.59 85.9914C969.004 87.3186 970.376 88.6905 971.703 90.1048C971.19 91.0533 970.186 91.6975 969.032 91.6975C967.356 91.6975 965.997 90.3387 965.997 88.6625C965.997 87.5084 966.641 86.5047 967.59 85.9914Z" fill="white"/>
<path d="M948.281 72.1119C949.112 72.5577 949.935 73.0161 950.75 73.4866C949.716 73.4625 948.81 72.9215 948.281 72.1119Z" fill="white"/>
<path d="M859.844 73.4866C860.659 73.0161 861.483 72.5577 862.314 72.1119C861.784 72.9215 860.878 73.4625 859.844 73.4866Z" fill="white"/>
<path d="M838.891 90.1048C840.218 88.6905 841.59 87.3186 843.004 85.9914C843.953 86.5047 844.597 87.5084 844.597 88.6625C844.597 90.3387 843.238 91.6975 841.562 91.6975C840.408 91.6975 839.404 91.0533 838.891 90.1048Z" fill="white"/>
<path d="M825.011 109.414C825.457 108.583 825.915 107.76 826.386 106.945C826.362 107.979 825.821 108.885 825.011 109.414Z" fill="white"/>
<path d="M985.583 195.381C985.137 196.212 984.679 197.035 984.208 197.851C984.232 196.817 984.773 195.911 985.583 195.381Z" fill="white"/>
<path d="M971.703 214.691C971.19 213.742 970.186 213.098 969.032 213.098C967.356 213.098 965.997 214.457 965.997 216.133C965.997 217.287 966.641 218.291 967.59 218.804C969.004 217.477 970.376 216.105 971.703 214.691Z" fill="white"/>
<path d="M950.75 231.309C949.716 231.333 948.81 231.874 948.281 232.683C949.112 232.238 949.935 231.779 950.75 231.309Z" fill="white"/>
<path d="M862.314 232.683C861.784 231.874 860.878 231.333 859.844 231.309C860.659 231.779 861.483 232.238 862.314 232.683Z" fill="white"/>
<path d="M843.004 218.804C843.953 218.291 844.597 217.287 844.597 216.133C844.597 214.457 843.238 213.098 841.562 213.098C840.408 213.098 839.404 213.742 838.891 214.691C840.218 216.105 841.59 217.477 843.004 218.804Z" fill="white"/>
<path d="M826.386 197.851C826.362 196.817 825.821 195.911 825.011 195.381C825.457 196.212 825.915 197.035 826.386 197.851Z" fill="white"/>
<path d="M881.017 70.4525C881.017 72.1287 879.658 73.4875 877.982 73.4875C876.306 73.4875 874.947 72.1287 874.947 70.4525C874.947 68.7763 876.306 67.4175 877.982 67.4175C879.658 67.4175 881.017 68.7763 881.017 70.4525Z" fill="white"/>
<path d="M899.227 70.4525C899.227 72.1287 897.868 73.4875 896.192 73.4875C894.516 73.4875 893.157 72.1287 893.157 70.4525C893.157 68.7763 894.516 67.4175 896.192 67.4175C897.868 67.4175 899.227 68.7763 899.227 70.4525Z" fill="white"/>
<path d="M917.437 70.4525C917.437 72.1287 916.078 73.4875 914.402 73.4875C912.726 73.4875 911.367 72.1287 911.367 70.4525C911.367 68.7763 912.726 67.4175 914.402 67.4175C916.078 67.4175 917.437 68.7763 917.437 70.4525Z" fill="white"/>
<path d="M935.647 70.4525C935.647 72.1287 934.288 73.4875 932.612 73.4875C930.936 73.4875 929.577 72.1287 929.577 70.4525C929.577 68.7763 930.936 67.4175 932.612 67.4175C934.288 67.4175 935.647 68.7763 935.647 70.4525Z" fill="white"/>
<path d="M862.807 88.6625C862.807 90.3387 861.448 91.6975 859.772 91.6975C858.096 91.6975 856.737 90.3387 856.737 88.6625C856.737 86.9863 858.096 85.6275 859.772 85.6275C861.448 85.6275 862.807 86.9863 862.807 88.6625Z" fill="white"/>
<path d="M881.017 88.6625C881.017 90.3387 879.658 91.6975 877.982 91.6975C876.306 91.6975 874.947 90.3387 874.947 88.6625C874.947 86.9863 876.306 85.6275 877.982 85.6275C879.658 85.6275 881.017 86.9863 881.017 88.6625Z" fill="white"/>
<path d="M899.227 88.6625C899.227 90.3387 897.868 91.6975 896.192 91.6975C894.516 91.6975 893.157 90.3387 893.157 88.6625C893.157 86.9863 894.516 85.6275 896.192 85.6275C897.868 85.6275 899.227 86.9863 899.227 88.6625Z" fill="white"/>
<path d="M917.437 88.6625C917.437 90.3387 916.078 91.6975 914.402 91.6975C912.726 91.6975 911.367 90.3387 911.367 88.6625C911.367 86.9863 912.726 85.6275 914.402 85.6275C916.078 85.6275 917.437 86.9863 917.437 88.6625Z" fill="white"/>
<path d="M935.647 88.6625C935.647 90.3387 934.288 91.6975 932.612 91.6975C930.936 91.6975 929.577 90.3387 929.577 88.6625C929.577 86.9863 930.936 85.6275 932.612 85.6275C934.288 85.6275 935.647 86.9863 935.647 88.6625Z" fill="white"/>
<path d="M953.857 88.6625C953.857 90.3387 952.498 91.6975 950.822 91.6975C949.146 91.6975 947.787 90.3387 947.787 88.6625C947.787 86.9863 949.146 85.6275 950.822 85.6275C952.498 85.6275 953.857 86.9863 953.857 88.6625Z" fill="white"/>
<path d="M844.597 106.873C844.597 108.549 843.238 109.908 841.562 109.908C839.886 109.908 838.527 108.549 838.527 106.873C838.527 105.196 839.886 103.838 841.562 103.838C843.238 103.838 844.597 105.196 844.597 106.873Z" fill="white"/>
<path d="M862.807 106.873C862.807 108.549 861.448 109.908 859.772 109.908C858.096 109.908 856.737 108.549 856.737 106.873C856.737 105.196 858.096 103.838 859.772 103.838C861.448 103.838 862.807 105.196 862.807 106.873Z" fill="white"/>
<path d="M881.017 106.873C881.017 108.549 879.658 109.908 877.982 109.908C876.306 109.908 874.947 108.549 874.947 106.873C874.947 105.196 876.306 103.838 877.982 103.838C879.658 103.838 881.017 105.196 881.017 106.873Z" fill="white"/>
<path d="M899.227 106.873C899.227 108.549 897.868 109.908 896.192 109.908C894.516 109.908 893.157 108.549 893.157 106.873C893.157 105.196 894.516 103.838 896.192 103.838C897.868 103.838 899.227 105.196 899.227 106.873Z" fill="white"/>
<path d="M917.437 106.873C917.437 108.549 916.078 109.908 914.402 109.908C912.726 109.908 911.367 108.549 911.367 106.873C911.367 105.196 912.726 103.838 914.402 103.838C916.078 103.838 917.437 105.196 917.437 106.873Z" fill="white"/>
<path d="M935.647 106.873C935.647 108.549 934.288 109.908 932.612 109.908C930.936 109.908 929.577 108.549 929.577 106.873C929.577 105.196 930.936 103.838 932.612 103.838C934.288 103.838 935.647 105.196 935.647 106.873Z" fill="white"/>
<path d="M953.857 106.873C953.857 108.549 952.498 109.908 950.822 109.908C949.146 109.908 947.787 108.549 947.787 106.873C947.787 105.196 949.146 103.838 950.822 103.838C952.498 103.838 953.857 105.196 953.857 106.873Z" fill="white"/>
<path d="M972.067 106.873C972.067 108.549 970.708 109.908 969.032 109.908C967.356 109.908 965.997 108.549 965.997 106.873C965.997 105.196 967.356 103.838 969.032 103.838C970.708 103.838 972.067 105.196 972.067 106.873Z" fill="white"/>
<path d="M826.387 125.083C826.387 126.759 825.028 128.118 823.352 128.118C821.676 128.118 820.317 126.759 820.317 125.083C820.317 123.406 821.676 122.048 823.352 122.048C825.028 122.048 826.387 123.406 826.387 125.083Z" fill="white"/>
<path d="M844.597 125.083C844.597 126.759 843.238 128.118 841.562 128.118C839.886 128.118 838.527 126.759 838.527 125.083C838.527 123.406 839.886 122.048 841.562 122.048C843.238 122.048 844.597 123.406 844.597 125.083Z" fill="white"/>
<path d="M862.807 125.083C862.807 126.759 861.448 128.118 859.772 128.118C858.096 128.118 856.737 126.759 856.737 125.083C856.737 123.406 858.096 122.048 859.772 122.048C861.448 122.048 862.807 123.406 862.807 125.083Z" fill="white"/>
<path d="M881.017 125.083C881.017 126.759 879.658 128.118 877.982 128.118C876.306 128.118 874.947 126.759 874.947 125.083C874.947 123.406 876.306 122.048 877.982 122.048C879.658 122.048 881.017 123.406 881.017 125.083Z" fill="white"/>
<path d="M899.227 125.083C899.227 126.759 897.868 128.118 896.192 128.118C894.516 128.118 893.157 126.759 893.157 125.083C893.157 123.406 894.516 122.048 896.192 122.048C897.868 122.048 899.227 123.406 899.227 125.083Z" fill="white"/>
<path d="M917.437 125.083C917.437 126.759 916.078 128.118 914.402 128.118C912.726 128.118 911.367 126.759 911.367 125.083C911.367 123.406 912.726 122.048 914.402 122.048C916.078 122.048 917.437 123.406 917.437 125.083Z" fill="white"/>
<path d="M935.647 125.083C935.647 126.759 934.288 128.118 932.612 128.118C930.936 128.118 929.577 126.759 929.577 125.083C929.577 123.406 930.936 122.048 932.612 122.048C934.288 122.048 935.647 123.406 935.647 125.083Z" fill="white"/>
<path d="M953.857 125.083C953.857 126.759 952.498 128.118 950.822 128.118C949.146 128.118 947.787 126.759 947.787 125.083C947.787 123.406 949.146 122.048 950.822 122.048C952.498 122.048 953.857 123.406 953.857 125.083Z" fill="white"/>
<path d="M972.067 125.083C972.067 126.759 970.708 128.118 969.032 128.118C967.356 128.118 965.997 126.759 965.997 125.083C965.997 123.406 967.356 122.048 969.032 122.048C970.708 122.048 972.067 123.406 972.067 125.083Z" fill="white"/>
<path d="M990.277 125.083C990.277 126.759 988.918 128.118 987.242 128.118C985.566 128.118 984.207 126.759 984.207 125.083C984.207 123.406 985.566 122.048 987.242 122.048C988.918 122.048 990.277 123.406 990.277 125.083Z" fill="white"/>
<path d="M826.387 143.293C826.387 144.969 825.028 146.328 823.352 146.328C821.676 146.328 820.317 144.969 820.317 143.293C820.317 141.616 821.676 140.258 823.352 140.258C825.028 140.258 826.387 141.616 826.387 143.293Z" fill="white"/>
<path d="M844.597 143.293C844.597 144.969 843.238 146.328 841.562 146.328C839.886 146.328 838.527 144.969 838.527 143.293C838.527 141.616 839.886 140.258 841.562 140.258C843.238 140.258 844.597 141.616 844.597 143.293Z" fill="white"/>
<path d="M862.807 143.293C862.807 144.969 861.448 146.328 859.772 146.328C858.096 146.328 856.737 144.969 856.737 143.293C856.737 141.616 858.096 140.258 859.772 140.258C861.448 140.258 862.807 141.616 862.807 143.293Z" fill="white"/>
<path d="M881.017 143.293C881.017 144.969 879.658 146.328 877.982 146.328C876.306 146.328 874.947 144.969 874.947 143.293C874.947 141.616 876.306 140.258 877.982 140.258C879.658 140.258 881.017 141.616 881.017 143.293Z" fill="white"/>
<path d="M899.227 143.293C899.227 144.969 897.868 146.328 896.192 146.328C894.516 146.328 893.157 144.969 893.157 143.293C893.157 141.616 894.516 140.258 896.192 140.258C897.868 140.258 899.227 141.616 899.227 143.293Z" fill="white"/>
<path d="M917.437 143.293C917.437 144.969 916.078 146.328 914.402 146.328C912.726 146.328 911.367 144.969 911.367 143.293C911.367 141.616 912.726 140.258 914.402 140.258C916.078 140.258 917.437 141.616 917.437 143.293Z" fill="white"/>
<path d="M935.647 143.293C935.647 144.969 934.288 146.328 932.612 146.328C930.936 146.328 929.577 144.969 929.577 143.293C929.577 141.616 930.936 140.258 932.612 140.258C934.288 140.258 935.647 141.616 935.647 143.293Z" fill="white"/>
<path d="M953.857 143.293C953.857 144.969 952.498 146.328 950.822 146.328C949.146 146.328 947.787 144.969 947.787 143.293C947.787 141.616 949.146 140.258 950.822 140.258C952.498 140.258 953.857 141.616 953.857 143.293Z" fill="white"/>
<path d="M972.067 143.293C972.067 144.969 970.708 146.328 969.032 146.328C967.356 146.328 965.997 144.969 965.997 143.293C965.997 141.616 967.356 140.258 969.032 140.258C970.708 140.258 972.067 141.616 972.067 143.293Z" fill="white"/>
<path d="M990.277 143.293C990.277 144.969 988.918 146.328 987.242 146.328C985.566 146.328 984.207 144.969 984.207 143.293C984.207 141.616 985.566 140.258 987.242 140.258C988.918 140.258 990.277 141.616 990.277 143.293Z" fill="white"/>
<path d="M826.387 161.503C826.387 163.179 825.028 164.538 823.352 164.538C821.676 164.538 820.317 163.179 820.317 161.503C820.317 159.826 821.676 158.468 823.352 158.468C825.028 158.468 826.387 159.826 826.387 161.503Z" fill="white"/>
<path d="M844.597 161.503C844.597 163.179 843.238 164.538 841.562 164.538C839.886 164.538 838.527 163.179 838.527 161.503C838.527 159.826 839.886 158.468 841.562 158.468C843.238 158.468 844.597 159.826 844.597 161.503Z" fill="white"/>
<path d="M862.807 161.503C862.807 163.179 861.448 164.538 859.772 164.538C858.096 164.538 856.737 163.179 856.737 161.503C856.737 159.826 858.096 158.468 859.772 158.468C861.448 158.468 862.807 159.826 862.807 161.503Z" fill="white"/>
<path d="M881.017 161.503C881.017 163.179 879.658 164.538 877.982 164.538C876.306 164.538 874.947 163.179 874.947 161.503C874.947 159.826 876.306 158.468 877.982 158.468C879.658 158.468 881.017 159.826 881.017 161.503Z" fill="white"/>
<path d="M899.227 161.503C899.227 163.179 897.868 164.538 896.192 164.538C894.516 164.538 893.157 163.179 893.157 161.503C893.157 159.826 894.516 158.468 896.192 158.468C897.868 158.468 899.227 159.826 899.227 161.503Z" fill="white"/>
<path d="M917.437 161.503C917.437 163.179 916.078 164.538 914.402 164.538C912.726 164.538 911.367 163.179 911.367 161.503C911.367 159.826 912.726 158.468 914.402 158.468C916.078 158.468 917.437 159.826 917.437 161.503Z" fill="white"/>
<path d="M935.647 161.503C935.647 163.179 934.288 164.538 932.612 164.538C930.936 164.538 929.577 163.179 929.577 161.503C929.577 159.826 930.936 158.468 932.612 158.468C934.288 158.468 935.647 159.826 935.647 161.503Z" fill="white"/>
<path d="M953.857 161.503C953.857 163.179 952.498 164.538 950.822 164.538C949.146 164.538 947.787 163.179 947.787 161.503C947.787 159.826 949.146 158.468 950.822 158.468C952.498 158.468 953.857 159.826 953.857 161.503Z" fill="white"/>
<path d="M972.067 161.503C972.067 163.179 970.708 164.538 969.032 164.538C967.356 164.538 965.997 163.179 965.997 161.503C965.997 159.826 967.356 158.468 969.032 158.468C970.708 158.468 972.067 159.826 972.067 161.503Z" fill="white"/>
<path d="M990.277 161.503C990.277 163.179 988.918 164.538 987.242 164.538C985.566 164.538 984.207 163.179 984.207 161.503C984.207 159.826 985.566 158.468 987.242 158.468C988.918 158.468 990.277 159.826 990.277 161.503Z" fill="white"/>
<path d="M826.387 179.713C826.387 181.389 825.028 182.748 823.352 182.748C821.676 182.748 820.317 181.389 820.317 179.713C820.317 178.037 821.676 176.678 823.352 176.678C825.028 176.678 826.387 178.037 826.387 179.713Z" fill="white"/>
<path d="M844.597 179.713C844.597 181.389 843.238 182.748 841.562 182.748C839.886 182.748 838.527 181.389 838.527 179.713C838.527 178.037 839.886 176.678 841.562 176.678C843.238 176.678 844.597 178.037 844.597 179.713Z" fill="white"/>
<path d="M862.807 179.713C862.807 181.389 861.448 182.748 859.772 182.748C858.096 182.748 856.737 181.389 856.737 179.713C856.737 178.037 858.096 176.678 859.772 176.678C861.448 176.678 862.807 178.037 862.807 179.713Z" fill="white"/>
<path d="M881.017 179.713C881.017 181.389 879.658 182.748 877.982 182.748C876.306 182.748 874.947 181.389 874.947 179.713C874.947 178.037 876.306 176.678 877.982 176.678C879.658 176.678 881.017 178.037 881.017 179.713Z" fill="white"/>
<path d="M899.227 179.713C899.227 181.389 897.868 182.748 896.192 182.748C894.516 182.748 893.157 181.389 893.157 179.713C893.157 178.037 894.516 176.678 896.192 176.678C897.868 176.678 899.227 178.037 899.227 179.713Z" fill="white"/>
<path d="M917.437 179.713C917.437 181.389 916.078 182.748 914.402 182.748C912.726 182.748 911.367 181.389 911.367 179.713C911.367 178.037 912.726 176.678 914.402 176.678C916.078 176.678 917.437 178.037 917.437 179.713Z" fill="white"/>
<path d="M935.647 179.713C935.647 181.389 934.288 182.748 932.612 182.748C930.936 182.748 929.577 181.389 929.577 179.713C929.577 178.037 930.936 176.678 932.612 176.678C934.288 176.678 935.647 178.037 935.647 179.713Z" fill="white"/>
<path d="M953.857 179.713C953.857 181.389 952.498 182.748 950.822 182.748C949.146 182.748 947.787 181.389 947.787 179.713C947.787 178.037 949.146 176.678 950.822 176.678C952.498 176.678 953.857 178.037 953.857 179.713Z" fill="white"/>
<path d="M972.067 179.713C972.067 181.389 970.708 182.748 969.032 182.748C967.356 182.748 965.997 181.389 965.997 179.713C965.997 178.037 967.356 176.678 969.032 176.678C970.708 176.678 972.067 178.037 972.067 179.713Z" fill="white"/>
<path d="M990.277 179.713C990.277 181.389 988.918 182.748 987.242 182.748C985.566 182.748 984.207 181.389 984.207 179.713C984.207 178.037 985.566 176.678 987.242 176.678C988.918 176.678 990.277 178.037 990.277 179.713Z" fill="white"/>
<path d="M844.597 197.923C844.597 199.599 843.238 200.958 841.562 200.958C839.886 200.958 838.527 199.599 838.527 197.923C838.527 196.247 839.886 194.888 841.562 194.888C843.238 194.888 844.597 196.247 844.597 197.923Z" fill="white"/>
<path d="M862.807 197.923C862.807 199.599 861.448 200.958 859.772 200.958C858.096 200.958 856.737 199.599 856.737 197.923C856.737 196.247 858.096 194.888 859.772 194.888C861.448 194.888 862.807 196.247 862.807 197.923Z" fill="white"/>
<path d="M881.017 197.923C881.017 199.599 879.658 200.958 877.982 200.958C876.306 200.958 874.947 199.599 874.947 197.923C874.947 196.247 876.306 194.888 877.982 194.888C879.658 194.888 881.017 196.247 881.017 197.923Z" fill="white"/>
<path d="M899.227 197.923C899.227 199.599 897.868 200.958 896.192 200.958C894.516 200.958 893.157 199.599 893.157 197.923C893.157 196.247 894.516 194.888 896.192 194.888C897.868 194.888 899.227 196.247 899.227 197.923Z" fill="white"/>
<path d="M917.437 197.923C917.437 199.599 916.078 200.958 914.402 200.958C912.726 200.958 911.367 199.599 911.367 197.923C911.367 196.247 912.726 194.888 914.402 194.888C916.078 194.888 917.437 196.247 917.437 197.923Z" fill="white"/>
<path d="M935.647 197.923C935.647 199.599 934.288 200.958 932.612 200.958C930.936 200.958 929.577 199.599 929.577 197.923C929.577 196.247 930.936 194.888 932.612 194.888C934.288 194.888 935.647 196.247 935.647 197.923Z" fill="white"/>
<path d="M953.857 197.923C953.857 199.599 952.498 200.958 950.822 200.958C949.146 200.958 947.787 199.599 947.787 197.923C947.787 196.247 949.146 194.888 950.822 194.888C952.498 194.888 953.857 196.247 953.857 197.923Z" fill="white"/>
<path d="M972.067 197.923C972.067 199.599 970.708 200.958 969.032 200.958C967.356 200.958 965.997 199.599 965.997 197.923C965.997 196.247 967.356 194.888 969.032 194.888C970.708 194.888 972.067 196.247 972.067 197.923Z" fill="white"/>
<path d="M862.807 216.133C862.807 217.809 861.448 219.168 859.772 219.168C858.096 219.168 856.737 217.809 856.737 216.133C856.737 214.457 858.096 213.098 859.772 213.098C861.448 213.098 862.807 214.457 862.807 216.133Z" fill="white"/>
<path d="M881.017 216.133C881.017 217.809 879.658 219.168 877.982 219.168C876.306 219.168 874.947 217.809 874.947 216.133C874.947 214.457 876.306 213.098 877.982 213.098C879.658 213.098 881.017 214.457 881.017 216.133Z" fill="white"/>
<path d="M899.227 216.133C899.227 217.809 897.868 219.168 896.192 219.168C894.516 219.168 893.157 217.809 893.157 216.133C893.157 214.457 894.516 213.098 896.192 213.098C897.868 213.098 899.227 214.457 899.227 216.133Z" fill="white"/>
<path d="M917.437 216.133C917.437 217.809 916.078 219.168 914.402 219.168C912.726 219.168 911.367 217.809 911.367 216.133C911.367 214.457 912.726 213.098 914.402 213.098C916.078 213.098 917.437 214.457 917.437 216.133Z" fill="white"/>
<path d="M935.647 216.133C935.647 217.809 934.288 219.168 932.612 219.168C930.936 219.168 929.577 217.809 929.577 216.133C929.577 214.457 930.936 213.098 932.612 213.098C934.288 213.098 935.647 214.457 935.647 216.133Z" fill="white"/>
<path d="M953.857 216.133C953.857 217.809 952.498 219.168 950.822 219.168C949.146 219.168 947.787 217.809 947.787 216.133C947.787 214.457 949.146 213.098 950.822 213.098C952.498 213.098 953.857 214.457 953.857 216.133Z" fill="white"/>
<path d="M881.017 234.343C881.017 236.019 879.658 237.378 877.982 237.378C876.306 237.378 874.947 236.019 874.947 234.343C874.947 232.667 876.306 231.308 877.982 231.308C879.658 231.308 881.017 232.667 881.017 234.343Z" fill="white"/>
<path d="M899.227 234.343C899.227 236.019 897.868 237.378 896.192 237.378C894.516 237.378 893.157 236.019 893.157 234.343C893.157 232.667 894.516 231.308 896.192 231.308C897.868 231.308 899.227 232.667 899.227 234.343Z" fill="white"/>
<path d="M917.437 234.343C917.437 236.019 916.078 237.378 914.402 237.378C912.726 237.378 911.367 236.019 911.367 234.343C911.367 232.667 912.726 231.308 914.402 231.308C916.078 231.308 917.437 232.667 917.437 234.343Z" fill="white"/>
<path d="M935.647 234.343C935.647 236.019 934.288 237.378 932.612 237.378C930.936 237.378 929.577 236.019 929.577 234.343C929.577 232.667 930.936 231.308 932.612 231.308C934.288 231.308 935.647 232.667 935.647 234.343Z" fill="white"/>
</g>
<path fill-rule="evenodd" clip-rule="evenodd" d="M303.638 0C398.532 0 499.902 0 585.772 0C623.446 190.639 707.772 320.04 711.259 396.008C714.778 472.667 708.636 553.01 647.241 611.857C555.462 611.857 330.962 611.857 169.5 611.857C204.5 532.5 158.5 364.927 120 290C81.5 215.073 49.0765 206 31.5 173.5C13.9235 141 3.24174e-06 73.6495 0 0C58.9196 0 208.743 0 303.638 0Z" fill="#0061AA" fill-opacity="0.26"/>
<g opacity="0.1">
<ellipse rx="5.62588" ry="5.6127" transform="matrix(-4.37114e-08 -1 -1 4.37114e-08 179.001 5.62608)" fill="white"/>
<ellipse rx="5.62588" ry="5.6127" transform="matrix(-4.37114e-08 -1 -1 4.37114e-08 121.47 5.62608)" fill="white"/>
<ellipse rx="5.62588" ry="5.6127" transform="matrix(-4.37114e-08 -1 -1 4.37114e-08 92.7052 5.62608)" fill="white"/>
<ellipse rx="5.62588" ry="5.6127" transform="matrix(-4.37114e-08 -1 -1 4.37114e-08 207.766 5.62608)" fill="white"/>
<ellipse rx="5.62588" ry="5.6127" transform="matrix(-4.37114e-08 -1 -1 4.37114e-08 150.236 5.62608)" fill="white"/>
<ellipse rx="5.62588" ry="5.6127" transform="matrix(-4.37114e-08 -1 -1 4.37114e-08 121.47 63.2911)" fill="white"/>
<ellipse rx="5.62588" ry="5.6127" transform="matrix(-4.37114e-08 -1 -1 4.37114e-08 92.7052 63.2911)" fill="white"/>
<ellipse rx="5.62588" ry="5.6127" transform="matrix(-4.37114e-08 -1 -1 4.37114e-08 150.236 63.2911)" fill="white"/>
<ellipse rx="5.62588" ry="5.6127" transform="matrix(-4.37114e-08 -1 -1 4.37114e-08 63.9405 34.4581)" fill="white"/>
<ellipse rx="5.62588" ry="5.6127" transform="matrix(-4.37114e-08 -1 -1 4.37114e-08 179.001 34.4581)" fill="white"/>
<ellipse rx="5.62588" ry="5.6127" transform="matrix(-4.37114e-08 -1 -1 4.37114e-08 121.47 34.4581)" fill="white"/>
<ellipse rx="5.62588" ry="5.6127" transform="matrix(-4.37114e-08 -1 -1 4.37114e-08 92.7052 34.4581)" fill="white"/>
<ellipse rx="5.62588" ry="5.6127" transform="matrix(-4.37114e-08 -1 -1 4.37114e-08 207.766 34.4581)" fill="white"/>
<ellipse rx="5.62588" ry="5.6127" transform="matrix(-4.37114e-08 -1 -1 4.37114e-08 150.236 34.4581)" fill="white"/>
<ellipse rx="5.62588" ry="5.6127" transform="matrix(-4.37114e-08 -1 -1 4.37114e-08 63.9405 92.1236)" fill="white"/>
<ellipse rx="5.62588" ry="5.6127" transform="matrix(-4.37114e-08 -1 -1 4.37114e-08 121.47 92.1236)" fill="white"/>
<ellipse rx="5.62588" ry="5.6127" transform="matrix(-4.37114e-08 -1 -1 4.37114e-08 150.234 92.1236)" fill="white"/>
<ellipse rx="5.62588" ry="5.6127" transform="matrix(-4.37114e-08 -1 -1 4.37114e-08 179.001 63.2911)" fill="white"/>
<ellipse rx="5.62588" ry="5.6127" transform="matrix(-4.37114e-08 -1 -1 4.37114e-08 178.999 92.1236)" fill="white"/>
<ellipse rx="5.62588" ry="5.6127" transform="matrix(-4.37114e-08 -1 -1 4.37114e-08 207.766 63.2911)" fill="white"/>
<ellipse rx="5.62588" ry="5.6127" transform="matrix(-4.37114e-08 -1 -1 4.37114e-08 207.764 92.1236)" fill="white"/>
<ellipse rx="5.62588" ry="5.6127" transform="matrix(-4.37114e-08 -1 -1 4.37114e-08 236.531 34.4581)" fill="white"/>
<ellipse rx="5.62588" ry="5.6127" transform="matrix(-4.37114e-08 -1 -1 4.37114e-08 236.531 63.2911)" fill="white"/>
<ellipse rx="5.62588" ry="5.6127" transform="matrix(-4.37114e-08 -1 -1 4.37114e-08 236.529 92.1236)" fill="white"/>
<ellipse rx="5.62588" ry="5.6127" transform="matrix(-4.37114e-08 -1 -1 4.37114e-08 92.7052 92.1236)" fill="white"/>
</g>
<g opacity="0.1">
<ellipse rx="5.62588" ry="5.6127" transform="matrix(-4.37114e-08 -1 -1 4.37114e-08 121.469 120.75)" fill="white"/>
<ellipse rx="5.62588" ry="5.6127" transform="matrix(-4.37114e-08 -1 -1 4.37114e-08 236.529 120.75)" fill="white"/>
<ellipse rx="5.62588" ry="5.6127" transform="matrix(-4.37114e-08 -1 -1 4.37114e-08 178.999 120.75)" fill="white"/>
<ellipse rx="5.62588" ry="5.6127" transform="matrix(-4.37114e-08 -1 -1 4.37114e-08 294.059 120.75)" fill="white"/>
<ellipse rx="5.62588" ry="5.6127" transform="matrix(-4.37114e-08 -1 -1 4.37114e-08 150.233 120.75)" fill="white"/>
<ellipse rx="5.62588" ry="5.6127" transform="matrix(-4.37114e-08 -1 -1 4.37114e-08 265.294 120.75)" fill="white"/>
<ellipse rx="5.62588" ry="5.6127" transform="matrix(-4.37114e-08 -1 -1 4.37114e-08 207.764 120.75)" fill="white"/>
<ellipse rx="5.62588" ry="5.6127" transform="matrix(-4.37114e-08 -1 -1 4.37114e-08 178.999 178.415)" fill="white"/>
<ellipse rx="5.62588" ry="5.6127" transform="matrix(-4.37114e-08 -1 -1 4.37114e-08 150.233 178.415)" fill="white"/>
<ellipse rx="5.62588" ry="5.6127" transform="matrix(-4.37114e-08 -1 -1 4.37114e-08 207.764 178.415)" fill="white"/>
<ellipse rx="5.62588" ry="5.6127" transform="matrix(-4.37114e-08 -1 -1 4.37114e-08 121.469 149.582)" fill="white"/>
<ellipse rx="5.62588" ry="5.6127" transform="matrix(-4.37114e-08 -1 -1 4.37114e-08 236.529 149.582)" fill="white"/>
<ellipse rx="5.62588" ry="5.6127" transform="matrix(-4.37114e-08 -1 -1 4.37114e-08 178.999 149.582)" fill="white"/>
<ellipse rx="5.62588" ry="5.6127" transform="matrix(-4.37114e-08 -1 -1 4.37114e-08 150.233 149.582)" fill="white"/>
<ellipse rx="5.62588" ry="5.6127" transform="matrix(-4.37114e-08 -1 -1 4.37114e-08 265.294 149.582)" fill="white"/>
<ellipse rx="5.62588" ry="5.6127" transform="matrix(-4.37114e-08 -1 -1 4.37114e-08 207.764 149.582)" fill="white"/>
<ellipse rx="5.62588" ry="5.6127" transform="matrix(-4.37114e-08 -1 -1 4.37114e-08 121.469 207.248)" fill="white"/>
<ellipse rx="5.62588" ry="5.6127" transform="matrix(-4.37114e-08 -1 -1 4.37114e-08 178.999 207.248)" fill="white"/>
<ellipse rx="5.62588" ry="5.6127" transform="matrix(-4.37114e-08 -1 -1 4.37114e-08 207.763 207.248)" fill="white"/>
<ellipse rx="5.62588" ry="5.6127" transform="matrix(-4.37114e-08 -1 -1 4.37114e-08 236.529 178.415)" fill="white"/>
<ellipse rx="5.62588" ry="5.6127" transform="matrix(-4.37114e-08 -1 -1 4.37114e-08 236.527 207.248)" fill="white"/>
<ellipse rx="5.62588" ry="5.6127" transform="matrix(-4.37114e-08 -1 -1 4.37114e-08 265.294 178.415)" fill="white"/>
<ellipse rx="5.62588" ry="5.6127" transform="matrix(-4.37114e-08 -1 -1 4.37114e-08 294.059 149.582)" fill="white"/>
<ellipse rx="5.62588" ry="5.6127" transform="matrix(-4.37114e-08 -1 -1 4.37114e-08 150.233 207.248)" fill="white"/>
</g>
<path d="M1101.88 31.8216C1101.88 26.3159 1103.91 21.7131 1107.96 18.0134C1112.01 14.3137 1117.12 12.4639 1123.29 12.4639C1129.64 12.4639 1134.87 14.1296 1138.98 17.4611L1134.19 24.352C1133.01 23.3701 1131.48 22.546 1129.62 21.8797C1127.76 21.2134 1125.97 20.8803 1124.26 20.8803C1120.22 20.8803 1117.21 21.8885 1115.21 23.9049C1113.21 25.9213 1112.21 28.455 1112.21 31.506C1112.21 34.9777 1113.35 37.7481 1115.61 39.8171C1117.87 41.8862 1120.64 42.9207 1123.91 42.9207C1126.88 42.9207 1129.64 42.0089 1132.19 40.1854V37.2922L1126.42 37.2922V29.4545L1141.03 29.4545V50.7059H1132.7V49.6538L1132.76 48.0757H1132.65C1131.43 49.0577 1129.84 49.8467 1127.88 50.4428C1125.92 51.039 1123.93 51.3371 1121.92 51.3371C1116.44 51.3371 1111.73 49.5661 1107.79 46.0242C1103.85 42.4823 1101.88 37.7481 1101.88 31.8216ZM1147.78 47.4182C1144.59 44.8056 1142.99 41.4127 1142.99 37.2396C1142.99 33.0665 1144.59 29.6473 1147.78 26.9821C1150.98 24.317 1154.92 22.9844 1159.6 22.9844C1164.31 22.9844 1168.28 24.3082 1171.5 26.9558C1174.71 29.6035 1176.32 33.0314 1176.32 37.2396C1176.32 41.4127 1174.72 44.8056 1171.52 47.4182C1168.33 50.0308 1164.37 51.3371 1159.65 51.3371C1154.94 51.3371 1150.98 50.0308 1147.78 47.4182ZM1152.98 37.2396C1152.98 39.2035 1153.62 40.7815 1154.92 41.9738C1156.21 43.1662 1157.79 43.7623 1159.65 43.7623C1161.52 43.7623 1163.1 43.1662 1164.39 41.9738C1165.68 40.7815 1166.33 39.2035 1166.33 37.2396C1166.33 35.2407 1165.68 33.6276 1164.39 32.4002C1163.1 31.1728 1161.52 30.5591 1159.65 30.5591C1157.79 30.5591 1156.21 31.1728 1154.92 32.4002C1153.62 33.6276 1152.98 35.2407 1152.98 37.2396ZM1182.84 52.4417C1185.43 53.599 1188.18 54.1776 1191.11 54.1776C1195.64 54.1776 1197.91 52.4417 1197.91 48.97V48.0757L1197.96 47.0763H1197.85C1196.14 48.97 1193.68 49.9168 1190.49 49.9168C1186.3 49.9168 1183.05 48.5842 1180.73 45.919C1178.41 43.2539 1177.25 40.0451 1177.25 36.2928C1177.25 32.5756 1178.39 29.4282 1180.67 26.8507C1182.95 24.2731 1186.21 22.9844 1190.43 22.9844C1193.85 22.9844 1196.52 23.8611 1198.42 25.6145H1198.59C1198.55 25.4041 1198.53 25.1937 1198.53 24.9833V23.6156L1207.78 23.6156V48.2335C1207.78 50.6182 1207.3 52.7047 1206.35 54.4932C1205.4 56.2817 1204.11 57.6932 1202.47 58.7277C1200.83 59.7622 1199.08 60.525 1197.19 61.0159C1195.31 61.5069 1193.3 61.7524 1191.17 61.7524C1187.1 61.7524 1183.39 60.9458 1180.04 59.3327L1182.84 52.4417ZM1187.18 35.9772C1187.18 37.8007 1187.65 39.3174 1188.6 40.5273C1189.55 41.7371 1190.96 42.3421 1192.83 42.3421C1194.35 42.3421 1195.61 41.895 1196.62 41.0007C1197.63 40.1065 1198.13 38.5722 1198.13 36.398C1198.13 32.5054 1196.23 30.5591 1192.43 30.5591C1190.75 30.5591 1189.46 31.0588 1188.55 32.0583C1187.63 33.0577 1187.18 34.364 1187.18 35.9772ZM1214.98 47.4182C1211.79 44.8056 1210.19 41.4127 1210.19 37.2396C1210.19 33.0665 1211.79 29.6473 1214.98 26.9821C1218.18 24.317 1222.12 22.9844 1226.8 22.9844C1231.51 22.9844 1235.48 24.3082 1238.7 26.9558C1241.91 29.6035 1243.52 33.0314 1243.52 37.2396C1243.52 41.4127 1241.92 44.8056 1238.72 47.4182C1235.53 50.0308 1231.57 51.3371 1226.85 51.3371C1222.14 51.3371 1218.18 50.0308 1214.98 47.4182ZM1220.18 37.2396C1220.18 39.2035 1220.82 40.7815 1222.12 41.9738C1223.41 43.1662 1224.99 43.7623 1226.85 43.7623C1228.72 43.7623 1230.3 43.1662 1231.59 41.9738C1232.88 40.7815 1233.53 39.2035 1233.53 37.2396C1233.53 35.2407 1232.88 33.6276 1231.59 32.4002C1230.3 31.1728 1228.72 30.5591 1226.85 30.5591C1224.99 30.5591 1223.41 31.1728 1222.12 32.4002C1220.82 33.6276 1220.18 35.2407 1220.18 37.2396Z" fill="white" fill-opacity="0.32"/>
<rect x="1517.62" y="342.24" width="21.3634" height="178.621" transform="rotate(90 1517.62 342.24)" fill="white" fill-opacity="0.1"/>
<rect x="1517.62" y="464.771" width="21.3634" height="178.621" transform="rotate(90 1517.62 464.771)" fill="white" fill-opacity="0.1"/>
<rect x="1517.62" y="383.083" width="21.3634" height="178.621" transform="rotate(90 1517.62 383.083)" fill="white" fill-opacity="0.1"/>
<rect x="1517.62" y="301.396" width="21.3634" height="178.621" transform="rotate(90 1517.62 301.396)" fill="white" fill-opacity="0.1"/>
<rect x="1517.62" y="505.614" width="21.3634" height="178.621" transform="rotate(90 1517.62 505.614)" fill="white" fill-opacity="0.1"/>
<rect x="1517.62" y="423.927" width="21.3634" height="178.621" transform="rotate(90 1517.62 423.927)" fill="white" fill-opacity="0.1"/>
<rect x="1517.62" y="546.458" width="21.3634" height="178.621" transform="rotate(90 1517.62 546.458)" fill="white" fill-opacity="0.1"/>
</g>
<defs>
<linearGradient id="paint0_linear_3297_241102" x1="720" y1="-25.4672" x2="720" y2="573.885" gradientUnits="userSpaceOnUse">
<stop stop-color="#0DD3FF"/>
<stop offset="1" stop-color="#000744"/>
</linearGradient>
<radialGradient id="paint1_radial_3297_241102" cx="0" cy="0" r="1" gradientUnits="userSpaceOnUse" gradientTransform="translate(-148 732.488) rotate(-124.571) scale(461.736 1566.75)">
<stop stop-color="#EA6CFF" stop-opacity="0.9"/>
<stop offset="1" stop-color="#EB6FFF" stop-opacity="0"/>
</radialGradient>
<radialGradient id="paint2_radial_3297_241102" cx="0" cy="0" r="1" gradientUnits="userSpaceOnUse" gradientTransform="translate(1766 56.61) rotate(165.044) scale(1001.94 540.228)">
<stop stop-color="#EA6CFF" stop-opacity="0.9"/>
<stop offset="1" stop-color="#EB6FFF" stop-opacity="0"/>
</radialGradient>
<clipPath id="clip0_3297_241102">
<rect width="1440" height="612" fill="white"/>
</clipPath>
</defs>
</svg>
