<svg width="1088" height="612" viewBox="0 0 1088 612" fill="none" xmlns="http://www.w3.org/2000/svg">
<g clip-path="url(#clip0_2985_240647)">
<rect width="1087.75" height="611.857" fill="#001746"/>
<rect width="1087.75" height="611.857" fill="url(#paint0_linear_2985_240647)" fill-opacity="0.15"/>
<rect width="1087.75" height="611.857" fill="url(#paint1_radial_2985_240647)" fill-opacity="0.15"/>
<rect width="1087.75" height="611.857" fill="url(#paint2_radial_2985_240647)" fill-opacity="0.15"/>
<g opacity="0.1">
<path d="M805.208 106.945C805.679 107.76 806.137 108.583 806.583 109.414C805.773 108.885 805.232 107.979 805.208 106.945Z" fill="white"/>
<path d="M788.59 85.9914C790.004 87.3186 791.376 88.6905 792.703 90.1048C792.19 91.0533 791.186 91.6975 790.032 91.6975C788.356 91.6975 786.997 90.3387 786.997 88.6625C786.997 87.5084 787.641 86.5047 788.59 85.9914Z" fill="white"/>
<path d="M769.281 72.1119C770.112 72.5577 770.935 73.0161 771.75 73.4866C770.716 73.4625 769.81 72.9215 769.281 72.1119Z" fill="white"/>
<path d="M680.844 73.4866C681.659 73.0161 682.483 72.5577 683.314 72.1119C682.784 72.9215 681.878 73.4625 680.844 73.4866Z" fill="white"/>
<path d="M659.891 90.1048C661.218 88.6905 662.59 87.3186 664.004 85.9914C664.953 86.5047 665.597 87.5084 665.597 88.6625C665.597 90.3387 664.238 91.6975 662.562 91.6975C661.408 91.6975 660.404 91.0533 659.891 90.1048Z" fill="white"/>
<path d="M646.011 109.414C646.457 108.583 646.915 107.76 647.386 106.945C647.362 107.979 646.821 108.885 646.011 109.414Z" fill="white"/>
<path d="M806.583 195.381C806.137 196.212 805.679 197.035 805.208 197.851C805.232 196.817 805.773 195.911 806.583 195.381Z" fill="white"/>
<path d="M792.703 214.691C792.19 213.742 791.186 213.098 790.032 213.098C788.356 213.098 786.997 214.457 786.997 216.133C786.997 217.287 787.641 218.291 788.59 218.804C790.004 217.477 791.376 216.105 792.703 214.691Z" fill="white"/>
<path d="M771.75 231.309C770.716 231.333 769.81 231.874 769.281 232.683C770.112 232.238 770.935 231.779 771.75 231.309Z" fill="white"/>
<path d="M683.314 232.683C682.784 231.874 681.878 231.333 680.844 231.309C681.659 231.779 682.483 232.238 683.314 232.683Z" fill="white"/>
<path d="M664.004 218.804C664.953 218.291 665.597 217.287 665.597 216.133C665.597 214.457 664.238 213.098 662.562 213.098C661.408 213.098 660.404 213.742 659.891 214.691C661.218 216.105 662.59 217.477 664.004 218.804Z" fill="white"/>
<path d="M647.386 197.851C647.362 196.817 646.821 195.911 646.011 195.381C646.457 196.212 646.915 197.035 647.386 197.851Z" fill="white"/>
<path d="M702.017 70.4525C702.017 72.1287 700.658 73.4875 698.982 73.4875C697.306 73.4875 695.947 72.1287 695.947 70.4525C695.947 68.7763 697.306 67.4175 698.982 67.4175C700.658 67.4175 702.017 68.7763 702.017 70.4525Z" fill="white"/>
<path d="M720.227 70.4525C720.227 72.1287 718.868 73.4875 717.192 73.4875C715.516 73.4875 714.157 72.1287 714.157 70.4525C714.157 68.7763 715.516 67.4175 717.192 67.4175C718.868 67.4175 720.227 68.7763 720.227 70.4525Z" fill="white"/>
<path d="M738.437 70.4525C738.437 72.1287 737.078 73.4875 735.402 73.4875C733.726 73.4875 732.367 72.1287 732.367 70.4525C732.367 68.7763 733.726 67.4175 735.402 67.4175C737.078 67.4175 738.437 68.7763 738.437 70.4525Z" fill="white"/>
<path d="M756.647 70.4525C756.647 72.1287 755.288 73.4875 753.612 73.4875C751.936 73.4875 750.577 72.1287 750.577 70.4525C750.577 68.7763 751.936 67.4175 753.612 67.4175C755.288 67.4175 756.647 68.7763 756.647 70.4525Z" fill="white"/>
<path d="M683.807 88.6625C683.807 90.3387 682.448 91.6975 680.772 91.6975C679.096 91.6975 677.737 90.3387 677.737 88.6625C677.737 86.9863 679.096 85.6275 680.772 85.6275C682.448 85.6275 683.807 86.9863 683.807 88.6625Z" fill="white"/>
<path d="M702.017 88.6625C702.017 90.3387 700.658 91.6975 698.982 91.6975C697.306 91.6975 695.947 90.3387 695.947 88.6625C695.947 86.9863 697.306 85.6275 698.982 85.6275C700.658 85.6275 702.017 86.9863 702.017 88.6625Z" fill="white"/>
<path d="M720.227 88.6625C720.227 90.3387 718.868 91.6975 717.192 91.6975C715.516 91.6975 714.157 90.3387 714.157 88.6625C714.157 86.9863 715.516 85.6275 717.192 85.6275C718.868 85.6275 720.227 86.9863 720.227 88.6625Z" fill="white"/>
<path d="M738.437 88.6625C738.437 90.3387 737.078 91.6975 735.402 91.6975C733.726 91.6975 732.367 90.3387 732.367 88.6625C732.367 86.9863 733.726 85.6275 735.402 85.6275C737.078 85.6275 738.437 86.9863 738.437 88.6625Z" fill="white"/>
<path d="M756.647 88.6625C756.647 90.3387 755.288 91.6975 753.612 91.6975C751.936 91.6975 750.577 90.3387 750.577 88.6625C750.577 86.9863 751.936 85.6275 753.612 85.6275C755.288 85.6275 756.647 86.9863 756.647 88.6625Z" fill="white"/>
<path d="M774.857 88.6625C774.857 90.3387 773.498 91.6975 771.822 91.6975C770.146 91.6975 768.787 90.3387 768.787 88.6625C768.787 86.9863 770.146 85.6275 771.822 85.6275C773.498 85.6275 774.857 86.9863 774.857 88.6625Z" fill="white"/>
<path d="M665.597 106.873C665.597 108.549 664.238 109.908 662.562 109.908C660.886 109.908 659.527 108.549 659.527 106.873C659.527 105.196 660.886 103.838 662.562 103.838C664.238 103.838 665.597 105.196 665.597 106.873Z" fill="white"/>
<path d="M683.807 106.873C683.807 108.549 682.448 109.908 680.772 109.908C679.096 109.908 677.737 108.549 677.737 106.873C677.737 105.196 679.096 103.838 680.772 103.838C682.448 103.838 683.807 105.196 683.807 106.873Z" fill="white"/>
<path d="M702.017 106.873C702.017 108.549 700.658 109.908 698.982 109.908C697.306 109.908 695.947 108.549 695.947 106.873C695.947 105.196 697.306 103.838 698.982 103.838C700.658 103.838 702.017 105.196 702.017 106.873Z" fill="white"/>
<path d="M720.227 106.873C720.227 108.549 718.868 109.908 717.192 109.908C715.516 109.908 714.157 108.549 714.157 106.873C714.157 105.196 715.516 103.838 717.192 103.838C718.868 103.838 720.227 105.196 720.227 106.873Z" fill="white"/>
<path d="M738.437 106.873C738.437 108.549 737.078 109.908 735.402 109.908C733.726 109.908 732.367 108.549 732.367 106.873C732.367 105.196 733.726 103.838 735.402 103.838C737.078 103.838 738.437 105.196 738.437 106.873Z" fill="white"/>
<path d="M756.647 106.873C756.647 108.549 755.288 109.908 753.612 109.908C751.936 109.908 750.577 108.549 750.577 106.873C750.577 105.196 751.936 103.838 753.612 103.838C755.288 103.838 756.647 105.196 756.647 106.873Z" fill="white"/>
<path d="M774.857 106.873C774.857 108.549 773.498 109.908 771.822 109.908C770.146 109.908 768.787 108.549 768.787 106.873C768.787 105.196 770.146 103.838 771.822 103.838C773.498 103.838 774.857 105.196 774.857 106.873Z" fill="white"/>
<path d="M793.067 106.873C793.067 108.549 791.708 109.908 790.032 109.908C788.356 109.908 786.997 108.549 786.997 106.873C786.997 105.196 788.356 103.838 790.032 103.838C791.708 103.838 793.067 105.196 793.067 106.873Z" fill="white"/>
<path d="M647.387 125.083C647.387 126.759 646.028 128.118 644.352 128.118C642.676 128.118 641.317 126.759 641.317 125.083C641.317 123.406 642.676 122.048 644.352 122.048C646.028 122.048 647.387 123.406 647.387 125.083Z" fill="white"/>
<path d="M665.597 125.083C665.597 126.759 664.238 128.118 662.562 128.118C660.886 128.118 659.527 126.759 659.527 125.083C659.527 123.406 660.886 122.048 662.562 122.048C664.238 122.048 665.597 123.406 665.597 125.083Z" fill="white"/>
<path d="M683.807 125.083C683.807 126.759 682.448 128.118 680.772 128.118C679.096 128.118 677.737 126.759 677.737 125.083C677.737 123.406 679.096 122.048 680.772 122.048C682.448 122.048 683.807 123.406 683.807 125.083Z" fill="white"/>
<path d="M702.017 125.083C702.017 126.759 700.658 128.118 698.982 128.118C697.306 128.118 695.947 126.759 695.947 125.083C695.947 123.406 697.306 122.048 698.982 122.048C700.658 122.048 702.017 123.406 702.017 125.083Z" fill="white"/>
<path d="M720.227 125.083C720.227 126.759 718.868 128.118 717.192 128.118C715.516 128.118 714.157 126.759 714.157 125.083C714.157 123.406 715.516 122.048 717.192 122.048C718.868 122.048 720.227 123.406 720.227 125.083Z" fill="white"/>
<path d="M738.437 125.083C738.437 126.759 737.078 128.118 735.402 128.118C733.726 128.118 732.367 126.759 732.367 125.083C732.367 123.406 733.726 122.048 735.402 122.048C737.078 122.048 738.437 123.406 738.437 125.083Z" fill="white"/>
<path d="M756.647 125.083C756.647 126.759 755.288 128.118 753.612 128.118C751.936 128.118 750.577 126.759 750.577 125.083C750.577 123.406 751.936 122.048 753.612 122.048C755.288 122.048 756.647 123.406 756.647 125.083Z" fill="white"/>
<path d="M774.857 125.083C774.857 126.759 773.498 128.118 771.822 128.118C770.146 128.118 768.787 126.759 768.787 125.083C768.787 123.406 770.146 122.048 771.822 122.048C773.498 122.048 774.857 123.406 774.857 125.083Z" fill="white"/>
<path d="M793.067 125.083C793.067 126.759 791.708 128.118 790.032 128.118C788.356 128.118 786.997 126.759 786.997 125.083C786.997 123.406 788.356 122.048 790.032 122.048C791.708 122.048 793.067 123.406 793.067 125.083Z" fill="white"/>
<path d="M811.277 125.083C811.277 126.759 809.918 128.118 808.242 128.118C806.566 128.118 805.207 126.759 805.207 125.083C805.207 123.406 806.566 122.048 808.242 122.048C809.918 122.048 811.277 123.406 811.277 125.083Z" fill="white"/>
<path d="M647.387 143.293C647.387 144.969 646.028 146.328 644.352 146.328C642.676 146.328 641.317 144.969 641.317 143.293C641.317 141.616 642.676 140.258 644.352 140.258C646.028 140.258 647.387 141.616 647.387 143.293Z" fill="white"/>
<path d="M665.597 143.293C665.597 144.969 664.238 146.328 662.562 146.328C660.886 146.328 659.527 144.969 659.527 143.293C659.527 141.616 660.886 140.258 662.562 140.258C664.238 140.258 665.597 141.616 665.597 143.293Z" fill="white"/>
<path d="M683.807 143.293C683.807 144.969 682.448 146.328 680.772 146.328C679.096 146.328 677.737 144.969 677.737 143.293C677.737 141.616 679.096 140.258 680.772 140.258C682.448 140.258 683.807 141.616 683.807 143.293Z" fill="white"/>
<path d="M702.017 143.293C702.017 144.969 700.658 146.328 698.982 146.328C697.306 146.328 695.947 144.969 695.947 143.293C695.947 141.616 697.306 140.258 698.982 140.258C700.658 140.258 702.017 141.616 702.017 143.293Z" fill="white"/>
<path d="M720.227 143.293C720.227 144.969 718.868 146.328 717.192 146.328C715.516 146.328 714.157 144.969 714.157 143.293C714.157 141.616 715.516 140.258 717.192 140.258C718.868 140.258 720.227 141.616 720.227 143.293Z" fill="white"/>
<path d="M738.437 143.293C738.437 144.969 737.078 146.328 735.402 146.328C733.726 146.328 732.367 144.969 732.367 143.293C732.367 141.616 733.726 140.258 735.402 140.258C737.078 140.258 738.437 141.616 738.437 143.293Z" fill="white"/>
<path d="M756.647 143.293C756.647 144.969 755.288 146.328 753.612 146.328C751.936 146.328 750.577 144.969 750.577 143.293C750.577 141.616 751.936 140.258 753.612 140.258C755.288 140.258 756.647 141.616 756.647 143.293Z" fill="white"/>
<path d="M774.857 143.293C774.857 144.969 773.498 146.328 771.822 146.328C770.146 146.328 768.787 144.969 768.787 143.293C768.787 141.616 770.146 140.258 771.822 140.258C773.498 140.258 774.857 141.616 774.857 143.293Z" fill="white"/>
<path d="M793.067 143.293C793.067 144.969 791.708 146.328 790.032 146.328C788.356 146.328 786.997 144.969 786.997 143.293C786.997 141.616 788.356 140.258 790.032 140.258C791.708 140.258 793.067 141.616 793.067 143.293Z" fill="white"/>
<path d="M811.277 143.293C811.277 144.969 809.918 146.328 808.242 146.328C806.566 146.328 805.207 144.969 805.207 143.293C805.207 141.616 806.566 140.258 808.242 140.258C809.918 140.258 811.277 141.616 811.277 143.293Z" fill="white"/>
<path d="M647.387 161.503C647.387 163.179 646.028 164.538 644.352 164.538C642.676 164.538 641.317 163.179 641.317 161.503C641.317 159.826 642.676 158.468 644.352 158.468C646.028 158.468 647.387 159.826 647.387 161.503Z" fill="white"/>
<path d="M665.597 161.503C665.597 163.179 664.238 164.538 662.562 164.538C660.886 164.538 659.527 163.179 659.527 161.503C659.527 159.826 660.886 158.468 662.562 158.468C664.238 158.468 665.597 159.826 665.597 161.503Z" fill="white"/>
<path d="M683.807 161.503C683.807 163.179 682.448 164.538 680.772 164.538C679.096 164.538 677.737 163.179 677.737 161.503C677.737 159.826 679.096 158.468 680.772 158.468C682.448 158.468 683.807 159.826 683.807 161.503Z" fill="white"/>
<path d="M702.017 161.503C702.017 163.179 700.658 164.538 698.982 164.538C697.306 164.538 695.947 163.179 695.947 161.503C695.947 159.826 697.306 158.468 698.982 158.468C700.658 158.468 702.017 159.826 702.017 161.503Z" fill="white"/>
<path d="M720.227 161.503C720.227 163.179 718.868 164.538 717.192 164.538C715.516 164.538 714.157 163.179 714.157 161.503C714.157 159.826 715.516 158.468 717.192 158.468C718.868 158.468 720.227 159.826 720.227 161.503Z" fill="white"/>
<path d="M738.437 161.503C738.437 163.179 737.078 164.538 735.402 164.538C733.726 164.538 732.367 163.179 732.367 161.503C732.367 159.826 733.726 158.468 735.402 158.468C737.078 158.468 738.437 159.826 738.437 161.503Z" fill="white"/>
<path d="M756.647 161.503C756.647 163.179 755.288 164.538 753.612 164.538C751.936 164.538 750.577 163.179 750.577 161.503C750.577 159.826 751.936 158.468 753.612 158.468C755.288 158.468 756.647 159.826 756.647 161.503Z" fill="white"/>
<path d="M774.857 161.503C774.857 163.179 773.498 164.538 771.822 164.538C770.146 164.538 768.787 163.179 768.787 161.503C768.787 159.826 770.146 158.468 771.822 158.468C773.498 158.468 774.857 159.826 774.857 161.503Z" fill="white"/>
<path d="M793.067 161.503C793.067 163.179 791.708 164.538 790.032 164.538C788.356 164.538 786.997 163.179 786.997 161.503C786.997 159.826 788.356 158.468 790.032 158.468C791.708 158.468 793.067 159.826 793.067 161.503Z" fill="white"/>
<path d="M811.277 161.503C811.277 163.179 809.918 164.538 808.242 164.538C806.566 164.538 805.207 163.179 805.207 161.503C805.207 159.826 806.566 158.468 808.242 158.468C809.918 158.468 811.277 159.826 811.277 161.503Z" fill="white"/>
<path d="M647.387 179.713C647.387 181.389 646.028 182.748 644.352 182.748C642.676 182.748 641.317 181.389 641.317 179.713C641.317 178.037 642.676 176.678 644.352 176.678C646.028 176.678 647.387 178.037 647.387 179.713Z" fill="white"/>
<path d="M665.597 179.713C665.597 181.389 664.238 182.748 662.562 182.748C660.886 182.748 659.527 181.389 659.527 179.713C659.527 178.037 660.886 176.678 662.562 176.678C664.238 176.678 665.597 178.037 665.597 179.713Z" fill="white"/>
<path d="M683.807 179.713C683.807 181.389 682.448 182.748 680.772 182.748C679.096 182.748 677.737 181.389 677.737 179.713C677.737 178.037 679.096 176.678 680.772 176.678C682.448 176.678 683.807 178.037 683.807 179.713Z" fill="white"/>
<path d="M702.017 179.713C702.017 181.389 700.658 182.748 698.982 182.748C697.306 182.748 695.947 181.389 695.947 179.713C695.947 178.037 697.306 176.678 698.982 176.678C700.658 176.678 702.017 178.037 702.017 179.713Z" fill="white"/>
<path d="M720.227 179.713C720.227 181.389 718.868 182.748 717.192 182.748C715.516 182.748 714.157 181.389 714.157 179.713C714.157 178.037 715.516 176.678 717.192 176.678C718.868 176.678 720.227 178.037 720.227 179.713Z" fill="white"/>
<path d="M738.437 179.713C738.437 181.389 737.078 182.748 735.402 182.748C733.726 182.748 732.367 181.389 732.367 179.713C732.367 178.037 733.726 176.678 735.402 176.678C737.078 176.678 738.437 178.037 738.437 179.713Z" fill="white"/>
<path d="M756.647 179.713C756.647 181.389 755.288 182.748 753.612 182.748C751.936 182.748 750.577 181.389 750.577 179.713C750.577 178.037 751.936 176.678 753.612 176.678C755.288 176.678 756.647 178.037 756.647 179.713Z" fill="white"/>
<path d="M774.857 179.713C774.857 181.389 773.498 182.748 771.822 182.748C770.146 182.748 768.787 181.389 768.787 179.713C768.787 178.037 770.146 176.678 771.822 176.678C773.498 176.678 774.857 178.037 774.857 179.713Z" fill="white"/>
<path d="M793.067 179.713C793.067 181.389 791.708 182.748 790.032 182.748C788.356 182.748 786.997 181.389 786.997 179.713C786.997 178.037 788.356 176.678 790.032 176.678C791.708 176.678 793.067 178.037 793.067 179.713Z" fill="white"/>
<path d="M811.277 179.713C811.277 181.389 809.918 182.748 808.242 182.748C806.566 182.748 805.207 181.389 805.207 179.713C805.207 178.037 806.566 176.678 808.242 176.678C809.918 176.678 811.277 178.037 811.277 179.713Z" fill="white"/>
<path d="M665.597 197.923C665.597 199.599 664.238 200.958 662.562 200.958C660.886 200.958 659.527 199.599 659.527 197.923C659.527 196.247 660.886 194.888 662.562 194.888C664.238 194.888 665.597 196.247 665.597 197.923Z" fill="white"/>
<path d="M683.807 197.923C683.807 199.599 682.448 200.958 680.772 200.958C679.096 200.958 677.737 199.599 677.737 197.923C677.737 196.247 679.096 194.888 680.772 194.888C682.448 194.888 683.807 196.247 683.807 197.923Z" fill="white"/>
<path d="M702.017 197.923C702.017 199.599 700.658 200.958 698.982 200.958C697.306 200.958 695.947 199.599 695.947 197.923C695.947 196.247 697.306 194.888 698.982 194.888C700.658 194.888 702.017 196.247 702.017 197.923Z" fill="white"/>
<path d="M720.227 197.923C720.227 199.599 718.868 200.958 717.192 200.958C715.516 200.958 714.157 199.599 714.157 197.923C714.157 196.247 715.516 194.888 717.192 194.888C718.868 194.888 720.227 196.247 720.227 197.923Z" fill="white"/>
<path d="M738.437 197.923C738.437 199.599 737.078 200.958 735.402 200.958C733.726 200.958 732.367 199.599 732.367 197.923C732.367 196.247 733.726 194.888 735.402 194.888C737.078 194.888 738.437 196.247 738.437 197.923Z" fill="white"/>
<path d="M756.647 197.923C756.647 199.599 755.288 200.958 753.612 200.958C751.936 200.958 750.577 199.599 750.577 197.923C750.577 196.247 751.936 194.888 753.612 194.888C755.288 194.888 756.647 196.247 756.647 197.923Z" fill="white"/>
<path d="M774.857 197.923C774.857 199.599 773.498 200.958 771.822 200.958C770.146 200.958 768.787 199.599 768.787 197.923C768.787 196.247 770.146 194.888 771.822 194.888C773.498 194.888 774.857 196.247 774.857 197.923Z" fill="white"/>
<path d="M793.067 197.923C793.067 199.599 791.708 200.958 790.032 200.958C788.356 200.958 786.997 199.599 786.997 197.923C786.997 196.247 788.356 194.888 790.032 194.888C791.708 194.888 793.067 196.247 793.067 197.923Z" fill="white"/>
<path d="M683.807 216.133C683.807 217.809 682.448 219.168 680.772 219.168C679.096 219.168 677.737 217.809 677.737 216.133C677.737 214.457 679.096 213.098 680.772 213.098C682.448 213.098 683.807 214.457 683.807 216.133Z" fill="white"/>
<path d="M702.017 216.133C702.017 217.809 700.658 219.168 698.982 219.168C697.306 219.168 695.947 217.809 695.947 216.133C695.947 214.457 697.306 213.098 698.982 213.098C700.658 213.098 702.017 214.457 702.017 216.133Z" fill="white"/>
<path d="M720.227 216.133C720.227 217.809 718.868 219.168 717.192 219.168C715.516 219.168 714.157 217.809 714.157 216.133C714.157 214.457 715.516 213.098 717.192 213.098C718.868 213.098 720.227 214.457 720.227 216.133Z" fill="white"/>
<path d="M738.437 216.133C738.437 217.809 737.078 219.168 735.402 219.168C733.726 219.168 732.367 217.809 732.367 216.133C732.367 214.457 733.726 213.098 735.402 213.098C737.078 213.098 738.437 214.457 738.437 216.133Z" fill="white"/>
<path d="M756.647 216.133C756.647 217.809 755.288 219.168 753.612 219.168C751.936 219.168 750.577 217.809 750.577 216.133C750.577 214.457 751.936 213.098 753.612 213.098C755.288 213.098 756.647 214.457 756.647 216.133Z" fill="white"/>
<path d="M774.857 216.133C774.857 217.809 773.498 219.168 771.822 219.168C770.146 219.168 768.787 217.809 768.787 216.133C768.787 214.457 770.146 213.098 771.822 213.098C773.498 213.098 774.857 214.457 774.857 216.133Z" fill="white"/>
<path d="M702.017 234.343C702.017 236.019 700.658 237.378 698.982 237.378C697.306 237.378 695.947 236.019 695.947 234.343C695.947 232.667 697.306 231.308 698.982 231.308C700.658 231.308 702.017 232.667 702.017 234.343Z" fill="white"/>
<path d="M720.227 234.343C720.227 236.019 718.868 237.378 717.192 237.378C715.516 237.378 714.157 236.019 714.157 234.343C714.157 232.667 715.516 231.308 717.192 231.308C718.868 231.308 720.227 232.667 720.227 234.343Z" fill="white"/>
<path d="M738.437 234.343C738.437 236.019 737.078 237.378 735.402 237.378C733.726 237.378 732.367 236.019 732.367 234.343C732.367 232.667 733.726 231.308 735.402 231.308C737.078 231.308 738.437 232.667 738.437 234.343Z" fill="white"/>
<path d="M756.647 234.343C756.647 236.019 755.288 237.378 753.612 237.378C751.936 237.378 750.577 236.019 750.577 234.343C750.577 232.667 751.936 231.308 753.612 231.308C755.288 231.308 756.647 232.667 756.647 234.343Z" fill="white"/>
</g>
<path fill-rule="evenodd" clip-rule="evenodd" d="M124.638 8.64463e-06C219.532 8.64463e-06 320.902 8.64463e-06 406.772 8.64463e-06C444.446 190.639 528.772 320.04 532.259 396.008C535.778 472.667 529.636 553.01 468.241 611.857C376.462 611.857 271.087 611.857 109.624 611.857C109.624 575.316 97.1607 374.479 0 239.927C0 170.527 8.81413e-06 228.88 4.32231e-06 138.801C0 52.1212 3.24174e-06 73.6495 0 0C58.9196 0 29.743 8.64463e-06 124.638 8.64463e-06Z" fill="#0061AA" fill-opacity="0.26"/>
<g opacity="0.1">
<ellipse rx="5.62588" ry="5.6127" transform="matrix(-4.37114e-08 -1 -1 4.37114e-08 0.00107168 5.62608)" fill="white"/>
<ellipse rx="5.62588" ry="5.6127" transform="matrix(-4.37114e-08 -1 -1 4.37114e-08 28.7657 5.62608)" fill="white"/>
<ellipse rx="5.62588" ry="5.6127" transform="matrix(-4.37114e-08 -1 -1 4.37114e-08 0.00107168 34.4581)" fill="white"/>
<ellipse rx="5.62588" ry="5.6127" transform="matrix(-4.37114e-08 -1 -1 4.37114e-08 28.7657 34.4581)" fill="white"/>
<ellipse rx="5.62588" ry="5.6127" transform="matrix(-4.37114e-08 -1 -1 4.37114e-08 0.00107168 63.2911)" fill="white"/>
<ellipse rx="5.62588" ry="5.6127" transform="matrix(-4.37114e-08 -1 -1 4.37114e-08 -0.000881441 92.1236)" fill="white"/>
<ellipse rx="5.62588" ry="5.6127" transform="matrix(-4.37114e-08 -1 -1 4.37114e-08 28.7657 63.2911)" fill="white"/>
<ellipse rx="5.62588" ry="5.6127" transform="matrix(-4.37114e-08 -1 -1 4.37114e-08 28.7643 92.1236)" fill="white"/>
<ellipse rx="5.62588" ry="5.6127" transform="matrix(-4.37114e-08 -1 -1 4.37114e-08 57.5309 34.4581)" fill="white"/>
<ellipse rx="5.62588" ry="5.6127" transform="matrix(-4.37114e-08 -1 -1 4.37114e-08 57.5309 63.2911)" fill="white"/>
<ellipse rx="5.62588" ry="5.6127" transform="matrix(-4.37114e-08 -1 -1 4.37114e-08 57.5289 92.1236)" fill="white"/>
</g>
<g opacity="0.1">
<ellipse rx="5.62588" ry="5.6127" transform="matrix(-4.37114e-08 -1 -1 4.37114e-08 57.5294 120.75)" fill="white"/>
<ellipse rx="5.62588" ry="5.6127" transform="matrix(-4.37114e-08 -1 -1 4.37114e-08 -0.00136972 120.75)" fill="white"/>
<ellipse rx="5.62588" ry="5.6127" transform="matrix(-4.37114e-08 -1 -1 4.37114e-08 115.059 120.75)" fill="white"/>
<ellipse rx="5.62588" ry="5.6127" transform="matrix(-4.37114e-08 -1 -1 4.37114e-08 86.294 120.75)" fill="white"/>
<ellipse rx="5.62588" ry="5.6127" transform="matrix(-4.37114e-08 -1 -1 4.37114e-08 28.7638 120.75)" fill="white"/>
<ellipse rx="5.62588" ry="5.6127" transform="matrix(-4.37114e-08 -1 -1 4.37114e-08 -0.00136972 178.415)" fill="white"/>
<ellipse rx="5.62588" ry="5.6127" transform="matrix(-4.37114e-08 -1 -1 4.37114e-08 28.7638 178.415)" fill="white"/>
<ellipse rx="5.62588" ry="5.6127" transform="matrix(-4.37114e-08 -1 -1 4.37114e-08 57.5294 149.582)" fill="white"/>
<ellipse rx="5.62588" ry="5.6127" transform="matrix(-4.37114e-08 -1 -1 4.37114e-08 -0.00136972 149.582)" fill="white"/>
<ellipse rx="5.62588" ry="5.6127" transform="matrix(-4.37114e-08 -1 -1 4.37114e-08 86.2936 149.582)" fill="white"/>
<ellipse rx="5.62588" ry="5.6127" transform="matrix(-4.37114e-08 -1 -1 4.37114e-08 28.7638 149.582)" fill="white"/>
<ellipse rx="5.62588" ry="5.6127" transform="matrix(-4.37114e-08 -1 -1 4.37114e-08 -0.00136972 207.248)" fill="white"/>
<ellipse rx="5.62588" ry="5.6127" transform="matrix(-4.37114e-08 -1 -1 4.37114e-08 28.7628 207.248)" fill="white"/>
<ellipse rx="5.62588" ry="5.6127" transform="matrix(-4.37114e-08 -1 -1 4.37114e-08 57.5289 178.415)" fill="white"/>
<ellipse rx="5.62588" ry="5.6127" transform="matrix(-4.37114e-08 -1 -1 4.37114e-08 57.5274 207.248)" fill="white"/>
<ellipse rx="5.62588" ry="5.6127" transform="matrix(-4.37114e-08 -1 -1 4.37114e-08 86.294 178.415)" fill="white"/>
<ellipse rx="5.62588" ry="5.6127" transform="matrix(-4.37114e-08 -1 -1 4.37114e-08 115.059 149.582)" fill="white"/>
</g>
<path d="M922.885 31.8216C922.885 26.3159 924.911 21.7131 928.963 18.0134C933.015 14.3137 938.122 12.4639 944.286 12.4639C950.64 12.4639 955.871 14.1296 959.98 17.4611L955.186 24.352C954.007 23.3701 952.485 22.546 950.621 21.8797C948.756 21.2134 946.968 20.8803 945.256 20.8803C941.223 20.8803 938.208 21.8885 936.21 23.9049C934.213 25.9213 933.214 28.455 933.214 31.506C933.214 34.9777 934.346 37.7481 936.61 39.8171C938.874 41.8862 941.642 42.9207 944.914 42.9207C947.881 42.9207 950.64 42.0089 953.189 40.1854V37.2922L947.425 37.2922V29.4545L962.034 29.4545V50.7059H953.702V49.6538L953.759 48.0757H953.645C952.428 49.0577 950.839 49.8467 948.88 50.4428C946.921 51.039 944.933 51.3371 942.916 51.3371C937.437 51.3371 932.729 49.5661 928.791 46.0242C924.854 42.4823 922.885 37.7481 922.885 31.8216ZM968.783 47.4182C965.587 44.8056 963.99 41.4127 963.99 37.2396C963.99 33.0665 965.587 29.6473 968.783 26.9821C971.979 24.317 975.917 22.9844 980.597 22.9844C985.315 22.9844 989.281 24.3082 992.496 26.9558C995.711 29.6035 997.318 33.0314 997.318 37.2396C997.318 41.4127 995.72 44.8056 992.524 47.4182C989.328 50.0308 985.372 51.3371 980.654 51.3371C975.936 51.3371 971.979 50.0308 968.783 47.4182ZM973.977 37.2396C973.977 39.2035 974.623 40.7815 975.917 41.9738C977.211 43.1662 978.79 43.7623 980.654 43.7623C982.518 43.7623 984.097 43.1662 985.391 41.9738C986.684 40.7815 987.331 39.2035 987.331 37.2396C987.331 35.2407 986.684 33.6276 985.391 32.4002C984.097 31.1728 982.518 30.5591 980.654 30.5591C978.79 30.5591 977.211 31.1728 975.917 32.4002C974.623 33.6276 973.977 35.2407 973.977 37.2396ZM1003.84 52.4417C1006.43 53.599 1009.18 54.1776 1012.11 54.1776C1016.64 54.1776 1018.91 52.4417 1018.91 48.97V48.0757L1018.96 47.0763H1018.85C1017.14 48.97 1014.68 49.9168 1011.49 49.9168C1007.3 49.9168 1004.05 48.5842 1001.73 45.919C999.406 43.2539 998.246 40.0451 998.246 36.2928C998.246 32.5756 999.387 29.4282 1001.67 26.8507C1003.95 24.2731 1007.21 22.9844 1011.43 22.9844C1014.85 22.9844 1017.52 23.8611 1019.42 25.6145H1019.59C1019.55 25.4041 1019.53 25.1937 1019.53 24.9833V23.6156L1028.78 23.6156V48.2335C1028.78 50.6182 1028.3 52.7047 1027.35 54.4932C1026.4 56.2817 1025.11 57.6932 1023.47 58.7277C1021.83 59.7622 1020.08 60.525 1018.19 61.0159C1016.31 61.5069 1014.3 61.7524 1012.17 61.7524C1008.1 61.7524 1004.39 60.9458 1001.04 59.3327L1003.84 52.4417ZM1008.18 35.9772C1008.18 37.8007 1008.65 39.3174 1009.6 40.5273C1010.55 41.7371 1011.96 42.3421 1013.83 42.3421C1015.35 42.3421 1016.61 41.895 1017.62 41.0007C1018.63 40.1065 1019.13 38.5722 1019.13 36.398C1019.13 32.5054 1017.23 30.5591 1013.43 30.5591C1011.75 30.5591 1010.46 31.0588 1009.55 32.0583C1008.63 33.0577 1008.18 34.364 1008.18 35.9772ZM1035.98 47.4182C1032.79 44.8056 1031.19 41.4127 1031.19 37.2396C1031.19 33.0665 1032.79 29.6473 1035.98 26.9821C1039.18 24.317 1043.12 22.9844 1047.8 22.9844C1052.51 22.9844 1056.48 24.3082 1059.7 26.9558C1062.91 29.6035 1064.52 33.0314 1064.52 37.2396C1064.52 41.4127 1062.92 44.8056 1059.72 47.4182C1056.53 50.0308 1052.57 51.3371 1047.85 51.3371C1043.14 51.3371 1039.18 50.0308 1035.98 47.4182ZM1041.18 37.2396C1041.18 39.2035 1041.82 40.7815 1043.12 41.9738C1044.41 43.1662 1045.99 43.7623 1047.85 43.7623C1049.72 43.7623 1051.3 43.1662 1052.59 41.9738C1053.88 40.7815 1054.53 39.2035 1054.53 37.2396C1054.53 35.2407 1053.88 33.6276 1052.59 32.4002C1051.3 31.1728 1049.72 30.5591 1047.85 30.5591C1045.99 30.5591 1044.41 31.1728 1043.12 32.4002C1041.82 33.6276 1041.18 35.2407 1041.18 37.2396Z" fill="white" fill-opacity="0.32"/>
<rect x="1203.48" y="342.24" width="21.3634" height="178.621" transform="rotate(90 1203.48 342.24)" fill="white" fill-opacity="0.1"/>
<rect x="1203.48" y="464.771" width="21.3634" height="178.621" transform="rotate(90 1203.48 464.771)" fill="white" fill-opacity="0.1"/>
<rect x="1203.48" y="383.083" width="21.3634" height="178.621" transform="rotate(90 1203.48 383.083)" fill="white" fill-opacity="0.1"/>
<rect x="1203.48" y="301.396" width="21.3634" height="178.621" transform="rotate(90 1203.48 301.396)" fill="white" fill-opacity="0.1"/>
<rect x="1203.48" y="505.614" width="21.3634" height="178.621" transform="rotate(90 1203.48 505.614)" fill="white" fill-opacity="0.1"/>
<rect x="1203.48" y="423.927" width="21.3634" height="178.621" transform="rotate(90 1203.48 423.927)" fill="white" fill-opacity="0.1"/>
<rect x="1203.48" y="546.458" width="21.3634" height="178.621" transform="rotate(90 1203.48 546.458)" fill="white" fill-opacity="0.1"/>
</g>
<defs>
<linearGradient id="paint0_linear_2985_240647" x1="543.873" y1="-25.4613" x2="543.873" y2="573.751" gradientUnits="userSpaceOnUse">
<stop stop-color="#0DD3FF"/>
<stop offset="1" stop-color="#000744"/>
</linearGradient>
<radialGradient id="paint1_radial_2985_240647" cx="0" cy="0" r="1" gradientUnits="userSpaceOnUse" gradientTransform="translate(-111.796 732.317) rotate(-117.504) scale(428.552 1274.83)">
<stop stop-color="#EA6CFF" stop-opacity="0.9"/>
<stop offset="1" stop-color="#EB6FFF" stop-opacity="0"/>
</radialGradient>
<radialGradient id="paint2_radial_2985_240647" cx="0" cy="0" r="1" gradientUnits="userSpaceOnUse" gradientTransform="translate(1334 56.5968) rotate(160.53) scale(775.559 527.069)">
<stop stop-color="#EA6CFF" stop-opacity="0.9"/>
<stop offset="1" stop-color="#EB6FFF" stop-opacity="0"/>
</radialGradient>
<clipPath id="clip0_2985_240647">
<rect width="1087.75" height="611.857" fill="white"/>
</clipPath>
</defs>
</svg>
