<svg width="180" height="144" viewBox="0 0 180 144" fill="none" xmlns="http://www.w3.org/2000/svg">
<path fill-rule="evenodd" clip-rule="evenodd" d="M45.2946 1.0145C43.5893 1.61639 41.4145 3.16003 39.5189 5.11345C36.8705 7.84325 35.0904 11.1427 25.7155 30.6994L14.9531 53.1512L11.1241 55.7899C5.88822 59.3988 2.96569 62.3329 1.3576 65.5965C0.00425565 68.3421 0 68.4479 0 100.877C0 133.043 0.0145919 133.43 1.31201 135.836C4.63397 141.991 7.90487 143.435 18.5237 143.435H26.4468V137.052V130.668H91.5H156.553V137.052V143.435H164.476C175.095 143.435 178.366 141.991 181.688 135.836C182.985 133.43 183 133.043 183 100.877C183 68.4479 182.996 68.3421 181.642 65.5965C180.026 62.3171 177.09 59.3775 171.849 55.7899L167.993 53.1512L158.255 32.8036C147.713 10.7761 145.827 7.41341 142.257 4.28113C137.065 -0.273805 140.039 -0.0239262 91.5 0.0149841C53.4099 0.0453828 47.6913 0.168804 45.2946 1.0145ZM132.51 13.098C134.291 13.7819 136.834 18.2986 144.917 35.14C149.31 44.2937 152.905 51.8854 152.905 52.0113C152.905 52.1365 125.273 52.2393 91.5 52.2393C57.7271 52.2393 30.0947 52.1372 30.0947 52.0119C30.0947 50.8701 47.6061 15.6612 48.8051 14.3929L50.3852 12.721H90.9559C113.27 12.721 131.969 12.8906 132.51 13.098ZM163.423 65.9856C164.493 66.5242 166.395 67.9475 167.649 69.1489L169.929 71.3333V94.3129V117.292H91.5H13.0714V94.3129V71.3333L15.3513 69.1519C19.992 64.7119 13.5998 65.0578 91.3784 65.031C154.64 65.0092 161.667 65.1022 163.423 65.9856Z" fill="black"/>
<path fill-rule="evenodd" clip-rule="evenodd" d="M45.2946 1.0145C43.5893 1.61639 41.4145 3.16003 39.5189 5.11345C36.8705 7.84325 35.0904 11.1427 25.7155 30.6994L14.9531 53.1512L11.1241 55.7899C5.88822 59.3988 2.96569 62.3329 1.3576 65.5965C0.00425565 68.3421 0 68.4479 0 100.877C0 133.043 0.0145919 133.43 1.31201 135.836C4.63397 141.991 7.90487 143.435 18.5237 143.435H26.4468V137.052V130.668H91.5H156.553V137.052V143.435H164.476C175.095 143.435 178.366 141.991 181.688 135.836C182.985 133.43 183 133.043 183 100.877C183 68.4479 182.996 68.3421 181.642 65.5965C180.026 62.3171 177.09 59.3775 171.849 55.7899L167.993 53.1512L158.255 32.8036C147.713 10.7761 145.827 7.41341 142.257 4.28113C137.065 -0.273805 140.039 -0.0239262 91.5 0.0149841C53.4099 0.0453828 47.6913 0.168804 45.2946 1.0145ZM132.51 13.098C134.291 13.7819 136.834 18.2986 144.917 35.14C149.31 44.2937 152.905 51.8854 152.905 52.0113C152.905 52.1365 125.273 52.2393 91.5 52.2393C57.7271 52.2393 30.0947 52.1372 30.0947 52.0119C30.0947 50.8701 47.6061 15.6612 48.8051 14.3929L50.3852 12.721H90.9559C113.27 12.721 131.969 12.8906 132.51 13.098ZM163.423 65.9856C164.493 66.5242 166.395 67.9475 167.649 69.1489L169.929 71.3333V94.3129V117.292H91.5H13.0714V94.3129V71.3333L15.3513 69.1519C19.992 64.7119 13.5998 65.0578 91.3784 65.031C154.64 65.0092 161.667 65.1022 163.423 65.9856Z" fill="black"/>
<path d="M30.1164 90.5496C26.0959 88.8843 25.0812 83.3049 28.2262 80.1593C29.6142 78.7713 30.5511 78.3822 32.5033 78.3822C35.5219 78.3822 37.6206 79.6449 38.6226 82.0635C40.8107 87.3461 35.404 92.7401 30.1164 90.5496Z" fill="black"/>
<path d="M30.1164 90.5496C26.0959 88.8843 25.0812 83.3049 28.2262 80.1593C29.6142 78.7713 30.5511 78.3822 32.5033 78.3822C35.5219 78.3822 37.6206 79.6449 38.6226 82.0635C40.8107 87.3461 35.404 92.7401 30.1164 90.5496Z" fill="white"/>
<path d="M152.888 90.5496C146.218 93.3122 140.734 84.7574 146.029 79.8504C148.404 77.6496 152.41 77.7912 154.778 80.1593C156.166 81.5473 156.555 82.4842 156.555 84.4364C156.555 87.4495 155.293 89.5537 152.888 90.5496Z" fill="black"/>
<path d="M152.888 90.5496C146.218 93.3122 140.734 84.7574 146.029 79.8504C148.404 77.6496 152.41 77.7912 154.778 80.1593C156.166 81.5473 156.555 82.4842 156.555 84.4364C156.555 87.4495 155.293 89.5537 152.888 90.5496Z" fill="white"/>
<path d="M52.288 104.221L52.1153 97.6853L51.9427 91.1496H91.5023H131.062L130.889 97.6853L130.717 104.221H91.5023H52.288Z" fill="black"/>
<path d="M52.288 104.221L52.1153 97.6853L51.9427 91.1496H91.5023H131.062L130.889 97.6853L130.717 104.221H91.5023H52.288Z" fill="white"/>
</svg>
