<svg width="113" height="113" viewBox="0 0 113 113" fill="none" xmlns="http://www.w3.org/2000/svg">
<path fill-rule="evenodd" clip-rule="evenodd" d="M84.6994 44.6722C77.5809 47.1064 72.4303 52.4351 70.3476 59.5214C69.6123 62.0236 69.5036 67.7205 70.1384 70.4751C70.9593 74.0343 72.9476 77.4512 75.9469 80.4562C80.7147 85.2335 86.2435 87.3914 92.615 86.9616C108.322 85.9027 117.69 69.4547 110.592 55.3967C108.014 50.2917 101.894 45.4427 96.4436 44.1873C93.1954 43.4395 87.6331 43.6692 84.6994 44.6722ZM96.5113 53.366C104.762 57.0134 106.857 68.1543 100.489 74.5179C94.1156 80.8872 83.1125 78.8209 79.2838 70.5359C77.9615 67.6743 78.0783 62.5041 79.5282 59.7081C80.118 58.5698 81.052 57.1034 81.6033 56.4487C82.6937 55.1532 86.1409 53.1245 88.1199 52.6133C90.1637 52.085 94.4918 52.4731 96.5113 53.366ZM16.5102 70.2782C8.88574 72.215 2.10768 78.9614 0.416102 86.2965C-0.218696 89.0511 -0.110059 94.7479 0.625268 97.2502C2.7591 104.51 8.49578 110.243 15.7603 112.375C18.2642 113.11 23.9648 113.219 26.7213 112.584C32.1714 111.329 38.2919 106.48 40.8696 101.375C46.9083 89.4157 41.1542 75.2832 28.436 70.8365C25.3718 69.7654 19.5938 69.4948 16.5102 70.2782ZM26.5304 79.4334C29.5467 80.5611 32.4604 83.473 33.5889 86.4873C36.1022 93.2001 33.1738 100.495 26.7821 103.445C23.9186 104.766 18.745 104.65 15.9472 103.201C12.894 101.62 11.6207 100.391 10.0897 97.5471C8.83913 95.2247 8.71427 94.6839 8.70576 91.5513C8.69846 88.8761 8.88939 87.6904 9.56148 86.2357C11.7488 81.5018 16.2378 78.5891 21.3462 78.5887C23.3187 78.5883 25.0058 78.8634 26.5304 79.4334Z" fill="white"/>
<path d="M44.6144 7.66965C46.2663 4.14938 49.013 1.78849 52.8794 0.566726C54.0237 0.204977 57.9898 0.0461813 66.3577 0.0271419L78.2145 0V4.45604V8.91207H66.4278H54.6411L53.4562 10.0962C52.5052 11.0465 52.2737 11.6262 52.2843 13.0331C52.2981 14.9034 52.6917 15.6297 54.2872 16.7288C55.1311 17.3101 56.3351 17.4191 61.9149 17.4191H68.5405L68.2572 18.3305C67.8279 19.7123 66.639 21.2431 64.6041 23.0328C60.957 26.2408 55.2211 26.9294 50.7484 24.6962C47.938 23.2925 45.6777 20.9977 44.4284 18.2787C43.1243 15.4406 43.2082 10.6673 44.6144 7.66965Z" fill="black"/>
<path d="M28.0359 35.5835C34.51 28.9893 36.1679 27.5144 37.6783 27.0072C41.6261 25.6822 43.7182 26.0062 60.8391 30.5943C69.5888 32.939 76.8241 34.9341 76.9182 35.0281C77.0864 35.1962 75.1479 42.8991 74.8662 43.1802C74.7868 43.26 67.4935 41.3925 58.6598 39.0308C46.9453 35.8986 42.2897 34.8138 41.4587 35.022C40.1972 35.3384 28.3963 47.2405 26.8369 49.7691C25.6508 51.6924 25.6718 53.2585 26.9013 54.4872C28.0679 55.6531 26.5393 55.2885 43.8888 58.5414C51.6523 59.9973 58.4288 61.4662 58.9476 61.806C59.4665 62.1459 60.0879 62.9164 60.3283 63.5184C60.702 64.4537 66.7796 91.4808 66.9921 93.1526C67.0464 93.5788 65.9653 94.0049 63.0722 94.6968C60.8751 95.2223 58.9756 95.5508 58.8516 95.4264C58.7275 95.3025 57.3181 89.3212 55.7197 82.1349L52.8137 69.0686L39.4696 66.5772C24.6706 63.8141 23.0796 63.2757 20.2611 60.0755C18.2845 57.8312 17.4102 55.3043 17.4102 51.8342C17.4102 49.5507 17.6307 48.6875 18.8139 46.3363C19.9729 44.035 21.5838 42.1561 28.0359 35.5835Z" fill="black"/>
</svg>
