<svg width="186" height="178" viewBox="0 0 186 178" fill="none" xmlns="http://www.w3.org/2000/svg">
<path fill-rule="evenodd" clip-rule="evenodd" d="M105.79 65.055L102.734 68.111L103.41 80.805C105.337 117.021 106.426 123.553 110.944 125.97C112.154 126.618 125.348 127 146.51 127H180.153L183.076 124.077C186.575 120.578 186.547 121.25 184.408 92.148C182.654 68.276 181.742 64.803 176.769 63.07C174.834 62.395 161.719 62 141.273 62H108.845L105.79 65.055Z" fill="black"/>
<path fill-rule="evenodd" clip-rule="evenodd" d="M38.7718 1.28699C29.2176 4.01599 20.6299 12.511 17.2036 22.623C16.1307 25.789 15.7976 29.515 16.1059 34.875C16.6468 44.275 19.9299 51.057 27.062 57.506C32.8876 62.774 39.0254 65 47.7254 65C57.6366 65 63.0783 62.716 70.1756 55.579C76.6644 49.052 79.0616 43.967 80.1862 34.343L80.7927 29.152L85.8855 28.465C94.7755 27.266 97.2264 25.71 100.069 19.467C103.183 12.625 104.133 6.58499 102.42 4.50999C100.885 2.65099 93.5942 2.54199 77.8864 4.14399C67.1858 5.23499 66.4251 5.18599 61.4218 3.07899C54.9888 0.36999 44.8052 -0.43601 38.7718 1.28699Z" fill="white"/>
<path fill-rule="evenodd" clip-rule="evenodd" d="M54.2252 77.2352C32.7594 78.2336 31.3734 78.3658 28.7942 79.6617C27.1111 80.5079 25.6151 81.8233 24.8875 83.0979C23.7307 85.1232 23.7009 86.3949 23.3605 148.306C22.9675 219.672 22.4535 232.171 19.5234 241.544C19.0158 243.166 14.4208 254.077 9.31165 265.789C-0.728197 288.804 -1.1639 290.324 1.16608 294.179C2.68606 296.695 4.57157 297.858 9.25024 299.167C16.1536 301.099 20.6644 300.415 24.4296 296.866C27.2567 294.201 44.6573 258.516 47.6774 249.19C48.5137 246.607 51.3109 235.601 53.8941 224.731C56.4774 213.862 58.6915 204.867 58.8144 204.744C59.0126 204.543 71.6719 223.722 80.1257 237.029C85.2524 245.099 85.6284 246.659 88.3444 271.139C91.0539 295.558 91.3697 296.766 95.8689 299.96C98.1977 301.613 98.7924 301.749 104.461 301.937C109.78 302.112 110.886 301.974 113.194 300.847C116.321 299.319 118.743 295.65 118.743 292.441C118.743 288.191 114.028 242.58 113.115 238.003C111.942 232.118 110.984 229.386 99.5363 199.261L90.2644 174.861L89.8439 168.517L89.4234 162.173H91.3972C92.4827 162.173 103.858 161.76 116.675 161.256C141.405 160.282 141.531 160.264 144.633 157.133C149.736 151.984 146.658 142.274 139.333 140.409C138.141 140.105 128.783 139.733 118.538 139.583L99.9112 139.308L98.4842 137.868C97.1678 136.54 96.7426 134.409 93.0108 110.456C90.7855 96.1702 88.7169 83.8244 88.4134 83.0195C87.5046 80.6065 84.9061 77.9032 82.9031 77.2859C79.3356 76.1865 76.8495 76.1818 54.2252 77.2352Z" fill="white"/>
</svg>
