<svg width="169" height="138" viewBox="0 0 169 138" fill="none" xmlns="http://www.w3.org/2000/svg">
<path fill-rule="evenodd" clip-rule="evenodd" d="M38.4063 1.66679C35.4565 4.61717 36.4082 9.8502 40.1792 11.4121C45.1385 13.4666 50.2096 8.40751 48.1573 3.45276C47.2175 1.18437 45.2491 0 42.4179 0C40.5869 0 39.7082 0.364949 38.4063 1.66679ZM26.2963 25.8971C21.3301 30.4995 26.4736 38.5232 32.7296 35.9321C34.9855 34.998 36.1693 33.0245 36.1693 30.1984C36.1693 28.3674 35.8043 27.4886 34.5025 26.1868C32.2814 23.9657 28.5236 23.8329 26.2963 25.8971ZM50.8163 25.8971C45.8501 30.4995 50.9936 38.5232 57.2496 35.9321C59.5055 34.998 60.6893 33.0245 60.6893 30.1984C60.6893 28.3674 60.3243 27.4886 59.0225 26.1868C56.8015 23.9657 53.0436 23.8329 50.8163 25.8971ZM29.0414 86.3406C15.962 89.3657 6.15965 98.0709 1.72438 110.6C0.17164 114.987 0 116.154 0 122.315C0 128.476 0.17164 129.643 1.72438 134.03C5.6453 145.106 13.6633 153.124 24.7395 157.045C29.1338 158.601 30.2828 158.769 36.4544 158.762C42.4487 158.756 43.8623 158.559 47.8534 157.172C59.1468 153.249 67.2128 145.249 71.1844 134.03C72.7372 129.643 72.9088 128.476 72.9088 122.315C72.9088 116.154 72.7372 114.987 71.1844 110.6C65.9742 95.8818 53.2301 86.3783 37.8811 85.7658C34.5133 85.6313 31.1678 85.8485 29.0414 86.3406ZM138.811 86.4216C130.13 88.2863 121.411 94.3792 116.134 102.27C111.874 108.638 110.585 113.295 110.585 122.315C110.585 131.335 111.874 135.991 116.134 142.36C126.675 158.122 146.454 163.467 163.148 155.067C171.515 150.857 178.275 143.242 181.504 134.39C182.839 130.734 182.998 129.478 183.001 122.6C183.005 113.268 181.761 108.706 177.455 102.27C168.868 89.4296 153.723 83.2192 138.811 86.4216ZM46.7186 100.066C51.4378 102.332 56.1252 106.946 58.4836 111.646C60.3449 115.354 60.4042 115.684 60.4042 122.315C60.4042 128.946 60.3449 129.276 58.4836 132.984C56.1348 137.664 51.4624 142.275 46.7186 144.593C43.5122 146.16 42.8678 146.265 36.4544 146.261C30.037 146.258 29.4029 146.154 26.2518 144.588C21.3706 142.162 16.7683 137.655 14.4463 133.027C12.5605 129.269 12.5046 128.961 12.5046 122.315C12.5046 115.908 12.6107 115.255 14.1703 112.075C17.0431 106.215 22.356 101.381 28.3736 99.1521C30.7452 98.2733 32.4947 98.0948 37.3098 98.2408C42.5194 98.3988 43.742 98.636 46.7186 100.066ZM157.059 100.154C163.901 103.4 168.617 108.994 170.435 116.02C173.461 127.714 168.05 139.231 157.059 144.491C153.575 146.158 152.958 146.265 146.794 146.265C140.631 146.265 140.014 146.158 136.53 144.491C129.671 141.209 124.97 135.628 123.154 128.61C119.816 115.713 126.816 103.098 139.667 98.8487C141.104 98.3731 144.056 98.1502 147.65 98.2448C152.663 98.3771 153.8 98.6075 157.059 100.154Z" fill="black"/>
<path d="M123.879 23.0944C126.109 18.208 130.318 14.5129 135.675 12.7378C136.996 12.3004 139.567 12.0678 141.783 12.1858C148.786 12.5587 154.399 16.5008 157.466 23.2021C158.69 25.8731 158.856 26.9377 158.678 30.9687C158.436 36.4817 157.131 39.6066 153.571 43.203C150.027 46.7818 146.812 48.1344 141.268 48.3785C137.237 48.5558 136.173 48.3899 133.502 47.1667C129.29 45.2382 126.042 42.1595 124.145 38.2973C122.016 33.9624 121.902 27.4241 123.879 23.0944Z" fill="white"/>
<path d="M93.3062 38.7119C94.0275 38.3241 95.6447 37.6672 96.8992 37.2521C100.457 36.0757 106.501 36.6933 110.291 38.6207C112.935 39.9658 114.844 41.8727 122.275 50.5938L131.113 60.9669L145.246 60.9909L159.378 61.0148L159.217 67.1448L159.055 73.2748H142.803C129.169 73.2748 126.354 73.1351 125.327 72.4069C124.654 71.9297 119.96 66.6693 114.897 60.7172C105.215 49.3365 103.515 47.9405 100.583 48.9624C98.5506 49.6706 74.1104 69.0893 73.6103 70.3935C72.8354 72.4121 73.2397 75.2131 74.5176 76.6803C75.605 77.9285 77.8432 78.6767 89.2011 81.5877C96.5713 83.4769 103.593 85.2839 104.803 85.6027C107.874 86.4124 109.729 88.5685 109.729 91.3295C109.729 93.2204 98.1372 136.663 97.4489 137.351C97.2037 137.597 86.4149 134.83 85.9998 134.415C85.8795 134.294 88.0874 125.878 90.9055 115.71C93.7242 105.543 96.0336 96.9343 96.037 96.5802C96.041 96.2147 90.8354 94.6358 84.0114 92.9336C70.5089 89.5647 68.0751 88.3775 64.8185 83.5715C60.0434 76.524 60.2852 66.9971 65.3944 60.9139C66.7898 59.2528 91.1678 39.8615 93.3062 38.7119Z" fill="white"/>
</svg>
