<svg width="180" height="143" viewBox="0 0 180 143" fill="none" xmlns="http://www.w3.org/2000/svg">
<path fill-rule="evenodd" clip-rule="evenodd" d="M45.2946 1.01142C43.5893 1.61148 41.4145 3.15044 39.5189 5.09793C36.8705 7.81945 35.0904 11.1089 25.7155 30.6062L14.9531 52.9899L11.1241 55.6205C5.88822 59.2185 2.96569 62.1437 1.3576 65.3974C0.00425565 68.1347 0 68.2401 0 100.571C0 132.639 0.0145919 133.026 1.31201 135.423C4.63397 141.56 7.90487 143 18.5237 143H26.4468V136.636V130.271H91.5H156.553V136.636V143H164.476C175.095 143 178.366 141.56 181.688 135.423C182.985 133.026 183 132.639 183 100.571C183 68.2401 182.996 68.1347 181.642 65.3974C180.026 62.1279 177.09 59.1973 171.849 55.6205L167.993 52.9899L158.255 32.704C147.713 10.7434 145.827 7.39091 142.257 4.26814C137.065 -0.272974 140.039 -0.0238536 91.5 0.0149386C53.4099 0.045245 47.6913 0.168292 45.2946 1.01142ZM132.51 13.0582C134.291 13.7401 136.834 18.243 144.917 35.0334C149.31 44.1593 152.905 51.728 152.905 51.8535C152.905 51.9783 125.273 52.0808 91.5 52.0808C57.7271 52.0808 30.0947 51.9789 30.0947 51.8541C30.0947 50.7158 47.6061 15.6137 48.8051 14.3493L50.3852 12.6824H90.9559C113.27 12.6824 131.969 12.8515 132.51 13.0582ZM163.423 65.7853C164.493 66.3223 166.395 67.7413 167.649 68.939L169.929 71.1168V94.0267V116.936H91.5H13.0714V94.0267V71.1168L15.3513 68.942C19.992 64.5155 13.5998 64.8604 91.3784 64.8337C154.64 64.8119 161.667 64.9046 163.423 65.7853Z" fill="black"/>
<path fill-rule="evenodd" clip-rule="evenodd" d="M45.2946 1.01142C43.5893 1.61148 41.4145 3.15044 39.5189 5.09793C36.8705 7.81945 35.0904 11.1089 25.7155 30.6062L14.9531 52.9899L11.1241 55.6205C5.88822 59.2185 2.96569 62.1437 1.3576 65.3974C0.00425565 68.1347 0 68.2401 0 100.571C0 132.639 0.0145919 133.026 1.31201 135.423C4.63397 141.56 7.90487 143 18.5237 143H26.4468V136.636V130.271H91.5H156.553V136.636V143H164.476C175.095 143 178.366 141.56 181.688 135.423C182.985 133.026 183 132.639 183 100.571C183 68.2401 182.996 68.1347 181.642 65.3974C180.026 62.1279 177.09 59.1973 171.849 55.6205L167.993 52.9899L158.255 32.704C147.713 10.7434 145.827 7.39091 142.257 4.26814C137.065 -0.272974 140.039 -0.0238536 91.5 0.0149386C53.4099 0.045245 47.6913 0.168292 45.2946 1.01142ZM132.51 13.0582C134.291 13.7401 136.834 18.243 144.917 35.0334C149.31 44.1593 152.905 51.728 152.905 51.8535C152.905 51.9783 125.273 52.0808 91.5 52.0808C57.7271 52.0808 30.0947 51.9789 30.0947 51.8541C30.0947 50.7158 47.6061 15.6137 48.8051 14.3493L50.3852 12.6824H90.9559C113.27 12.6824 131.969 12.8515 132.51 13.0582ZM163.423 65.7853C164.493 66.3223 166.395 67.7413 167.649 68.939L169.929 71.1168V94.0267V116.936H91.5H13.0714V94.0267V71.1168L15.3513 68.942C19.992 64.5155 13.5998 64.8604 91.3784 64.8337C154.64 64.8119 161.667 64.9046 163.423 65.7853Z" fill="black"/>
<path d="M30.1164 90.2748C26.0959 88.6146 25.0812 83.0522 28.2262 79.9161C29.6142 78.5323 30.5511 78.1443 32.5033 78.1443C35.5219 78.1443 37.6206 79.4033 38.6226 81.8144C40.8107 87.0811 35.404 92.4587 30.1164 90.2748Z" fill="black"/>
<path d="M30.1164 90.2748C26.0959 88.6146 25.0812 83.0522 28.2262 79.9161C29.6142 78.5323 30.5511 78.1443 32.5033 78.1443C35.5219 78.1443 37.6206 79.4033 38.6226 81.8144C40.8107 87.0811 35.404 92.4587 30.1164 90.2748Z" fill="white"/>
<path d="M152.888 90.2748C146.218 93.029 140.734 84.5002 146.029 79.6081C148.404 77.414 152.41 77.5552 154.778 79.9161C156.166 81.2999 156.555 82.2339 156.555 84.1802C156.555 87.1841 155.293 89.282 152.888 90.2748Z" fill="black"/>
<path d="M152.888 90.2748C146.218 93.029 140.734 84.5002 146.029 79.6081C148.404 77.414 152.41 77.5552 154.778 79.9161C156.166 81.2999 156.555 82.2339 156.555 84.1802C156.555 87.1841 155.293 89.282 152.888 90.2748Z" fill="white"/>
<path d="M52.288 103.905L52.1153 97.3889L51.9427 90.873H91.5023H131.062L130.889 97.3889L130.717 103.905H91.5023H52.288Z" fill="black"/>
<path d="M52.288 103.905L52.1153 97.3889L51.9427 90.873H91.5023H131.062L130.889 97.3889L130.717 103.905H91.5023H52.288Z" fill="white"/>
</svg>
