<svg width="123" height="155" viewBox="0 0 123 155" fill="none" xmlns="http://www.w3.org/2000/svg">
<path fill-rule="evenodd" clip-rule="evenodd" d="M54.8958 0.678434C46.2363 3.50998 40.6623 11.0493 40.6501 19.9466C40.6405 26.5893 42.0412 30.0118 46.6583 34.6341C49.6359 37.6143 51.4305 38.8275 54.3698 39.8485L58.2003 41.1785L52.0747 41.2289C46.4527 41.2755 45.6234 41.4497 41.987 43.3533C34.8839 47.0713 14.5955 61.739 13.5753 63.8934C11.3019 68.6975 -0.195386 96.394 0.00252465 96.5918C0.203627 96.7929 11.9953 101.905 12.2576 101.905C12.3208 101.905 15.3048 94.9415 18.8896 86.4297L25.4078 70.9541L32.4445 66.1678C36.3146 63.5354 39.6708 61.3101 39.9025 61.2233C40.1349 61.1359 40.3316 69.7511 40.3405 80.3683C40.3577 101.199 40.5697 102.893 43.7445 107.619C44.7507 109.116 50.8214 114.976 57.2363 120.641L68.899 130.942L74.7724 147.534L80.6465 164.127L87.7783 164.307C91.7002 164.406 94.9101 164.262 94.9101 163.988C94.9108 163.713 91.6791 154.322 87.7279 143.118L80.545 122.748L67.8966 111.625C60.9398 105.508 54.9667 99.7635 54.6232 98.8605C54.2504 97.8797 54.0736 89.4271 54.184 77.8776L54.3698 58.5373L56.1395 56.7683C57.7611 55.148 58.381 54.9814 63.556 54.7797C72.0777 54.4485 72.0259 54.4032 78.903 68.0262C82.3396 74.8335 85.3613 80.0008 86.3681 80.7921C87.9884 82.0665 88.7915 82.122 105.53 82.122H123V75.4213V68.7205H108.785H94.5699L89.9598 59.4779C84.6679 48.8684 82.3 45.9252 76.8786 43.2168C73.6986 41.629 72.183 41.2716 68.4725 41.2359C64.8022 41.2008 64.2481 41.0732 65.5421 40.5594C73.8844 37.2474 78.73 32.6168 80.6063 26.1656C83.4058 16.5395 78.3138 5.72251 69.0637 1.64653C65.1482 -0.0784339 58.5827 -0.527065 54.8958 0.678434ZM65.5913 15.7035C67.0533 17.1649 67.4574 18.1413 67.4574 20.2127C67.4574 23.5618 66.6555 25.0469 64.1478 26.343C58.4972 29.2639 52.2655 23.5153 54.7037 17.6314C55.8056 14.9721 57.6717 13.8381 60.9449 13.8381C63.1666 13.8381 64.1 14.2127 65.5913 15.7035Z" fill="black"/>
<path d="M8.80546 163.342C11.6196 159.797 40.4277 126.816 41.9842 125.358C43.9958 123.473 47.8328 122.963 50.2562 124.26C51.8561 125.116 53.4132 128.168 53.4132 130.449C53.4132 132.855 53.1546 133.193 38.5514 149.927L25.8813 164.446H16.9051C8.48434 164.446 7.98318 164.377 8.80546 163.342Z" fill="#1F89DB"/>
</svg>
