<svg width="595" height="92" viewBox="0 0 595 92" fill="none" xmlns="http://www.w3.org/2000/svg">
<path d="M0 46C0 20.5949 20.7589 0 46.3663 0C71.9737 0 92.7326 20.5949 92.7326 46C92.7326 71.4051 71.9737 92 46.3663 92C20.7589 92 0 71.4051 0 46Z" fill="#1E3F82"/>
<path d="M0 46C0 20.5949 20.7589 0 46.3663 0C71.9737 0 92.7326 20.5949 92.7326 46C92.7326 71.4051 71.9737 92 46.3663 92C20.7589 92 0 71.4051 0 46Z" fill="url(#paint0_radial_1011_1270)" fill-opacity="0.25"/>
<path d="M0 46C0 20.5949 20.7589 0 46.3663 0C71.9737 0 92.7326 20.5949 92.7326 46C92.7326 71.4051 71.9737 92 46.3663 92C20.7589 92 0 71.4051 0 46Z" fill="url(#paint1_radial_1011_1270)" fill-opacity="0.55"/>
<path d="M22.9108 44.7109C22.9108 37.6678 25.3073 31.791 30.1005 27.0806C34.9388 22.3253 41.0207 19.9477 48.346 19.9477C55.8974 19.9477 62.1149 22.0786 66.9985 26.3404L61.301 35.1556C59.8992 33.8995 58.0905 32.8452 55.8748 31.9929C53.6591 31.1405 51.5339 30.7143 49.4991 30.7143C44.7059 30.7143 41.1111 32.0153 38.7145 34.6172C36.3632 37.1743 35.1875 40.4043 35.1875 44.3072C35.1875 48.7484 36.5214 52.2924 39.1893 54.9392C41.9024 57.586 45.2033 58.9094 49.0921 58.9094C52.6191 58.9094 55.8974 57.7431 58.9271 55.4103V51.7093H52.0765V41.6828H69.4403V68.8686H59.5375V67.5227L59.6053 65.504H59.4697C58.0227 66.7601 56.1235 67.7695 53.7722 68.5321C51.466 69.2947 49.1147 69.6761 46.7181 69.6761C40.2067 69.6761 34.5997 67.4106 29.897 62.8796C25.2395 58.3487 22.9108 52.2924 22.9108 44.7109Z" fill="white"/>
<path d="M110.664 44.9612C110.664 36.9576 113.388 30.2795 118.834 24.9268C124.333 19.523 131.244 16.8212 139.568 16.8212C148.149 16.8212 155.215 19.2427 160.764 24.0856L154.29 34.1029C152.697 32.6755 150.641 31.4775 148.124 30.5089C145.606 29.5403 143.191 29.056 140.878 29.056C135.432 29.056 131.347 30.5344 128.623 33.4911C125.951 36.3969 124.615 40.0673 124.615 44.5024C124.615 49.5493 126.131 53.5766 129.163 56.5843C132.246 59.592 135.997 61.0959 140.416 61.0959C144.424 61.0959 148.149 59.7705 151.592 57.1196V52.9139H143.807V41.5202H163.539V72.4131H152.286V70.8837L152.363 68.5897H152.209C150.564 70.0171 148.406 71.1641 145.734 72.0308C143.114 72.8974 140.442 73.3307 137.718 73.3307C130.319 73.3307 123.947 70.7563 118.603 65.6075C113.311 60.4587 110.664 53.5766 110.664 44.9612Z" fill="white"/>
<path d="M173.438 67.6721C169.122 63.8487 166.964 58.9038 166.964 52.8374C166.964 46.771 169.122 41.8006 173.438 37.9262C177.755 34.0519 183.073 32.1147 189.393 32.1147C195.765 32.1147 201.109 34.0519 205.425 37.9262C209.793 41.7496 211.977 46.72 211.977 52.8374C211.977 58.9038 209.818 63.8487 205.502 67.6721C201.186 71.4445 195.842 73.3307 189.47 73.3307C183.099 73.3307 177.755 71.4445 173.438 67.6721ZM180.452 52.8374C180.452 55.6922 181.326 57.9862 183.073 59.7195C184.82 61.4527 186.952 62.3194 189.47 62.3194C191.988 62.3194 194.12 61.4527 195.868 59.7195C197.615 57.9862 198.488 55.6922 198.488 52.8374C198.488 49.9316 197.615 47.5866 195.868 45.8024C194.12 44.0181 191.988 43.126 189.47 43.126C186.952 43.126 184.82 44.0181 183.073 45.8024C181.326 47.5866 180.452 49.9316 180.452 52.8374Z" fill="white"/>
<path d="M221.503 74.9365C224.997 76.6188 228.723 77.4599 232.679 77.4599C238.794 77.4599 241.851 74.9365 241.851 69.8897V68.5897L241.929 67.1368H241.774C239.462 69.8897 236.148 71.2661 231.832 71.2661C226.179 71.2661 221.786 69.3289 218.651 65.4545C215.517 61.5802 213.95 56.9157 213.95 51.461C213.95 46.0573 215.491 41.4947 218.574 37.7733C221.657 34.0009 226.051 32.1147 231.754 32.1147C236.379 32.1147 239.976 33.3892 242.545 35.9381H242.776C242.725 35.6322 242.699 35.3263 242.699 35.0205V33.0323H255.186V68.8191C255.186 72.2856 254.543 75.3189 253.259 77.9188C251.974 80.5186 250.227 82.5578 248.018 84.0362C245.808 85.5655 243.419 86.687 240.849 87.4007C238.332 88.1144 235.634 88.4713 232.756 88.4713C227.258 88.4713 222.248 87.2988 217.727 84.9538L221.503 74.9365ZM227.361 51.0022C227.361 53.6531 228.003 55.8706 229.288 57.6549C230.573 59.3881 232.474 60.2548 234.992 60.2548C237.047 60.2548 238.743 59.6175 240.079 58.3431C241.466 57.0176 242.16 54.7746 242.16 51.6139C242.16 45.9553 239.591 43.126 234.452 43.126C232.191 43.126 230.444 43.8652 229.211 45.3436C227.978 46.771 227.361 48.6572 227.361 51.0022Z" fill="white"/>
<path d="M265.668 67.6721C261.352 63.8487 259.194 58.9038 259.194 52.8374C259.194 46.771 261.352 41.8006 265.668 37.9262C269.984 34.0519 275.303 32.1147 281.623 32.1147C287.995 32.1147 293.339 34.0519 297.655 37.9262C302.022 41.7496 304.206 46.72 304.206 52.8374C304.206 58.9038 302.048 63.8487 297.732 67.6721C293.416 71.4445 288.072 73.3307 281.7 73.3307C275.328 73.3307 269.984 71.4445 265.668 67.6721ZM272.682 52.8374C272.682 55.6922 273.556 57.9862 275.303 59.7195C277.05 61.4527 279.182 62.3194 281.7 62.3194C284.218 62.3194 286.35 61.4527 288.097 59.7195C289.844 57.9862 290.718 55.6922 290.718 52.8374C290.718 49.9316 289.844 47.5866 288.097 45.8024C286.35 44.0181 284.218 43.126 281.7 43.126C279.182 43.126 277.05 44.0181 275.303 45.8024C273.556 47.5866 272.682 49.9316 272.682 52.8374Z" fill="white"/>
<path d="M311.498 72.4131V18.6564H352.811V72.4131H347.493V23.3974H316.816V72.4131H311.498Z" fill="white"/>
<path d="M360.244 62.09C360.244 53.1688 368.106 48.7082 383.83 48.7082H386.142V47.6376C386.142 41.0104 382.956 37.6968 376.585 37.6968C372.628 37.6968 368.954 38.9203 365.563 41.3673L363.173 37.391C364.715 36.0655 366.745 35.0205 369.262 34.2558C371.78 33.4401 374.324 33.0323 376.893 33.0323C381.569 33.0323 385.14 34.3068 387.607 36.8557C390.124 39.3536 391.383 42.9986 391.383 47.7905V72.4131H386.373V67.9015L386.605 64.6899H386.45C385.371 67.1368 383.65 69.2015 381.286 70.8837C378.974 72.515 376.328 73.3307 373.347 73.3307C369.802 73.3307 366.719 72.3366 364.098 70.3485C361.529 68.3603 360.244 65.6075 360.244 62.09ZM365.563 61.6312C365.563 63.5683 366.333 65.2761 367.875 66.7545C369.417 68.2329 371.549 68.9721 374.272 68.9721C377.818 68.9721 380.67 67.4937 382.828 64.5369C385.037 61.5802 386.142 58.2666 386.142 54.5962V52.8374H383.907C382.263 52.8374 380.824 52.8629 379.591 52.9139C378.409 52.9649 376.842 53.1688 374.889 53.5256C372.988 53.8315 371.421 54.2648 370.187 54.8256C368.954 55.3863 367.875 56.253 366.95 57.4255C366.025 58.598 365.563 59.9999 365.563 61.6312Z" fill="white"/>
<path d="M400.756 87.7066V33.9499H405.766V38.0027L405.535 40.9849H405.689C406.871 38.487 408.643 36.5498 411.007 35.1734C413.422 33.746 416.146 33.0323 419.177 33.0323C424.367 33.0323 428.478 34.893 431.509 38.6144C434.541 42.2849 436.057 47.1278 436.057 53.1433C436.057 59.2097 434.438 64.1036 431.201 67.825C427.964 71.4955 423.802 73.3307 418.715 73.3307C415.991 73.3307 413.499 72.668 411.238 71.3425C408.977 69.9661 407.205 68.0799 405.92 65.684H405.766C405.92 66.6016 405.997 67.7231 405.997 69.0485V87.7066H400.756ZM405.843 53.2962C405.843 57.4255 406.948 61.0194 409.157 64.0781C411.418 67.1368 414.424 68.6662 418.175 68.6662C421.721 68.6662 424.701 67.2898 427.116 64.5369C429.531 61.7331 430.739 57.9607 430.739 53.2197C430.739 48.5807 429.583 44.8593 427.27 42.0555C425.009 39.2007 422.055 37.7733 418.406 37.7733C414.861 37.7733 411.881 39.0732 409.466 41.6731C407.051 44.273 405.843 48.1474 405.843 53.2962Z" fill="white"/>
<path d="M452.102 72.4131V38.538H437.997V33.9499H471.525V38.538H457.343V72.4131H452.102Z" fill="white"/>
<path d="M476.878 72.4131V33.9499H482.119V50.3904H504.78V33.9499H510.021V72.4131H504.78V54.9785H482.119V72.4131H476.878Z" fill="white"/>
<path d="M517.173 53.2197C517.173 47.1023 518.997 42.2084 522.646 38.538C526.345 34.8675 530.919 33.0323 536.365 33.0323C541.504 33.0323 545.486 34.7401 548.312 38.1556C551.138 41.5202 552.551 45.7259 552.551 50.7728C552.551 51.3845 552.5 52.2511 552.397 53.3727H522.646C522.748 58.1137 524.239 61.8351 527.116 64.5369C529.994 67.2388 533.513 68.5897 537.676 68.5897C542.146 68.5897 546.077 67.0604 549.468 64.0017L551.858 67.978C550.059 69.6093 547.85 70.9092 545.229 71.8778C542.66 72.8464 540.091 73.3307 537.521 73.3307C531.715 73.3307 526.859 71.4445 522.954 67.6721C519.1 63.8997 517.173 59.0823 517.173 53.2197ZM522.877 49.2434H547.233C547.079 45.4201 545.974 42.4888 543.919 40.4497C541.863 38.3596 539.294 37.3145 536.211 37.3145C532.871 37.3145 529.968 38.3596 527.501 40.4497C525.035 42.5398 523.494 45.471 522.877 49.2434Z" fill="white"/>
<path d="M559.699 87.7066V33.9499H564.709V38.0027L564.478 40.9849H564.632C565.814 38.487 567.586 36.5498 569.95 35.1734C572.365 33.746 575.089 33.0323 578.12 33.0323C583.31 33.0323 587.421 34.893 590.453 38.6144C593.484 42.2849 595 47.1278 595 53.1433C595 59.2097 593.381 64.1036 590.144 67.825C586.907 71.4955 582.745 73.3307 577.658 73.3307C574.934 73.3307 572.442 72.668 570.181 71.3425C567.921 69.9661 566.148 68.0799 564.863 65.684H564.709C564.863 66.6016 564.94 67.7231 564.94 69.0485V87.7066H559.699ZM564.786 53.2962C564.786 57.4255 565.891 61.0194 568.1 64.0781C570.361 67.1368 573.367 68.6662 577.118 68.6662C580.664 68.6662 583.644 67.2898 586.059 64.5369C588.474 61.7331 589.682 57.9607 589.682 53.2197C589.682 48.5807 588.526 44.8593 586.213 42.0555C583.952 39.2007 580.998 37.7733 577.35 37.7733C573.804 37.7733 570.824 39.0732 568.409 41.6731C565.994 44.273 564.786 48.1474 564.786 53.2962Z" fill="white"/>
<defs>
<radialGradient id="paint0_radial_1011_1270" cx="0" cy="0" r="1" gradientUnits="userSpaceOnUse" gradientTransform="translate(564.4 -4.83634e-06) rotate(170.004) scale(419.468 144.644)">
<stop stop-color="#14FF00"/>
<stop offset="1" stop-color="white" stop-opacity="0"/>
</radialGradient>
<radialGradient id="paint1_radial_1011_1270" cx="0" cy="0" r="1" gradientUnits="userSpaceOnUse" gradientTransform="translate(44.2 -1.75718e-06) rotate(14.0387) scale(306.659 161.33)">
<stop stop-color="#0DFFC5"/>
<stop offset="1" stop-color="white" stop-opacity="0"/>
</radialGradient>
</defs>
</svg>
