<svg width="511" height="91" viewBox="0 0 511 91" fill="none" xmlns="http://www.w3.org/2000/svg">
<path d="M308.117 69.3269V19.6985H313.165V41.23H321.798L335.699 19.6985H341.479L326.042 43.1361V43.2773L342.503 69.3269H336.577L321.798 45.6069H313.165V69.3269H308.117ZM339.393 78.2219C340.758 79.3044 342.221 79.8456 343.782 79.8456C346.709 79.8456 349.05 77.916 350.806 74.0568L353 68.9739L337.71 33.8175H343.197L353.952 59.726L355.342 63.4675H355.488C355.829 62.1498 356.244 60.9026 356.732 59.726L367.34 33.8175H372.681L354.537 76.7394C353.561 79.0455 352.159 80.8575 350.33 82.1753C348.501 83.4931 346.392 84.152 344.002 84.152C342.88 84.152 341.77 83.9754 340.673 83.6225C339.575 83.2695 338.783 82.9283 338.295 82.5988L337.49 82.0341L339.393 78.2219ZM375.058 83.446V33.8175H379.813V37.5591L379.594 40.3123H379.74C380.862 38.0062 382.557 36.206 384.825 34.9118C387.093 33.6175 389.665 32.9704 392.543 32.9704C397.469 32.9704 401.371 34.6764 404.249 38.0886C407.127 41.5006 408.565 45.9835 408.565 51.5369C408.565 57.1375 407.029 61.6438 403.956 65.0559C400.883 68.468 396.933 70.1741 392.104 70.1741C389.519 70.1741 387.154 69.5505 385.008 68.3033C382.861 67.0561 381.179 65.3265 379.959 63.1146H379.813C379.959 63.9617 380.033 64.9971 380.033 66.2207V83.446H375.058ZM379.886 51.6781C379.886 55.4903 380.947 58.8082 383.069 61.632C385.19 64.4559 388.032 65.8678 391.592 65.8678C394.957 65.8678 397.786 64.5853 400.079 62.0203C402.371 59.4554 403.517 55.9844 403.517 51.6075C403.517 47.3247 402.432 43.8773 400.262 41.2653C398.091 38.6533 395.274 37.3473 391.811 37.3473C388.446 37.3473 385.617 38.5474 383.325 40.9476C381.032 43.3479 379.886 46.9247 379.886 51.6781ZM412.698 69.3269V33.8175H417.673V47.3718H425.648C429.354 47.3718 432.427 48.2425 434.866 49.9838C437.304 51.7252 438.524 54.549 438.524 58.4553C438.524 61.7968 437.426 64.4441 435.232 66.3972C433.037 68.3504 429.793 69.3269 425.501 69.3269H412.698ZM417.673 65.5148H425.062C430.623 65.5148 433.403 63.1381 433.403 58.3847C433.403 56.1256 432.72 54.3607 431.354 53.09C429.988 51.8193 427.916 51.184 425.135 51.184H417.673V65.5148ZM438.999 51.6075C438.999 45.9599 440.742 41.4418 444.23 38.0532C447.717 34.6647 452.046 32.9704 457.216 32.9704C462.093 32.9704 465.873 34.5352 468.556 37.665C471.238 40.7947 472.579 44.6892 472.579 49.3485C472.579 49.9132 472.531 50.7133 472.433 51.7487H444.193C444.29 56.1256 445.705 59.5613 448.436 62.0556C451.168 64.55 454.509 65.7972 458.459 65.7972C462.703 65.7972 466.434 64.3853 469.653 61.5615L471.921 65.2324C470.214 66.7384 468.129 67.9386 465.666 68.8328C463.203 69.727 460.752 70.1741 458.313 70.1741C452.802 70.1741 448.205 68.4327 444.522 64.95C440.84 61.4673 438.999 57.0198 438.999 51.6075ZM444.412 47.9366H467.531C467.385 44.4068 466.336 41.6889 464.385 39.7828C462.434 37.8768 459.996 36.9237 457.069 36.9237C453.899 36.9237 451.143 37.8885 448.802 39.8181C446.461 41.7477 444.998 44.4539 444.412 47.9366ZM476.493 83.446V33.8175H481.248V37.5591L481.029 40.3123H481.175C482.297 38.0062 483.992 36.206 486.26 34.9118C488.528 33.6175 491.1 32.9704 493.978 32.9704C498.904 32.9704 502.806 34.6764 505.684 38.0886C508.561 41.5006 510 45.9835 510 51.5369C510 57.1375 508.464 61.6438 505.391 65.0559C502.318 68.468 498.368 70.1741 493.539 70.1741C490.954 70.1741 488.589 69.5505 486.442 68.3033C484.296 67.0561 482.614 65.3265 481.394 63.1146H481.248C481.394 63.9617 481.468 64.9971 481.468 66.2207V83.446H476.493ZM481.321 51.6781C481.321 55.4903 482.382 58.8082 484.504 61.632C486.625 64.4559 489.466 65.8678 493.027 65.8678C496.392 65.8678 499.221 64.5853 501.514 62.0203C503.806 59.4554 504.952 55.9844 504.952 51.6075C504.952 47.3247 503.867 43.8773 501.697 41.2653C499.526 38.6533 496.709 37.3473 493.246 37.3473C489.881 37.3473 487.052 38.5474 484.76 40.9476C482.467 43.3479 481.321 46.9247 481.321 51.6781Z" fill="black"/>
<path d="M111.562 44.4408C111.562 36.6461 114.305 30.1298 119.792 24.892C125.278 19.6541 132.193 17.0352 140.538 17.0352C149.141 17.0352 156.224 19.3934 161.787 24.11L155.296 33.8658C153.699 32.4757 151.639 31.309 149.115 30.3656C146.591 29.4223 144.17 28.9507 141.852 28.9507C136.391 28.9507 132.309 30.3781 129.605 33.2328C126.9 36.0876 125.548 39.6746 125.548 43.994C125.548 48.9091 127.081 52.8313 130.146 55.7606C133.21 58.6898 136.958 60.1544 141.388 60.1544C145.406 60.1544 149.141 58.8636 152.592 56.2819V52.1859H144.788V41.0896H164.568V71.1763H153.287V69.6868L153.365 67.4527H153.21C151.562 68.8428 149.411 69.9599 146.758 70.8039C144.105 71.6479 141.414 72.0699 138.684 72.0699C131.266 72.0699 124.891 69.5627 119.56 64.5483C114.228 59.5338 111.562 52.8313 111.562 44.4408ZM173.706 66.5218C169.379 62.823 167.216 58.0195 167.216 52.1114C167.216 46.2033 169.379 41.3627 173.706 37.5894C178.033 33.8162 183.365 31.9296 189.701 31.9296C196.088 31.9296 201.458 33.8038 205.811 37.5522C210.164 41.3006 212.34 46.1537 212.34 52.1114C212.34 58.0195 210.177 62.823 205.85 66.5218C201.523 70.2205 196.165 72.0699 189.778 72.0699C183.39 72.0699 178.033 70.2205 173.706 66.5218ZM180.738 52.1114C180.738 54.8917 181.613 57.1259 183.365 58.8139C185.116 60.5019 187.254 61.346 189.778 61.346C192.302 61.346 194.44 60.5019 196.191 58.8139C197.943 57.1259 198.818 54.8917 198.818 52.1114C198.818 49.2815 197.943 46.9977 196.191 45.26C194.44 43.5224 192.302 42.6535 189.778 42.6535C187.254 42.6535 185.116 43.5224 183.365 45.26C181.613 46.9977 180.738 49.2815 180.738 52.1114ZM221.169 73.6338C224.672 75.2722 228.406 76.0914 232.373 76.0914C238.503 76.0914 241.568 73.6338 241.568 68.7187V67.4527L241.645 66.0377H241.49C239.172 68.7187 235.85 70.0592 231.523 70.0592C225.856 70.0592 221.452 68.1726 218.31 64.3993C215.168 60.6261 213.596 56.0833 213.596 50.7709C213.596 45.5083 215.142 41.0524 218.233 37.4032C221.323 33.7541 225.728 31.9296 231.445 31.9296C236.082 31.9296 239.687 33.1708 242.263 35.6532H242.495C242.443 35.3553 242.418 35.0574 242.418 34.7595V32.8232H254.935V67.6761C254.935 71.0521 254.291 74.0062 253.003 76.5382C251.715 79.0703 249.964 81.0686 247.749 82.5332C245.534 83.9978 243.152 85.0777 240.602 85.7728C238.052 86.4678 235.335 86.8154 232.45 86.8154C226.938 86.8154 221.916 85.6735 217.383 83.3896L221.169 73.6338ZM227.041 50.3241C227.041 52.9058 227.685 55.0531 228.973 56.7659C230.261 58.4788 232.167 59.3352 234.691 59.3352C236.751 59.3352 238.464 58.7022 239.829 57.4362C241.194 56.1702 241.877 53.9981 241.877 50.9199C241.877 45.409 239.301 42.6535 234.15 42.6535C231.883 42.6535 230.132 43.361 228.896 44.7759C227.659 46.1909 227.041 48.0403 227.041 50.3241ZM264.691 66.5218C260.364 62.823 258.2 58.0195 258.2 52.1114C258.2 46.2033 260.364 41.3627 264.691 37.5894C269.018 33.8162 274.349 31.9296 280.685 31.9296C287.073 31.9296 292.443 33.8038 296.796 37.5522C301.148 41.3006 303.325 46.1537 303.325 52.1114C303.325 58.0195 301.161 62.823 296.834 66.5218C292.507 70.2205 287.15 72.0699 280.762 72.0699C274.375 72.0699 269.018 70.2205 264.691 66.5218ZM271.722 52.1114C271.722 54.8917 272.598 57.1259 274.349 58.8139C276.101 60.5019 278.238 61.346 280.762 61.346C283.287 61.346 285.424 60.5019 287.176 58.8139C288.927 57.1259 289.803 54.8917 289.803 52.1114C289.803 49.2815 288.927 46.9977 287.176 45.26C285.424 43.5224 283.287 42.6535 280.762 42.6535C278.238 42.6535 276.101 43.5224 274.349 45.26C272.598 46.9977 271.722 49.2815 271.722 52.1114Z" fill="black"/>
<path d="M0 45.5C0 20.371 20.371 0 45.5 0C70.629 0 91 20.371 91 45.5C91 70.629 70.629 91 45.5 91C20.371 91 0 70.629 0 45.5Z" fill="#1E3F82"/>
<path d="M0 45.5C0 20.371 20.371 0 45.5 0C70.629 0 91 20.371 91 45.5C91 70.629 70.629 91 45.5 91C20.371 91 0 70.629 0 45.5Z" fill="url(#paint0_radial_982_2095)" fill-opacity="0.25"/>
<path d="M0 45.5C0 20.371 20.371 0 45.5 0C70.629 0 91 20.371 91 45.5C91 70.629 70.629 91 45.5 91C20.371 91 0 70.629 0 45.5Z" fill="url(#paint1_radial_982_2095)" fill-opacity="0.55"/>
<path d="M22.4827 44.225C22.4827 37.2583 24.8345 31.4454 29.5381 26.7862C34.286 22.0827 40.2542 19.7309 47.4427 19.7309C54.8531 19.7309 60.9544 21.8386 65.7467 26.0541L60.1557 34.7734C58.7801 33.531 57.0052 32.4882 54.8309 31.6451C52.6566 30.802 50.571 30.3805 48.5742 30.3805C43.8707 30.3805 40.343 31.6673 37.9912 34.241C35.6838 36.7702 34.5301 39.9651 34.5301 43.8256C34.5301 48.2186 35.8391 51.7241 38.4571 54.3421C41.1195 56.9601 44.3588 58.2691 48.1749 58.2691C51.636 58.2691 54.8531 57.1154 57.8261 54.808V51.1472H51.1035V41.2298H68.1429V68.12H58.4251V66.7888L58.4917 64.792H58.3586C56.9386 66.0344 55.0749 67.0329 52.7675 67.7872C50.5045 68.5415 48.1971 68.9187 45.8453 68.9187C39.4555 68.9187 33.9532 66.6779 29.3384 62.1962C24.7679 57.7145 22.4827 51.724 22.4827 44.225Z" fill="white"/>
<defs>
<radialGradient id="paint0_radial_982_2095" cx="0" cy="0" r="1" gradientUnits="userSpaceOnUse" gradientTransform="translate(86.32 -4.78377e-06) rotate(131.259) scale(95.805)">
<stop stop-color="#14FF00"/>
<stop offset="1" stop-color="white" stop-opacity="0"/>
</radialGradient>
<radialGradient id="paint1_radial_982_2095" cx="0" cy="0" r="1" gradientUnits="userSpaceOnUse" gradientTransform="translate(6.76 -1.73808e-06) rotate(58.2684) scale(86.5117)">
<stop stop-color="#0DFFC5"/>
<stop offset="1" stop-color="white" stop-opacity="0"/>
</radialGradient>
</defs>
</svg>
