<svg width="51" height="52" viewBox="0 0 51 52" fill="none" xmlns="http://www.w3.org/2000/svg">
<path d="M25.8255 30.4348C23.4723 30.4348 21.4329 28.5027 21.4329 25.9266C21.4329 23.5114 23.3154 21.4183 25.8255 21.4183C28.1787 21.4183 30.2182 23.3504 30.2182 25.9266C30.2182 28.3417 28.1787 30.4348 25.8255 30.4348Z" fill="white"/>
<path fill-rule="evenodd" clip-rule="evenodd" d="M31.1595 14.9779H20.4916C19.2365 15.1389 18.609 15.3 18.1384 15.461C17.5108 15.622 17.0402 15.944 16.5696 16.427C16.1972 16.8092 16.0212 17.1915 15.8085 17.6534C15.7525 17.7752 15.6937 17.9028 15.6283 18.0371C15.604 18.1118 15.576 18.1904 15.5459 18.2746C15.3818 18.7348 15.1576 19.3634 15.1576 20.4523V31.4009C15.3145 32.6889 15.4714 33.333 15.6283 33.816C15.7852 34.46 16.0989 34.9431 16.5696 35.4261C16.942 35.8083 17.3144 35.9889 17.7645 36.2072C17.8833 36.2648 18.0074 36.3249 18.1384 36.3922C18.2112 36.4171 18.2877 36.4458 18.3698 36.4767C18.8182 36.6451 19.4307 36.8752 20.4916 36.8752H31.1595C32.4145 36.7142 33.042 36.5532 33.5127 36.3922C34.1402 36.2312 34.6108 35.9091 35.0815 35.4261C35.4539 35.0439 35.6299 34.6617 35.8425 34.1997C35.8986 34.0779 35.9573 33.9504 36.0228 33.816C36.047 33.7413 36.0751 33.6627 36.1051 33.5785C36.2692 33.1183 36.4934 32.4897 36.4934 31.4009V20.4523C36.3365 19.1642 36.1797 18.5201 36.0228 18.0371C35.8659 17.3931 35.5521 16.91 35.0815 16.427C34.7091 16.0448 34.3367 15.8642 33.8865 15.6459C33.768 15.5885 33.6434 15.5281 33.5127 15.461C33.4399 15.4361 33.3633 15.4073 33.2813 15.3765C32.8329 15.208 32.2204 14.9779 31.1595 14.9779ZM25.8255 19.0032C22.0604 19.0032 19.0797 22.0623 19.0797 25.9266C19.0797 29.7908 22.0604 32.85 25.8255 32.85C29.5907 32.85 32.5714 29.7908 32.5714 25.9266C32.5714 22.0623 29.5907 19.0032 25.8255 19.0032ZM34.2971 18.8422C34.2971 19.7314 33.5947 20.4523 32.7283 20.4523C31.8619 20.4523 31.1595 19.7314 31.1595 18.8422C31.1595 17.9529 31.8619 17.2321 32.7283 17.2321C33.5947 17.2321 34.2971 17.9529 34.2971 18.8422Z" fill="white"/>
<path fill-rule="evenodd" clip-rule="evenodd" d="M0.724609 25.9266C0.724609 11.6989 11.9627 0.1651 25.8255 0.1651C39.6884 0.1651 50.9264 11.6989 50.9264 25.9266C50.9264 40.1542 39.6884 51.688 25.8255 51.688C11.9627 51.688 0.724609 40.1542 0.724609 25.9266ZM20.4916 12.5628H31.1595C32.5714 12.7238 33.5127 12.8848 34.2971 13.2068C35.2384 13.6899 35.8659 14.0119 36.6503 14.8169C37.4347 15.622 37.9053 16.427 38.2191 17.2321C38.5329 18.0371 38.8466 19.0032 38.8466 20.4523V31.4009C38.6897 32.85 38.5329 33.816 38.2191 34.6211C37.7485 35.5871 37.4347 36.2312 36.6503 37.0362C35.8659 37.8412 35.0815 38.3243 34.2971 38.6463C33.5127 38.9683 32.5714 39.2903 31.1595 39.2903H20.4916C19.0797 39.1293 18.1384 38.9683 17.354 38.6463C16.4127 38.1633 15.7852 37.8412 15.0008 37.0362C14.2164 36.2312 13.7457 35.4261 13.4319 34.6211C13.1182 33.816 12.8044 32.85 12.8044 31.4009V20.4523C12.9613 19.0032 13.1182 18.0371 13.4319 17.2321C13.9026 16.266 14.2164 15.622 15.0008 14.8169C15.7852 14.0119 16.5696 13.5289 17.354 13.2068C18.1384 12.8848 19.0797 12.5628 20.4916 12.5628Z" fill="white"/>
</svg>
