<svg width="38" height="39" viewBox="0 0 38 39" fill="none" xmlns="http://www.w3.org/2000/svg">
<path d="M19 22.9125C17.2188 22.9125 15.675 21.45 15.675 19.5C15.675 17.6719 17.1 16.0875 19 16.0875C20.7812 16.0875 22.325 17.55 22.325 19.5C22.325 21.3281 20.7812 22.9125 19 22.9125Z" fill="white"/>
<path fill-rule="evenodd" clip-rule="evenodd" d="M23.0375 11.2125H14.9625C14.0125 11.3344 13.5375 11.4562 13.1813 11.5781C12.7063 11.7 12.35 11.9437 11.9938 12.3094C11.7119 12.5987 11.5787 12.888 11.4177 13.2377C11.3752 13.3299 11.3308 13.4265 11.2812 13.5281C11.2629 13.5847 11.2417 13.6442 11.2189 13.7079C11.0947 14.0562 10.925 14.5321 10.925 15.3562V23.6437C11.0437 24.6187 11.1625 25.1062 11.2812 25.4719C11.4 25.9594 11.6375 26.325 11.9938 26.6906C12.2756 26.9799 12.5575 27.1166 12.8983 27.2819C12.9881 27.3254 13.0821 27.371 13.1813 27.4219C13.2364 27.4407 13.2943 27.4625 13.3564 27.4858C13.6958 27.6133 14.1595 27.7875 14.9625 27.7875H23.0375C23.9875 27.6656 24.4625 27.5437 24.8188 27.4219C25.2937 27.3 25.65 27.0562 26.0063 26.6906C26.2881 26.4013 26.4213 26.112 26.5823 25.7623C26.6248 25.6701 26.6692 25.5736 26.7188 25.4719C26.7371 25.4153 26.7583 25.3558 26.7811 25.2921C26.9053 24.9437 27.075 24.4679 27.075 23.6437V15.3562C26.9562 14.3812 26.8375 13.8937 26.7188 13.5281C26.6 13.0406 26.3625 12.675 26.0063 12.3094C25.7244 12.0201 25.4425 11.8834 25.1017 11.7181C25.012 11.6746 24.9177 11.6289 24.8188 11.5781C24.7636 11.5593 24.7057 11.5375 24.6436 11.5142C24.3042 11.3867 23.8405 11.2125 23.0375 11.2125ZM19 14.2594C16.15 14.2594 13.8938 16.575 13.8938 19.5C13.8938 22.425 16.15 24.7406 19 24.7406C21.85 24.7406 24.1062 22.425 24.1062 19.5C24.1062 16.575 21.85 14.2594 19 14.2594ZM25.4125 14.1375C25.4125 14.8106 24.8808 15.3562 24.225 15.3562C23.5692 15.3562 23.0375 14.8106 23.0375 14.1375C23.0375 13.4644 23.5692 12.9187 24.225 12.9187C24.8808 12.9187 25.4125 13.4644 25.4125 14.1375Z" fill="white"/>
<path fill-rule="evenodd" clip-rule="evenodd" d="M0 19.5C0 8.73045 8.50659 0 19 0C29.4934 0 38 8.73045 38 19.5C38 30.2696 29.4934 39 19 39C8.50659 39 0 30.2696 0 19.5ZM14.9625 9.38437H23.0375C24.1062 9.50625 24.8188 9.62812 25.4125 9.87187C26.125 10.2375 26.6 10.4812 27.1938 11.0906C27.7875 11.7 28.1438 12.3094 28.3813 12.9187C28.6187 13.5281 28.8562 14.2594 28.8562 15.3562V23.6437C28.7375 24.7406 28.6187 25.4719 28.3813 26.0812C28.025 26.8125 27.7875 27.3 27.1938 27.9094C26.6 28.5187 26.0063 28.8844 25.4125 29.1281C24.8188 29.3719 24.1062 29.6156 23.0375 29.6156H14.9625C13.8938 29.4937 13.1813 29.3719 12.5875 29.1281C11.875 28.7625 11.4 28.5187 10.8063 27.9094C10.2125 27.3 9.85625 26.6906 9.61875 26.0812C9.38125 25.4719 9.14375 24.7406 9.14375 23.6437V15.3562C9.2625 14.2594 9.38125 13.5281 9.61875 12.9187C9.975 12.1875 10.2125 11.7 10.8063 11.0906C11.4 10.4812 11.9938 10.1156 12.5875 9.87187C13.1813 9.62812 13.8938 9.38437 14.9625 9.38437Z" fill="white"/>
</svg>
