<svg width="39" height="39" viewBox="0 0 39 39" fill="none" xmlns="http://www.w3.org/2000/svg">
<path fill-rule="evenodd" clip-rule="evenodd" d="M19.5 39C8.73045 39 0 30.2696 0 19.5C0 8.73045 8.73045 0 19.5 0C30.2696 0 39 8.73045 39 19.5C39 30.2696 30.2696 39 19.5 39ZM20.3432 14.634C18.5967 15.3604 15.1063 16.8639 9.87177 19.1445C9.02178 19.4825 8.57651 19.8132 8.53597 20.1365C8.46747 20.683 9.15177 20.8981 10.0836 21.1911C10.2104 21.231 10.3417 21.2723 10.4764 21.3161C11.3931 21.6141 12.6264 21.9627 13.2675 21.9766C13.8491 21.9891 14.4981 21.7494 15.2147 21.2573C20.1055 17.9559 22.6301 16.2872 22.7886 16.2513C22.9004 16.2259 23.0554 16.194 23.1604 16.2873C23.2654 16.3806 23.255 16.5573 23.2439 16.6048C23.1761 16.8937 20.49 19.391 19.0999 20.6834C18.6665 21.0863 18.3591 21.372 18.2963 21.4373C18.1555 21.5835 18.0121 21.7218 17.8742 21.8547C17.0225 22.6758 16.3838 23.2915 17.9096 24.297C18.6428 24.7802 19.2295 25.1798 19.8149 25.5784C20.4541 26.0137 21.0917 26.4479 21.9167 26.9887C22.1269 27.1265 22.3276 27.2696 22.5231 27.409C23.2671 27.9393 23.9354 28.4158 24.7612 28.3398C25.241 28.2957 25.7366 27.8445 25.9883 26.4989C26.5831 23.3189 27.7524 16.4289 28.0226 13.5896C28.0463 13.3409 28.0165 13.0225 27.9926 12.8828C27.9686 12.743 27.9187 12.5439 27.737 12.3965C27.5219 12.2219 27.1898 12.1851 27.0412 12.1876C26.3659 12.1996 25.3297 12.5599 20.3432 14.634Z" fill="white"/>
</svg>
