<svg width="38" height="39" viewBox="0 0 38 39" fill="none" xmlns="http://www.w3.org/2000/svg">
<path d="M12.7047 15.6845C12.806 20.7545 15.276 23.7965 19.608 23.7965H19.8613V20.8975C21.451 21.06 22.6543 22.256 23.1357 23.7965H25.384C25.1534 22.9211 24.7446 22.1059 24.1846 21.4045C23.6245 20.7031 22.926 20.1315 22.135 19.7275C22.8438 19.2845 23.456 18.6962 23.9333 17.9995C24.4106 17.3027 24.7427 16.5124 24.909 15.678H22.8697C22.4263 17.29 21.109 18.7525 19.8613 18.889V15.6845H17.8157V21.3005C16.549 20.9755 14.953 19.4025 14.8833 15.6845H12.7047Z" fill="white"/>
<path fill-rule="evenodd" clip-rule="evenodd" d="M19 0C29.4934 0 38 8.73045 38 19.5C38 30.2696 29.4934 39 19 39C8.50659 39 0 30.2696 0 19.5C0 8.73045 8.50659 0 19 0ZM9.5 19.11C9.5 14.6965 9.5 12.493 10.83 11.115C12.179 9.75 14.326 9.75 18.62 9.75H19.38C23.6803 9.75 25.8273 9.75 27.17 11.115C28.5 12.4995 28.5 14.703 28.5 19.11V19.89C28.5 24.3035 28.5 26.507 27.17 27.885C25.821 29.25 23.674 29.25 19.38 29.25H18.62C14.3197 29.25 12.1727 29.25 10.83 27.885C9.5 26.5005 9.5 24.297 9.5 19.89V19.11Z" fill="white"/>
</svg>
