<svg width="39" height="39" viewBox="0 0 39 39" fill="none" xmlns="http://www.w3.org/2000/svg">
<path fill-rule="evenodd" clip-rule="evenodd" d="M15.3563 26.4469C16.575 27.1781 18.0375 27.5437 19.5 27.5437C24.0094 27.5437 27.5438 23.8875 27.5438 19.6219C27.5438 17.4281 26.8125 15.4781 25.2281 13.8938C23.6438 12.4312 21.6938 11.5781 19.5 11.5781C15.1125 11.5781 11.4562 15.2344 11.4562 19.6219C11.4562 21.0844 11.8219 22.5469 12.675 23.8875L12.9188 24.2531L12.0656 27.1781L15.1125 26.325L15.3563 26.4469ZM22.1813 20.7188C22.425 20.7188 23.6438 21.3281 23.8875 21.45C23.9255 21.469 23.9634 21.485 24.0009 21.5008C24.2042 21.5866 24.394 21.6668 24.4969 22.1812C24.6188 22.1812 24.6187 22.6687 24.375 23.2781C24.2531 23.7656 23.2781 24.375 22.7906 24.375C22.708 24.375 22.629 24.382 22.5445 24.3895C22.1303 24.4261 21.5865 24.4742 19.8656 23.7656C17.7298 22.9113 16.249 20.8405 15.8332 20.259C15.7744 20.1769 15.7369 20.1245 15.7219 20.1094C15.7011 20.0679 15.6592 20.0016 15.6038 19.9143C15.3342 19.4886 14.7469 18.5612 14.7469 17.55C14.7469 16.3313 15.3562 15.7219 15.6 15.4781C15.8437 15.2344 16.0875 15.2344 16.2094 15.2344H16.6969C16.8188 15.2344 17.0625 15.2344 17.1844 15.6C17.4281 16.0875 17.9156 17.3062 17.9156 17.4281C17.9156 17.4688 17.9292 17.5094 17.9427 17.55C17.9698 17.6313 17.9969 17.7125 17.9156 17.7937C17.8547 17.8547 17.8242 17.9156 17.7938 17.9766C17.7633 18.0375 17.7328 18.0984 17.6719 18.1594L17.3063 18.525C17.1844 18.6469 17.0625 18.7688 17.1844 19.0125C17.3063 19.2563 17.7938 20.1094 18.525 20.7188C19.3478 21.4387 19.997 21.7247 20.3261 21.8696C20.387 21.8965 20.4369 21.9185 20.475 21.9375C20.7187 21.9375 20.8406 21.9375 20.9625 21.8156C21.0235 21.6938 21.1758 21.5109 21.3281 21.3281C21.4805 21.1453 21.6328 20.9625 21.6937 20.8406C21.8156 20.5969 21.9375 20.5969 22.1813 20.7188Z" fill="white"/>
<path fill-rule="evenodd" clip-rule="evenodd" d="M0 19.5C0 8.73045 8.73045 0 19.5 0C30.2696 0 39 8.73045 39 19.5C39 30.2696 30.2696 39 19.5 39C8.73045 39 0 30.2696 0 19.5ZM19.5 9.75C22.0594 9.75 24.4969 10.725 26.325 12.5531C28.1531 14.3813 29.25 16.8188 29.25 19.3781C29.25 24.7406 24.8625 29.1281 19.5 29.1281C17.9156 29.1281 16.3313 28.6406 14.8688 27.9094L9.75 29.25L11.0906 24.375C10.2375 22.9125 9.75 21.2063 9.75 19.5C9.75 14.1375 14.1375 9.75 19.5 9.75Z" fill="white"/>
</svg>
