<svg width="39" height="39" viewBox="0 0 39 39" fill="none" xmlns="http://www.w3.org/2000/svg">
<path fill-rule="evenodd" clip-rule="evenodd" d="M19.5 0C8.73045 0 0 8.73045 0 19.5C0 30.2696 8.73045 39 19.5 39C30.2696 39 39 30.2696 39 19.5C39 8.73045 30.2696 0 19.5 0ZM19.6045 29.25C19.7368 24.9321 19.8482 22.9613 21.3804 21.3804C22.9613 19.8482 24.9321 19.7438 29.25 19.6045C29.25 23.4975 29.2361 26.4086 27.8432 27.8432C26.4086 29.2361 23.6298 29.25 19.6045 29.25ZM11.1568 27.8432C9.76393 26.4086 9.75 23.4975 9.75 19.6045C14.0679 19.7368 16.0388 19.8482 17.6196 21.3804C19.1518 22.9613 19.2563 24.9321 19.3955 29.25C15.3702 29.25 12.5914 29.2361 11.1568 27.8432ZM11.1568 11.1568C12.5914 9.76393 15.3771 9.75 19.3955 9.75C19.2632 14.0679 19.1518 16.0388 17.6196 17.6196C16.0388 19.1518 14.0679 19.2563 9.75 19.3955C9.75 15.5025 9.76393 12.5914 11.1568 11.1568ZM19.6045 9.75C19.7368 14.0679 19.8482 16.0388 21.3804 17.6196C22.9613 19.1518 24.9321 19.2563 29.25 19.3955C29.25 15.5025 29.2361 12.5914 27.8432 11.1568C26.4086 9.76393 23.6298 9.75 19.6045 9.75Z" fill="white"/>
</svg>
