<svg width="39" height="39" viewBox="0 0 39 39" fill="none" xmlns="http://www.w3.org/2000/svg">
<path d="M22.6688 19.5L17.55 16.575V22.425L22.6688 19.5Z" fill="white"/>
<path fill-rule="evenodd" clip-rule="evenodd" d="M0 19.5C0 8.73045 8.73045 0 19.5 0C30.2696 0 39 8.73045 39 19.5C39 30.2696 30.2696 39 19.5 39C8.73045 39 0 30.2696 0 19.5ZM27.0563 13.0406C27.9094 13.2844 28.5188 13.8938 28.7625 14.7469C29.25 16.3313 29.25 19.5 29.25 19.5C29.25 19.5 29.25 22.6688 28.8844 24.2531C28.6406 25.1063 28.0312 25.7156 27.1781 25.9594C25.5937 26.325 19.5 26.325 19.5 26.325C19.5 26.325 13.2844 26.325 11.8219 25.9594C10.9687 25.7156 10.3594 25.1063 10.1156 24.2531C9.75 22.6688 9.75 19.5 9.75 19.5C9.75 19.5 9.75 16.3313 9.99375 14.7469C10.2375 13.8938 10.8469 13.2844 11.7 13.0406C13.2844 12.675 19.3781 12.675 19.3781 12.675C19.3781 12.675 25.5938 12.675 27.0563 13.0406Z" fill="white"/>
</svg>
