<svg width="481" height="118" viewBox="0 0 481 118" fill="none" xmlns="http://www.w3.org/2000/svg">
<path d="M480.612 109.751C481.056 109.308 481.056 108.588 480.612 108.144L473.38 100.912C472.936 100.468 472.216 100.468 471.772 100.912C471.329 101.356 471.329 102.075 471.772 102.519L478.201 108.948L471.772 115.377C471.329 115.82 471.329 116.54 471.772 116.984C472.216 117.428 472.936 117.428 473.38 116.984L480.612 109.751ZM43.9766 0.131852H21.5316V2.40477H43.9766V0.131852ZM0.507096 21.1563V89.0597H2.78001V21.1563H0.507096ZM21.5316 110.084H479.808V107.811H21.5316V110.084ZM0.507096 89.0597C0.507096 100.671 9.92008 110.084 21.5316 110.084V107.811C11.1754 107.811 2.78001 99.4159 2.78001 89.0597H0.507096ZM21.5316 0.131852C9.92006 0.131852 0.507096 9.54483 0.507096 21.1563H2.78001C2.78001 10.8001 11.1754 2.40477 21.5316 2.40477V0.131852Z" fill="#004E89"/>
</svg>
