<svg width="468" height="142" viewBox="0 0 468 142" fill="none" xmlns="http://www.w3.org/2000/svg">
<path d="M0.696403 132.317C0.252588 132.761 0.252588 133.481 0.696403 133.924L7.92878 141.157C8.37259 141.601 9.09216 141.601 9.53597 141.157C9.97979 140.713 9.97979 139.993 9.53597 139.55L3.10719 133.121L9.53597 126.692C9.97979 126.248 9.97979 125.529 9.53597 125.085C9.09216 124.641 8.37259 124.641 7.92878 125.085L0.696403 132.317ZM422.274 2.42808H446.139V0.155168H422.274V2.42808ZM464.891 21.1796V113.233H467.164V21.1796H464.891ZM446.139 131.984H233.764V134.257H446.139V131.984ZM233.764 131.984H1.5V134.257H233.764V131.984ZM464.891 113.233C464.891 123.589 456.496 131.984 446.139 131.984V134.257C457.751 134.257 467.164 124.844 467.164 113.233H464.891ZM446.139 2.42808C456.496 2.42808 464.891 10.8234 464.891 21.1796H467.164C467.164 9.56815 457.751 0.155168 446.139 0.155168V2.42808Z" fill="#004E89"/>
</svg>
