<svg width="42" height="56" viewBox="0 0 42 56" fill="none" xmlns="http://www.w3.org/2000/svg">
<path d="M2.07315 5.10991C1.17418 5.37999 0.664365 6.32769 0.934443 7.22666L5.33564 21.8762C5.60572 22.7752 6.55342 23.285 7.4524 23.015C8.35137 22.7449 8.86118 21.7972 8.59111 20.8982L4.67893 7.87635L17.7008 3.96417C18.5997 3.69409 19.1096 2.74639 18.8395 1.84742C18.5694 0.948448 17.6217 0.43863 16.7227 0.708708L2.07315 5.10991ZM5.98419 6.6486L3.36736 5.24087L1.75699 8.23441L4.37381 9.64213L5.98419 6.6486ZM41.0852 55.3466C37.4822 34.5857 24.5408 16.6311 5.98419 6.6486L4.37381 9.64213C22.0112 19.1302 34.3116 36.1953 37.7361 55.9278L41.0852 55.3466Z" fill="#004E89"/>
</svg>
