<svg width="26" height="66" viewBox="0 0 26 66" fill="none" xmlns="http://www.w3.org/2000/svg">
<path d="M14.434 2.11963C14.434 1.18096 13.673 0.420025 12.7344 0.420025C11.7957 0.420025 11.0348 1.18096 11.0348 2.11963L14.434 2.11963ZM11.5326 64.5072C12.1963 65.1709 13.2724 65.1709 13.9362 64.5072L24.7524 53.6909C25.4161 53.0272 25.4161 51.9511 24.7524 51.2873C24.0887 50.6236 23.0125 50.6236 22.3488 51.2873L12.7344 60.9018L3.11996 51.2873C2.45623 50.6236 1.3801 50.6236 0.716361 51.2873C0.052624 51.9511 0.052624 53.0272 0.716361 53.6909L11.5326 64.5072ZM12.7344 34.1288H14.434H12.7344ZM11.0348 2.11963L11.0348 34.1288H14.434L14.434 2.11963L11.0348 2.11963ZM11.0348 34.1288L11.0348 63.3054H14.434L14.434 34.1288H11.0348Z" fill="#004E89"/>
</svg>
