<svg width="834" height="612" viewBox="0 0 834 612" fill="none" xmlns="http://www.w3.org/2000/svg">
<g clip-path="url(#clip0_4087_309248)">
<rect width="834" height="612" fill="#001746"/>
<rect width="834" height="612" fill="url(#paint0_linear_4087_309248)" fill-opacity="0.15"/>
<rect width="834" height="612" fill="url(#paint1_radial_4087_309248)" fill-opacity="0.15"/>
<rect width="834" height="612" fill="url(#paint2_radial_4087_309248)" fill-opacity="0.15"/>
<g opacity="0.1">
<path d="M912.891 101.527C913.362 102.343 913.82 103.166 914.266 103.997C913.456 103.467 912.915 102.561 912.891 101.527Z" fill="white"/>
<path d="M896.273 80.574C897.687 81.9012 899.059 83.273 900.386 84.6873C899.873 85.6358 898.869 86.28 897.715 86.28C896.039 86.28 894.68 84.9212 894.68 83.245C894.68 82.0909 895.325 81.0872 896.273 80.574Z" fill="white"/>
<path d="M876.964 66.6944C877.795 67.1402 878.618 67.5986 879.433 68.0692C878.399 68.045 877.493 67.504 876.964 66.6944Z" fill="white"/>
<path d="M788.527 68.0692C789.343 67.5986 790.166 67.1402 790.997 66.6944C790.467 67.504 789.561 68.045 788.527 68.0692Z" fill="white"/>
<path d="M767.574 84.6873C768.901 83.273 770.273 81.9012 771.687 80.574C772.636 81.0872 773.28 82.0909 773.28 83.245C773.28 84.9212 771.921 86.28 770.245 86.28C769.091 86.28 768.087 85.6358 767.574 84.6873Z" fill="white"/>
<path d="M753.694 103.997C754.14 103.166 754.599 102.343 755.069 101.527C755.045 102.561 754.504 103.467 753.694 103.997Z" fill="white"/>
<path d="M914.266 189.964C913.82 190.795 913.362 191.618 912.891 192.433C912.915 191.399 913.456 190.493 914.266 189.964Z" fill="white"/>
<path d="M900.386 209.273C899.873 208.325 898.869 207.68 897.715 207.68C896.039 207.68 894.68 209.039 894.68 210.715C894.68 211.869 895.325 212.873 896.273 213.386C897.687 212.059 899.059 210.687 900.386 209.273Z" fill="white"/>
<path d="M879.433 225.891C878.399 225.915 877.493 226.456 876.964 227.266C877.795 226.82 878.618 226.362 879.433 225.891Z" fill="white"/>
<path d="M790.997 227.266C790.467 226.456 789.561 225.915 788.527 225.891C789.343 226.362 790.166 226.82 790.997 227.266Z" fill="white"/>
<path d="M771.687 213.386C772.636 212.873 773.28 211.869 773.28 210.715C773.28 209.039 771.921 207.68 770.245 207.68C769.091 207.68 768.087 208.325 767.574 209.273C768.901 210.687 770.273 212.059 771.687 213.386Z" fill="white"/>
<path d="M755.069 192.433C755.045 191.399 754.504 190.493 753.694 189.964C754.14 190.795 754.599 191.618 755.069 192.433Z" fill="white"/>
<path d="M809.7 65.035C809.7 66.7112 808.341 68.07 806.665 68.07C804.989 68.07 803.63 66.7112 803.63 65.035C803.63 63.3588 804.989 62 806.665 62C808.341 62 809.7 63.3588 809.7 65.035Z" fill="white"/>
<path d="M827.91 65.035C827.91 66.7112 826.551 68.07 824.875 68.07C823.199 68.07 821.84 66.7112 821.84 65.035C821.84 63.3588 823.199 62 824.875 62C826.551 62 827.91 63.3588 827.91 65.035Z" fill="white"/>
<path d="M846.12 65.035C846.12 66.7112 844.761 68.07 843.085 68.07C841.409 68.07 840.05 66.7112 840.05 65.035C840.05 63.3588 841.409 62 843.085 62C844.761 62 846.12 63.3588 846.12 65.035Z" fill="white"/>
<path d="M864.33 65.035C864.33 66.7112 862.971 68.07 861.295 68.07C859.619 68.07 858.26 66.7112 858.26 65.035C858.26 63.3588 859.619 62 861.295 62C862.971 62 864.33 63.3588 864.33 65.035Z" fill="white"/>
<path d="M791.49 83.245C791.49 84.9212 790.131 86.28 788.455 86.28C786.779 86.28 785.42 84.9212 785.42 83.245C785.42 81.5689 786.779 80.21 788.455 80.21C790.131 80.21 791.49 81.5689 791.49 83.245Z" fill="white"/>
<path d="M809.7 83.245C809.7 84.9212 808.341 86.28 806.665 86.28C804.989 86.28 803.63 84.9212 803.63 83.245C803.63 81.5689 804.989 80.21 806.665 80.21C808.341 80.21 809.7 81.5689 809.7 83.245Z" fill="white"/>
<path d="M827.91 83.245C827.91 84.9212 826.551 86.28 824.875 86.28C823.199 86.28 821.84 84.9212 821.84 83.245C821.84 81.5689 823.199 80.21 824.875 80.21C826.551 80.21 827.91 81.5689 827.91 83.245Z" fill="white"/>
<path d="M846.12 83.245C846.12 84.9212 844.761 86.28 843.085 86.28C841.409 86.28 840.05 84.9212 840.05 83.245C840.05 81.5689 841.409 80.21 843.085 80.21C844.761 80.21 846.12 81.5689 846.12 83.245Z" fill="white"/>
<path d="M864.33 83.245C864.33 84.9212 862.971 86.28 861.295 86.28C859.619 86.28 858.26 84.9212 858.26 83.245C858.26 81.5689 859.619 80.21 861.295 80.21C862.971 80.21 864.33 81.5689 864.33 83.245Z" fill="white"/>
<path d="M882.54 83.245C882.54 84.9212 881.181 86.28 879.505 86.28C877.829 86.28 876.47 84.9212 876.47 83.245C876.47 81.5689 877.829 80.21 879.505 80.21C881.181 80.21 882.54 81.5689 882.54 83.245Z" fill="white"/>
<path d="M773.28 101.455C773.28 103.131 771.921 104.49 770.245 104.49C768.569 104.49 767.21 103.131 767.21 101.455C767.21 99.7789 768.569 98.4201 770.245 98.4201C771.921 98.4201 773.28 99.7789 773.28 101.455Z" fill="white"/>
<path d="M791.49 101.455C791.49 103.131 790.131 104.49 788.455 104.49C786.779 104.49 785.42 103.131 785.42 101.455C785.42 99.7789 786.779 98.4201 788.455 98.4201C790.131 98.4201 791.49 99.7789 791.49 101.455Z" fill="white"/>
<path d="M809.7 101.455C809.7 103.131 808.341 104.49 806.665 104.49C804.989 104.49 803.63 103.131 803.63 101.455C803.63 99.7789 804.989 98.4201 806.665 98.4201C808.341 98.4201 809.7 99.7789 809.7 101.455Z" fill="white"/>
<path d="M827.91 101.455C827.91 103.131 826.551 104.49 824.875 104.49C823.199 104.49 821.84 103.131 821.84 101.455C821.84 99.7789 823.199 98.4201 824.875 98.4201C826.551 98.4201 827.91 99.7789 827.91 101.455Z" fill="white"/>
<path d="M846.12 101.455C846.12 103.131 844.761 104.49 843.085 104.49C841.409 104.49 840.05 103.131 840.05 101.455C840.05 99.7789 841.409 98.4201 843.085 98.4201C844.761 98.4201 846.12 99.7789 846.12 101.455Z" fill="white"/>
<path d="M864.33 101.455C864.33 103.131 862.971 104.49 861.295 104.49C859.619 104.49 858.26 103.131 858.26 101.455C858.26 99.7789 859.619 98.4201 861.295 98.4201C862.971 98.4201 864.33 99.7789 864.33 101.455Z" fill="white"/>
<path d="M882.54 101.455C882.54 103.131 881.181 104.49 879.505 104.49C877.829 104.49 876.47 103.131 876.47 101.455C876.47 99.7789 877.829 98.4201 879.505 98.4201C881.181 98.4201 882.54 99.7789 882.54 101.455Z" fill="white"/>
<path d="M900.75 101.455C900.75 103.131 899.391 104.49 897.715 104.49C896.039 104.49 894.68 103.131 894.68 101.455C894.68 99.7789 896.039 98.4201 897.715 98.4201C899.391 98.4201 900.75 99.7789 900.75 101.455Z" fill="white"/>
<path d="M755.07 119.665C755.07 121.341 753.711 122.7 752.035 122.7C750.359 122.7 749 121.341 749 119.665C749 117.989 750.359 116.63 752.035 116.63C753.711 116.63 755.07 117.989 755.07 119.665Z" fill="white"/>
<path d="M773.28 119.665C773.28 121.341 771.921 122.7 770.245 122.7C768.569 122.7 767.21 121.341 767.21 119.665C767.21 117.989 768.569 116.63 770.245 116.63C771.921 116.63 773.28 117.989 773.28 119.665Z" fill="white"/>
<path d="M791.49 119.665C791.49 121.341 790.131 122.7 788.455 122.7C786.779 122.7 785.42 121.341 785.42 119.665C785.42 117.989 786.779 116.63 788.455 116.63C790.131 116.63 791.49 117.989 791.49 119.665Z" fill="white"/>
<path d="M809.7 119.665C809.7 121.341 808.341 122.7 806.665 122.7C804.989 122.7 803.63 121.341 803.63 119.665C803.63 117.989 804.989 116.63 806.665 116.63C808.341 116.63 809.7 117.989 809.7 119.665Z" fill="white"/>
<path d="M827.91 119.665C827.91 121.341 826.551 122.7 824.875 122.7C823.199 122.7 821.84 121.341 821.84 119.665C821.84 117.989 823.199 116.63 824.875 116.63C826.551 116.63 827.91 117.989 827.91 119.665Z" fill="white"/>
<path d="M846.12 119.665C846.12 121.341 844.761 122.7 843.085 122.7C841.409 122.7 840.05 121.341 840.05 119.665C840.05 117.989 841.409 116.63 843.085 116.63C844.761 116.63 846.12 117.989 846.12 119.665Z" fill="white"/>
<path d="M864.33 119.665C864.33 121.341 862.971 122.7 861.295 122.7C859.619 122.7 858.26 121.341 858.26 119.665C858.26 117.989 859.619 116.63 861.295 116.63C862.971 116.63 864.33 117.989 864.33 119.665Z" fill="white"/>
<path d="M882.54 119.665C882.54 121.341 881.181 122.7 879.505 122.7C877.829 122.7 876.47 121.341 876.47 119.665C876.47 117.989 877.829 116.63 879.505 116.63C881.181 116.63 882.54 117.989 882.54 119.665Z" fill="white"/>
<path d="M900.75 119.665C900.75 121.341 899.391 122.7 897.715 122.7C896.039 122.7 894.68 121.341 894.68 119.665C894.68 117.989 896.039 116.63 897.715 116.63C899.391 116.63 900.75 117.989 900.75 119.665Z" fill="white"/>
<path d="M918.96 119.665C918.96 121.341 917.602 122.7 915.925 122.7C914.249 122.7 912.89 121.341 912.89 119.665C912.89 117.989 914.249 116.63 915.925 116.63C917.602 116.63 918.96 117.989 918.96 119.665Z" fill="white"/>
<path d="M755.07 137.875C755.07 139.551 753.711 140.91 752.035 140.91C750.359 140.91 749 139.551 749 137.875C749 136.199 750.359 134.84 752.035 134.84C753.711 134.84 755.07 136.199 755.07 137.875Z" fill="white"/>
<path d="M773.28 137.875C773.28 139.551 771.921 140.91 770.245 140.91C768.569 140.91 767.21 139.551 767.21 137.875C767.21 136.199 768.569 134.84 770.245 134.84C771.921 134.84 773.28 136.199 773.28 137.875Z" fill="white"/>
<path d="M791.49 137.875C791.49 139.551 790.131 140.91 788.455 140.91C786.779 140.91 785.42 139.551 785.42 137.875C785.42 136.199 786.779 134.84 788.455 134.84C790.131 134.84 791.49 136.199 791.49 137.875Z" fill="white"/>
<path d="M809.7 137.875C809.7 139.551 808.341 140.91 806.665 140.91C804.989 140.91 803.63 139.551 803.63 137.875C803.63 136.199 804.989 134.84 806.665 134.84C808.341 134.84 809.7 136.199 809.7 137.875Z" fill="white"/>
<path d="M827.91 137.875C827.91 139.551 826.551 140.91 824.875 140.91C823.199 140.91 821.84 139.551 821.84 137.875C821.84 136.199 823.199 134.84 824.875 134.84C826.551 134.84 827.91 136.199 827.91 137.875Z" fill="white"/>
<path d="M846.12 137.875C846.12 139.551 844.761 140.91 843.085 140.91C841.409 140.91 840.05 139.551 840.05 137.875C840.05 136.199 841.409 134.84 843.085 134.84C844.761 134.84 846.12 136.199 846.12 137.875Z" fill="white"/>
<path d="M864.33 137.875C864.33 139.551 862.971 140.91 861.295 140.91C859.619 140.91 858.26 139.551 858.26 137.875C858.26 136.199 859.619 134.84 861.295 134.84C862.971 134.84 864.33 136.199 864.33 137.875Z" fill="white"/>
<path d="M882.54 137.875C882.54 139.551 881.181 140.91 879.505 140.91C877.829 140.91 876.47 139.551 876.47 137.875C876.47 136.199 877.829 134.84 879.505 134.84C881.181 134.84 882.54 136.199 882.54 137.875Z" fill="white"/>
<path d="M900.75 137.875C900.75 139.551 899.391 140.91 897.715 140.91C896.039 140.91 894.68 139.551 894.68 137.875C894.68 136.199 896.039 134.84 897.715 134.84C899.391 134.84 900.75 136.199 900.75 137.875Z" fill="white"/>
<path d="M918.96 137.875C918.96 139.551 917.602 140.91 915.925 140.91C914.249 140.91 912.89 139.551 912.89 137.875C912.89 136.199 914.249 134.84 915.925 134.84C917.602 134.84 918.96 136.199 918.96 137.875Z" fill="white"/>
<path d="M755.07 156.085C755.07 157.761 753.711 159.12 752.035 159.12C750.359 159.12 749 157.761 749 156.085C749 154.409 750.359 153.05 752.035 153.05C753.711 153.05 755.07 154.409 755.07 156.085Z" fill="white"/>
<path d="M773.28 156.085C773.28 157.761 771.921 159.12 770.245 159.12C768.569 159.12 767.21 157.761 767.21 156.085C767.21 154.409 768.569 153.05 770.245 153.05C771.921 153.05 773.28 154.409 773.28 156.085Z" fill="white"/>
<path d="M791.49 156.085C791.49 157.761 790.131 159.12 788.455 159.12C786.779 159.12 785.42 157.761 785.42 156.085C785.42 154.409 786.779 153.05 788.455 153.05C790.131 153.05 791.49 154.409 791.49 156.085Z" fill="white"/>
<path d="M809.7 156.085C809.7 157.761 808.341 159.12 806.665 159.12C804.989 159.12 803.63 157.761 803.63 156.085C803.63 154.409 804.989 153.05 806.665 153.05C808.341 153.05 809.7 154.409 809.7 156.085Z" fill="white"/>
<path d="M827.91 156.085C827.91 157.761 826.551 159.12 824.875 159.12C823.199 159.12 821.84 157.761 821.84 156.085C821.84 154.409 823.199 153.05 824.875 153.05C826.551 153.05 827.91 154.409 827.91 156.085Z" fill="white"/>
<path d="M846.12 156.085C846.12 157.761 844.761 159.12 843.085 159.12C841.409 159.12 840.05 157.761 840.05 156.085C840.05 154.409 841.409 153.05 843.085 153.05C844.761 153.05 846.12 154.409 846.12 156.085Z" fill="white"/>
<path d="M864.33 156.085C864.33 157.761 862.971 159.12 861.295 159.12C859.619 159.12 858.26 157.761 858.26 156.085C858.26 154.409 859.619 153.05 861.295 153.05C862.971 153.05 864.33 154.409 864.33 156.085Z" fill="white"/>
<path d="M882.54 156.085C882.54 157.761 881.181 159.12 879.505 159.12C877.829 159.12 876.47 157.761 876.47 156.085C876.47 154.409 877.829 153.05 879.505 153.05C881.181 153.05 882.54 154.409 882.54 156.085Z" fill="white"/>
<path d="M900.75 156.085C900.75 157.761 899.391 159.12 897.715 159.12C896.039 159.12 894.68 157.761 894.68 156.085C894.68 154.409 896.039 153.05 897.715 153.05C899.391 153.05 900.75 154.409 900.75 156.085Z" fill="white"/>
<path d="M918.96 156.085C918.96 157.761 917.602 159.12 915.925 159.12C914.249 159.12 912.89 157.761 912.89 156.085C912.89 154.409 914.249 153.05 915.925 153.05C917.602 153.05 918.96 154.409 918.96 156.085Z" fill="white"/>
<path d="M755.07 174.295C755.07 175.971 753.711 177.33 752.035 177.33C750.359 177.33 749 175.971 749 174.295C749 172.619 750.359 171.26 752.035 171.26C753.711 171.26 755.07 172.619 755.07 174.295Z" fill="white"/>
<path d="M773.28 174.295C773.28 175.971 771.921 177.33 770.245 177.33C768.569 177.33 767.21 175.971 767.21 174.295C767.21 172.619 768.569 171.26 770.245 171.26C771.921 171.26 773.28 172.619 773.28 174.295Z" fill="white"/>
<path d="M791.49 174.295C791.49 175.971 790.131 177.33 788.455 177.33C786.779 177.33 785.42 175.971 785.42 174.295C785.42 172.619 786.779 171.26 788.455 171.26C790.131 171.26 791.49 172.619 791.49 174.295Z" fill="white"/>
<path d="M809.7 174.295C809.7 175.971 808.341 177.33 806.665 177.33C804.989 177.33 803.63 175.971 803.63 174.295C803.63 172.619 804.989 171.26 806.665 171.26C808.341 171.26 809.7 172.619 809.7 174.295Z" fill="white"/>
<path d="M827.91 174.295C827.91 175.971 826.551 177.33 824.875 177.33C823.199 177.33 821.84 175.971 821.84 174.295C821.84 172.619 823.199 171.26 824.875 171.26C826.551 171.26 827.91 172.619 827.91 174.295Z" fill="white"/>
<path d="M846.12 174.295C846.12 175.971 844.761 177.33 843.085 177.33C841.409 177.33 840.05 175.971 840.05 174.295C840.05 172.619 841.409 171.26 843.085 171.26C844.761 171.26 846.12 172.619 846.12 174.295Z" fill="white"/>
<path d="M864.33 174.295C864.33 175.971 862.971 177.33 861.295 177.33C859.619 177.33 858.26 175.971 858.26 174.295C858.26 172.619 859.619 171.26 861.295 171.26C862.971 171.26 864.33 172.619 864.33 174.295Z" fill="white"/>
<path d="M882.54 174.295C882.54 175.971 881.181 177.33 879.505 177.33C877.829 177.33 876.47 175.971 876.47 174.295C876.47 172.619 877.829 171.26 879.505 171.26C881.181 171.26 882.54 172.619 882.54 174.295Z" fill="white"/>
<path d="M900.75 174.295C900.75 175.971 899.391 177.33 897.715 177.33C896.039 177.33 894.68 175.971 894.68 174.295C894.68 172.619 896.039 171.26 897.715 171.26C899.391 171.26 900.75 172.619 900.75 174.295Z" fill="white"/>
<path d="M918.96 174.295C918.96 175.971 917.602 177.33 915.925 177.33C914.249 177.33 912.89 175.971 912.89 174.295C912.89 172.619 914.249 171.26 915.925 171.26C917.602 171.26 918.96 172.619 918.96 174.295Z" fill="white"/>
<path d="M773.28 192.505C773.28 194.181 771.921 195.54 770.245 195.54C768.569 195.54 767.21 194.181 767.21 192.505C767.21 190.829 768.569 189.47 770.245 189.47C771.921 189.47 773.28 190.829 773.28 192.505Z" fill="white"/>
<path d="M791.49 192.505C791.49 194.181 790.131 195.54 788.455 195.54C786.779 195.54 785.42 194.181 785.42 192.505C785.42 190.829 786.779 189.47 788.455 189.47C790.131 189.47 791.49 190.829 791.49 192.505Z" fill="white"/>
<path d="M809.7 192.505C809.7 194.181 808.341 195.54 806.665 195.54C804.989 195.54 803.63 194.181 803.63 192.505C803.63 190.829 804.989 189.47 806.665 189.47C808.341 189.47 809.7 190.829 809.7 192.505Z" fill="white"/>
<path d="M827.91 192.505C827.91 194.181 826.551 195.54 824.875 195.54C823.199 195.54 821.84 194.181 821.84 192.505C821.84 190.829 823.199 189.47 824.875 189.47C826.551 189.47 827.91 190.829 827.91 192.505Z" fill="white"/>
<path d="M846.12 192.505C846.12 194.181 844.761 195.54 843.085 195.54C841.409 195.54 840.05 194.181 840.05 192.505C840.05 190.829 841.409 189.47 843.085 189.47C844.761 189.47 846.12 190.829 846.12 192.505Z" fill="white"/>
<path d="M864.33 192.505C864.33 194.181 862.971 195.54 861.295 195.54C859.619 195.54 858.26 194.181 858.26 192.505C858.26 190.829 859.619 189.47 861.295 189.47C862.971 189.47 864.33 190.829 864.33 192.505Z" fill="white"/>
<path d="M882.54 192.505C882.54 194.181 881.181 195.54 879.505 195.54C877.829 195.54 876.47 194.181 876.47 192.505C876.47 190.829 877.829 189.47 879.505 189.47C881.181 189.47 882.54 190.829 882.54 192.505Z" fill="white"/>
<path d="M900.75 192.505C900.75 194.181 899.391 195.54 897.715 195.54C896.039 195.54 894.68 194.181 894.68 192.505C894.68 190.829 896.039 189.47 897.715 189.47C899.391 189.47 900.75 190.829 900.75 192.505Z" fill="white"/>
<path d="M791.49 210.715C791.49 212.391 790.131 213.75 788.455 213.75C786.779 213.75 785.42 212.391 785.42 210.715C785.42 209.039 786.779 207.68 788.455 207.68C790.131 207.68 791.49 209.039 791.49 210.715Z" fill="white"/>
<path d="M809.7 210.715C809.7 212.391 808.341 213.75 806.665 213.75C804.989 213.75 803.63 212.391 803.63 210.715C803.63 209.039 804.989 207.68 806.665 207.68C808.341 207.68 809.7 209.039 809.7 210.715Z" fill="white"/>
<path d="M827.91 210.715C827.91 212.391 826.551 213.75 824.875 213.75C823.199 213.75 821.84 212.391 821.84 210.715C821.84 209.039 823.199 207.68 824.875 207.68C826.551 207.68 827.91 209.039 827.91 210.715Z" fill="white"/>
<path d="M846.12 210.715C846.12 212.391 844.761 213.75 843.085 213.75C841.409 213.75 840.05 212.391 840.05 210.715C840.05 209.039 841.409 207.68 843.085 207.68C844.761 207.68 846.12 209.039 846.12 210.715Z" fill="white"/>
<path d="M864.33 210.715C864.33 212.391 862.971 213.75 861.295 213.75C859.619 213.75 858.26 212.391 858.26 210.715C858.26 209.039 859.619 207.68 861.295 207.68C862.971 207.68 864.33 209.039 864.33 210.715Z" fill="white"/>
<path d="M882.54 210.715C882.54 212.391 881.181 213.75 879.505 213.75C877.829 213.75 876.47 212.391 876.47 210.715C876.47 209.039 877.829 207.68 879.505 207.68C881.181 207.68 882.54 209.039 882.54 210.715Z" fill="white"/>
<path d="M809.7 228.925C809.7 230.602 808.341 231.96 806.665 231.96C804.989 231.96 803.63 230.602 803.63 228.925C803.63 227.249 804.989 225.89 806.665 225.89C808.341 225.89 809.7 227.249 809.7 228.925Z" fill="white"/>
<path d="M827.91 228.925C827.91 230.602 826.551 231.96 824.875 231.96C823.199 231.96 821.84 230.602 821.84 228.925C821.84 227.249 823.199 225.89 824.875 225.89C826.551 225.89 827.91 227.249 827.91 228.925Z" fill="white"/>
<path d="M846.12 228.925C846.12 230.602 844.761 231.96 843.085 231.96C841.409 231.96 840.05 230.602 840.05 228.925C840.05 227.249 841.409 225.89 843.085 225.89C844.761 225.89 846.12 227.249 846.12 228.925Z" fill="white"/>
<path d="M864.33 228.925C864.33 230.602 862.971 231.96 861.295 231.96C859.619 231.96 858.26 230.602 858.26 228.925C858.26 227.249 859.619 225.89 861.295 225.89C862.971 225.89 864.33 227.249 864.33 228.925Z" fill="white"/>
</g>
<path fill-rule="evenodd" clip-rule="evenodd" d="M217.906 0C286.007 0 358.756 0 420.38 0C447.418 190.683 507.934 320.115 510.437 396.1C512.962 472.777 508.554 553.139 464.494 612C398.629 612 237.516 612 121.642 612C146.76 532.624 113.748 365.012 86.1183 290.068C58.4887 215.123 35.2199 206.048 22.606 173.54C9.99221 141.033 2.32644e-06 73.6667 0 0C42.2838 0 149.805 0 217.906 0Z" fill="#0061AA" fill-opacity="0.26"/>
<g opacity="0.1">
<ellipse rx="5.62588" ry="5.6127" transform="matrix(-4.37114e-08 -1 -1 4.37114e-08 179.001 5.62608)" fill="white"/>
<ellipse rx="5.62588" ry="5.6127" transform="matrix(-4.37114e-08 -1 -1 4.37114e-08 121.47 5.62608)" fill="white"/>
<ellipse rx="5.62588" ry="5.6127" transform="matrix(-4.37114e-08 -1 -1 4.37114e-08 92.7052 5.62608)" fill="white"/>
<ellipse rx="5.62588" ry="5.6127" transform="matrix(-4.37114e-08 -1 -1 4.37114e-08 207.766 5.62608)" fill="white"/>
<ellipse rx="5.62588" ry="5.6127" transform="matrix(-4.37114e-08 -1 -1 4.37114e-08 150.236 5.62608)" fill="white"/>
<ellipse rx="5.62588" ry="5.6127" transform="matrix(-4.37114e-08 -1 -1 4.37114e-08 121.47 63.2911)" fill="white"/>
<ellipse rx="5.62588" ry="5.6127" transform="matrix(-4.37114e-08 -1 -1 4.37114e-08 92.7052 63.2911)" fill="white"/>
<ellipse rx="5.62588" ry="5.6127" transform="matrix(-4.37114e-08 -1 -1 4.37114e-08 150.236 63.2911)" fill="white"/>
<ellipse rx="5.62588" ry="5.6127" transform="matrix(-4.37114e-08 -1 -1 4.37114e-08 63.9405 34.4581)" fill="white"/>
<ellipse rx="5.62588" ry="5.6127" transform="matrix(-4.37114e-08 -1 -1 4.37114e-08 179.001 34.4581)" fill="white"/>
<ellipse rx="5.62588" ry="5.6127" transform="matrix(-4.37114e-08 -1 -1 4.37114e-08 121.47 34.4581)" fill="white"/>
<ellipse rx="5.62588" ry="5.6127" transform="matrix(-4.37114e-08 -1 -1 4.37114e-08 92.7052 34.4581)" fill="white"/>
<ellipse rx="5.62588" ry="5.6127" transform="matrix(-4.37114e-08 -1 -1 4.37114e-08 207.766 34.4581)" fill="white"/>
<ellipse rx="5.62588" ry="5.6127" transform="matrix(-4.37114e-08 -1 -1 4.37114e-08 150.236 34.4581)" fill="white"/>
<ellipse rx="5.62588" ry="5.6127" transform="matrix(-4.37114e-08 -1 -1 4.37114e-08 63.9405 92.1236)" fill="white"/>
<ellipse rx="5.62588" ry="5.6127" transform="matrix(-4.37114e-08 -1 -1 4.37114e-08 121.47 92.1236)" fill="white"/>
<ellipse rx="5.62588" ry="5.6127" transform="matrix(-4.37114e-08 -1 -1 4.37114e-08 150.234 92.1236)" fill="white"/>
<ellipse rx="5.62588" ry="5.6127" transform="matrix(-4.37114e-08 -1 -1 4.37114e-08 179.001 63.2911)" fill="white"/>
<ellipse rx="5.62588" ry="5.6127" transform="matrix(-4.37114e-08 -1 -1 4.37114e-08 178.999 92.1236)" fill="white"/>
<ellipse rx="5.62588" ry="5.6127" transform="matrix(-4.37114e-08 -1 -1 4.37114e-08 207.766 63.2911)" fill="white"/>
<ellipse rx="5.62588" ry="5.6127" transform="matrix(-4.37114e-08 -1 -1 4.37114e-08 207.764 92.1236)" fill="white"/>
<ellipse rx="5.62588" ry="5.6127" transform="matrix(-4.37114e-08 -1 -1 4.37114e-08 236.531 34.4581)" fill="white"/>
<ellipse rx="5.62588" ry="5.6127" transform="matrix(-4.37114e-08 -1 -1 4.37114e-08 236.531 63.2911)" fill="white"/>
<ellipse rx="5.62588" ry="5.6127" transform="matrix(-4.37114e-08 -1 -1 4.37114e-08 236.529 92.1236)" fill="white"/>
<ellipse rx="5.62588" ry="5.6127" transform="matrix(-4.37114e-08 -1 -1 4.37114e-08 92.7052 92.1236)" fill="white"/>
</g>
<g opacity="0.1">
<ellipse rx="5.62588" ry="5.6127" transform="matrix(-4.37114e-08 -1 -1 4.37114e-08 121.469 120.75)" fill="white"/>
<ellipse rx="5.62588" ry="5.6127" transform="matrix(-4.37114e-08 -1 -1 4.37114e-08 236.529 120.75)" fill="white"/>
<ellipse rx="5.62588" ry="5.6127" transform="matrix(-4.37114e-08 -1 -1 4.37114e-08 178.999 120.75)" fill="white"/>
<ellipse rx="5.62588" ry="5.6127" transform="matrix(-4.37114e-08 -1 -1 4.37114e-08 294.059 120.75)" fill="white"/>
<ellipse rx="5.62588" ry="5.6127" transform="matrix(-4.37114e-08 -1 -1 4.37114e-08 150.233 120.75)" fill="white"/>
<ellipse rx="5.62588" ry="5.6127" transform="matrix(-4.37114e-08 -1 -1 4.37114e-08 265.294 120.75)" fill="white"/>
<ellipse rx="5.62588" ry="5.6127" transform="matrix(-4.37114e-08 -1 -1 4.37114e-08 207.764 120.75)" fill="white"/>
<ellipse rx="5.62588" ry="5.6127" transform="matrix(-4.37114e-08 -1 -1 4.37114e-08 178.999 178.415)" fill="white"/>
<ellipse rx="5.62588" ry="5.6127" transform="matrix(-4.37114e-08 -1 -1 4.37114e-08 150.233 178.415)" fill="white"/>
<ellipse rx="5.62588" ry="5.6127" transform="matrix(-4.37114e-08 -1 -1 4.37114e-08 207.764 178.415)" fill="white"/>
<ellipse rx="5.62588" ry="5.6127" transform="matrix(-4.37114e-08 -1 -1 4.37114e-08 121.469 149.582)" fill="white"/>
<ellipse rx="5.62588" ry="5.6127" transform="matrix(-4.37114e-08 -1 -1 4.37114e-08 236.529 149.582)" fill="white"/>
<ellipse rx="5.62588" ry="5.6127" transform="matrix(-4.37114e-08 -1 -1 4.37114e-08 178.999 149.582)" fill="white"/>
<ellipse rx="5.62588" ry="5.6127" transform="matrix(-4.37114e-08 -1 -1 4.37114e-08 150.233 149.582)" fill="white"/>
<ellipse rx="5.62588" ry="5.6127" transform="matrix(-4.37114e-08 -1 -1 4.37114e-08 265.294 149.582)" fill="white"/>
<ellipse rx="5.62588" ry="5.6127" transform="matrix(-4.37114e-08 -1 -1 4.37114e-08 207.764 149.582)" fill="white"/>
<ellipse rx="5.62588" ry="5.6127" transform="matrix(-4.37114e-08 -1 -1 4.37114e-08 121.469 207.248)" fill="white"/>
<ellipse rx="5.62588" ry="5.6127" transform="matrix(-4.37114e-08 -1 -1 4.37114e-08 178.999 207.248)" fill="white"/>
<ellipse rx="5.62588" ry="5.6127" transform="matrix(-4.37114e-08 -1 -1 4.37114e-08 207.763 207.248)" fill="white"/>
<ellipse rx="5.62588" ry="5.6127" transform="matrix(-4.37114e-08 -1 -1 4.37114e-08 236.529 178.415)" fill="white"/>
<ellipse rx="5.62588" ry="5.6127" transform="matrix(-4.37114e-08 -1 -1 4.37114e-08 236.527 207.248)" fill="white"/>
<ellipse rx="5.62588" ry="5.6127" transform="matrix(-4.37114e-08 -1 -1 4.37114e-08 265.294 178.415)" fill="white"/>
<ellipse rx="5.62588" ry="5.6127" transform="matrix(-4.37114e-08 -1 -1 4.37114e-08 294.059 149.582)" fill="white"/>
<ellipse rx="5.62588" ry="5.6127" transform="matrix(-4.37114e-08 -1 -1 4.37114e-08 150.233 207.248)" fill="white"/>
</g>
<path d="M614.885 31.8216C614.885 26.3159 616.911 21.7131 620.963 18.0134C625.015 14.3137 630.122 12.4639 636.286 12.4639C642.64 12.4639 647.871 14.1296 651.98 17.4611L647.186 24.352C646.007 23.3701 644.485 22.546 642.621 21.8797C640.756 21.2134 638.968 20.8803 637.256 20.8803C633.223 20.8803 630.208 21.8885 628.21 23.9049C626.213 25.9213 625.214 28.455 625.214 31.506C625.214 34.9777 626.346 37.7481 628.61 39.8171C630.874 41.8862 633.642 42.9207 636.914 42.9207C639.881 42.9207 642.64 42.0089 645.189 40.1854V37.2922L639.425 37.2922V29.4545L654.034 29.4545V50.7059H645.702V49.6538L645.759 48.0757H645.645C644.428 49.0577 642.839 49.8467 640.88 50.4428C638.921 51.039 636.933 51.3371 634.916 51.3371C629.437 51.3371 624.729 49.5661 620.791 46.0242C616.854 42.4823 614.885 37.7481 614.885 31.8216ZM660.783 47.4182C657.587 44.8056 655.99 41.4127 655.99 37.2396C655.99 33.0665 657.587 29.6473 660.783 26.9821C663.979 24.317 667.917 22.9844 672.597 22.9844C677.314 22.9844 681.281 24.3082 684.496 26.9558C687.711 29.6035 689.318 33.0314 689.318 37.2396C689.318 41.4127 687.72 44.8056 684.524 47.4182C681.328 50.0308 677.372 51.3371 672.654 51.3371C667.936 51.3371 663.979 50.0308 660.783 47.4182ZM665.977 37.2396C665.977 39.2035 666.623 40.7815 667.917 41.9738C669.211 43.1662 670.79 43.7623 672.654 43.7623C674.518 43.7623 676.097 43.1662 677.391 41.9738C678.684 40.7815 679.331 39.2035 679.331 37.2396C679.331 35.2407 678.684 33.6276 677.391 32.4002C676.097 31.1728 674.518 30.5591 672.654 30.5591C670.79 30.5591 669.211 31.1728 667.917 32.4002C666.623 33.6276 665.977 35.2407 665.977 37.2396ZM695.839 52.4417C698.426 53.599 701.184 54.1776 704.114 54.1776C708.641 54.1776 710.905 52.4417 710.905 48.97V48.0757L710.962 47.0763H710.848C709.136 48.97 706.682 49.9168 703.486 49.9168C699.301 49.9168 696.048 48.5842 693.727 45.919C691.406 43.2539 690.246 40.0451 690.246 36.2928C690.246 32.5756 691.387 29.4282 693.67 26.8507C695.953 24.2731 699.206 22.9844 703.429 22.9844C706.853 22.9844 709.516 23.8611 711.419 25.6145H711.59C711.552 25.4041 711.533 25.1937 711.533 24.9833V23.6156H720.778V48.2335C720.778 50.6182 720.303 52.7047 719.351 54.4932C718.4 56.2817 717.107 57.6932 715.471 58.7277C713.835 59.7622 712.075 60.525 710.192 61.0159C708.308 61.5069 706.302 61.7524 704.171 61.7524C700.1 61.7524 696.39 60.9458 693.042 59.3327L695.839 52.4417ZM700.176 35.9772C700.176 37.8007 700.652 39.3174 701.603 40.5273C702.554 41.7371 703.962 42.3421 705.826 42.3421C707.348 42.3421 708.613 41.895 709.621 41.0007C710.629 40.1065 711.133 38.5722 711.133 36.398C711.133 32.5054 709.231 30.5591 705.426 30.5591C703.752 30.5591 702.459 31.0588 701.546 32.0583C700.633 33.0577 700.176 34.364 700.176 35.9772ZM727.984 47.4182C724.788 44.8056 723.19 41.4127 723.19 37.2396C723.19 33.0665 724.788 29.6473 727.984 26.9821C731.18 24.317 735.117 22.9844 739.797 22.9844C744.515 22.9844 748.481 24.3082 751.696 26.9558C754.911 29.6035 756.518 33.0314 756.518 37.2396C756.518 41.4127 754.92 44.8056 751.725 47.4182C748.529 50.0308 744.572 51.3371 739.854 51.3371C735.136 51.3371 731.18 50.0308 727.984 47.4182ZM733.177 37.2396C733.177 39.2035 733.824 40.7815 735.117 41.9738C736.411 43.1662 737.99 43.7623 739.854 43.7623C741.718 43.7623 743.297 43.1662 744.591 41.9738C745.884 40.7815 746.531 39.2035 746.531 37.2396C746.531 35.2407 745.884 33.6276 744.591 32.4002C743.297 31.1728 741.718 30.5591 739.854 30.5591C737.99 30.5591 736.411 31.1728 735.117 32.4002C733.824 33.6276 733.177 35.2407 733.177 37.2396Z" fill="white" fill-opacity="0.32"/>
</g>
<defs>
<linearGradient id="paint0_linear_4087_309248" x1="417" y1="-25.4672" x2="417" y2="573.885" gradientUnits="userSpaceOnUse">
<stop stop-color="#0DD3FF"/>
<stop offset="1" stop-color="#000744"/>
</linearGradient>
<radialGradient id="paint1_radial_4087_309248" cx="0" cy="0" r="1" gradientUnits="userSpaceOnUse" gradientTransform="translate(-85.7167 732.488) rotate(-111.757) scale(409.367 1023.49)">
<stop stop-color="#EA6CFF" stop-opacity="0.9"/>
<stop offset="1" stop-color="#EB6FFF" stop-opacity="0"/>
</radialGradient>
<radialGradient id="paint2_radial_4087_309248" cx="0" cy="0" r="1" gradientUnits="userSpaceOnUse" gradientTransform="translate(1022.81 56.61) rotate(155.24) scale(617.388 507.766)">
<stop stop-color="#EA6CFF" stop-opacity="0.9"/>
<stop offset="1" stop-color="#EB6FFF" stop-opacity="0"/>
</radialGradient>
<clipPath id="clip0_4087_309248">
<rect width="834" height="612" fill="white"/>
</clipPath>
</defs>
</svg>
