<svg width="58" height="55" viewBox="0 0 58 55" fill="none" xmlns="http://www.w3.org/2000/svg">
<path fill-rule="evenodd" clip-rule="evenodd" d="M26.6932 0.243896C29.235 0.243896 31.2957 2.31138 31.2957 4.86166C31.2957 7.41194 29.235 9.47943 26.6932 9.47943C24.1514 9.47943 22.0908 7.41194 22.0908 4.86166C22.0908 2.31138 24.1514 0.243896 26.6932 0.243896Z" fill="#005A9D"/>
<path fill-rule="evenodd" clip-rule="evenodd" d="M10.1896 8.99737L21.9036 10.8773L19.6461 25.039L7.93201 23.1591L10.1896 8.99737Z" fill="#005A9D"/>
<path fill-rule="evenodd" clip-rule="evenodd" d="M21.921 9.32764C18.5881 13.5028 18.7049 20.3595 18.4443 26.8229C20.1383 27.2822 23.4845 27.4632 25.5527 26.8492C24.9538 20.4276 24.9086 15.936 26.3842 10.3292C24.6623 9.94281 23.4956 9.68101 21.921 9.32764Z" fill="#005A9D"/>
<path fill-rule="evenodd" clip-rule="evenodd" d="M22.7939 28.495L23.4139 24.389L35.0265 28.0653L33.8327 31.8613L22.7939 28.495Z" fill="#005A9D"/>
<path fill-rule="evenodd" clip-rule="evenodd" d="M30.9241 28.0116L34.9492 28.103L33.883 38.7021L31.0177 40.2287L30.9241 28.0116Z" fill="#005A9D"/>
<path fill-rule="evenodd" clip-rule="evenodd" d="M21.0275 27.2041L25.5527 26.8492L31.0236 35.6853L27.6655 37.8051L21.0275 27.2041Z" fill="#005A9D"/>
<path fill-rule="evenodd" clip-rule="evenodd" d="M27.6211 33.4981L31.0081 35.6822L25.0777 45.4838L21.3514 43.9718L27.6211 33.4981Z" fill="#005A9D"/>
<path fill-rule="evenodd" clip-rule="evenodd" d="M21.8082 12.3887L24.8985 11.3516L27.9157 20.4027L25.2429 22.7594L21.8082 12.3887Z" fill="#005A9D"/>
<path fill-rule="evenodd" clip-rule="evenodd" d="M35.5067 20.1972L35.3256 22.4493L24.3423 22.9746L25.3678 19.8481L35.5067 20.1972Z" fill="#005A9D"/>
<path fill-rule="evenodd" clip-rule="evenodd" d="M11.1734 32.8333C17.1165 32.8333 21.9343 37.6671 21.9343 43.63C21.9343 49.5929 17.1165 54.4268 11.1734 54.4268C5.23037 54.4268 0.412598 49.5929 0.412598 43.63C0.412598 37.6671 5.23037 32.8333 11.1734 32.8333ZM11.1734 35.4349C15.6845 35.4349 19.3413 39.1039 19.3413 43.63C19.3413 48.1561 15.6845 51.8251 11.1734 51.8251C6.66242 51.8251 3.0056 48.1561 3.0056 43.63C3.0056 39.1039 6.66242 35.4349 11.1734 35.4349Z" fill="#005A9D"/>
<path fill-rule="evenodd" clip-rule="evenodd" d="M46.7634 32.8333C52.7065 32.8333 57.5243 37.6671 57.5243 43.63C57.5243 49.5929 52.7065 54.4268 46.7634 54.4268C40.8204 54.4268 36.0026 49.5929 36.0026 43.63C36.0026 37.6671 40.8204 32.8333 46.7634 32.8333ZM46.7634 35.4349C51.2745 35.4349 54.9313 39.1039 54.9313 43.63C54.9313 48.1561 51.2745 51.8251 46.7634 51.8251C42.2524 51.8251 38.5956 48.1561 38.5956 43.63C38.5956 39.1039 42.2524 35.4349 46.7634 35.4349Z" fill="#005A9D"/>
<path fill-rule="evenodd" clip-rule="evenodd" d="M9.87701 42.1016H29.3566V45.4838H9.87701V42.1016Z" fill="#005A9D"/>
<path fill-rule="evenodd" clip-rule="evenodd" d="M15.4054 26.8983H26.1015V30.0862H15.4054V26.8983Z" fill="#005A9D"/>
<path fill-rule="evenodd" clip-rule="evenodd" d="M41.4312 30.3732L29.3566 45.4838L26.6172 43.5075L38.8009 28.2578L41.4312 30.3732Z" fill="#005A9D"/>
<path fill-rule="evenodd" clip-rule="evenodd" d="M37.6208 19.7265L48.7581 44.2302L45.6912 45.6336L34.5537 21.1298L37.6208 19.7265Z" fill="#005A9D"/>
<path fill-rule="evenodd" clip-rule="evenodd" d="M29.8797 18.4839L37.6208 19.7265L37.1 22.7814L28.9825 21.2618L29.8797 18.4839Z" fill="#005A9D"/>
<path d="M11.1202 13.3347C11.2038 12.74 11.501 12.2758 12.0118 11.942C12.5274 11.6051 13.1328 11.4855 13.8281 11.5832C14.5448 11.6839 15.1096 11.9467 15.5225 12.3717L14.8771 13.04C14.759 12.9152 14.5999 12.8021 14.3997 12.7006C14.1995 12.599 14.0029 12.5347 13.8097 12.5076C13.3548 12.4436 12.9982 12.5055 12.7399 12.6932C12.4864 12.8778 12.3365 13.1348 12.2902 13.4643C12.2375 13.8393 12.322 14.1563 12.5438 14.4154C12.7699 14.675 13.0675 14.8308 13.4366 14.8826C13.7713 14.9297 14.0963 14.8749 14.4115 14.7184L14.4554 14.4059L13.8052 14.3145L13.9242 13.468L15.5722 13.6996L15.2496 15.9949L14.3097 15.8628L14.3257 15.7492L14.3561 15.5797L14.3432 15.5778C14.191 15.6646 13.9988 15.7245 13.7666 15.7575C13.5386 15.7911 13.311 15.792 13.0835 15.76C12.4655 15.6732 11.9602 15.4071 11.5677 14.9618C11.1794 14.5171 11.0303 13.9748 11.1202 13.3347Z" fill="white"/>
<path d="M16.0615 15.7498C15.741 15.4151 15.6123 15.0224 15.6757 14.5716C15.739 14.1209 15.9712 13.7769 16.3721 13.5397C16.7731 13.3026 17.2375 13.221 17.7653 13.2952C18.2975 13.37 18.7236 13.5767 19.0436 13.9152C19.3685 14.2505 19.499 14.6455 19.4351 15.1C19.3718 15.5507 19.1399 15.8928 18.7395 16.1262C18.3396 16.3558 17.8736 16.4332 17.3414 16.3584C16.8092 16.2836 16.3826 16.0808 16.0615 15.7498ZM16.8022 14.7299C16.7724 14.9421 16.8214 15.1228 16.9492 15.272C17.077 15.4213 17.2461 15.5107 17.4564 15.5403C17.6667 15.5698 17.8538 15.5305 18.0178 15.4222C18.1818 15.3139 18.2788 15.1538 18.3086 14.9417C18.3389 14.7258 18.2904 14.5413 18.1632 14.3882C18.0359 14.2351 17.8671 14.1438 17.6568 14.1143C17.4465 14.0847 17.2591 14.126 17.0946 14.238C16.93 14.3501 16.8326 14.5141 16.8022 14.7299Z" fill="white"/>
</svg>
