<svg width="40" height="67" viewBox="0 0 40 67" fill="none" xmlns="http://www.w3.org/2000/svg">
<path fill-rule="evenodd" clip-rule="evenodd" d="M25.8903 0C29.3979 0 32.2415 2.84217 32.2415 6.34804C32.2415 9.8539 29.3979 12.6961 25.8903 12.6961C22.3827 12.6961 19.5392 9.8539 19.5392 6.34804C19.5392 2.84217 22.3827 0 25.8903 0Z" fill="#004E89"/>
<path fill-rule="evenodd" clip-rule="evenodd" d="M3.1154 12.0334L19.2803 14.6177L16.1649 34.0858L0 31.5014L3.1154 12.0334Z" fill="#004E89"/>
<path fill-rule="evenodd" clip-rule="evenodd" d="M19.305 12.4874C14.7057 18.227 14.8668 27.6529 14.5073 36.5381C16.8449 37.1696 21.4626 37.4183 24.3167 36.5743C23.4902 27.7465 23.4278 21.5718 25.464 13.8643C23.0878 13.3331 21.4778 12.9732 19.305 12.4874Z" fill="#004E89"/>
<path fill-rule="evenodd" clip-rule="evenodd" d="M14.5073 36.5381L20.2086 36.2063L18.5793 52.9226L13.1304 52.392L14.5073 36.5381Z" fill="#004E89"/>
<path fill-rule="evenodd" clip-rule="evenodd" d="M14.166 49.5498L18.5793 52.9226L8.81845 66.3862L4.3701 63.1962L14.166 49.5498Z" fill="#004E89"/>
<path fill-rule="evenodd" clip-rule="evenodd" d="M18.0712 37.0621L24.3167 36.5743L31.8654 48.7212L27.2314 51.6354L18.0712 37.0621Z" fill="#004E89"/>
<path fill-rule="evenodd" clip-rule="evenodd" d="M26.3102 48.7544L31.8654 48.7212L32.3917 65.34L26.9204 65.5389L26.3102 48.7544Z" fill="#004E89"/>
<path fill-rule="evenodd" clip-rule="evenodd" d="M19.1484 16.6955L23.4129 15.2698L27.5765 27.7122L23.8882 30.952L19.1484 16.6955Z" fill="#004E89"/>
<path fill-rule="evenodd" clip-rule="evenodd" d="M39.5389 33.1843L37.6675 37.2711L23.8768 30.9623L26.2128 27.0864L39.5389 33.1843Z" fill="#004E89"/>
<path d="M4.04082 17.3978C4.13698 16.7136 4.47892 16.1795 5.06664 15.7954C5.65991 15.4078 6.35651 15.2701 7.15644 15.3825C7.98106 15.4984 8.63093 15.8009 9.10603 16.2898L8.36351 17.0587C8.22758 16.9152 8.04446 16.785 7.81414 16.6682C7.58383 16.5514 7.35757 16.4774 7.13536 16.4462C6.61195 16.3726 6.20163 16.4438 5.9044 16.6598C5.61272 16.8721 5.44024 17.1678 5.38696 17.547C5.32632 17.9784 5.4236 18.3432 5.6788 18.6413C5.93893 18.94 6.28133 19.1192 6.70598 19.1789C7.09114 19.233 7.46505 19.17 7.82774 18.9899L7.87827 18.6304L7.13018 18.5253L7.26707 17.5512L9.1632 17.8177L8.79204 20.4587L7.71066 20.3067L7.72903 20.176L7.764 19.9809L7.74918 19.9788C7.57402 20.0786 7.35285 20.1475 7.08567 20.1855C6.82343 20.2242 6.56146 20.2252 6.29975 20.1884C5.5887 20.0885 5.00734 19.7823 4.55566 19.27C4.10893 18.7584 3.93731 18.1343 4.04082 17.3978Z" fill="white"/>
<path d="M9.72624 20.1767C9.3574 19.7915 9.20942 19.3397 9.2823 18.8211C9.35519 18.3025 9.62229 17.9067 10.0836 17.6338C10.5449 17.3609 11.0793 17.2671 11.6866 17.3524C12.2989 17.4385 12.7892 17.6763 13.1574 18.0658C13.5312 18.4516 13.6814 18.906 13.6079 19.429C13.535 19.9476 13.2682 20.3411 12.8075 20.6097C12.3474 20.8739 11.8112 20.963 11.1989 20.8769C10.5866 20.7909 10.0957 20.5575 9.72624 20.1767ZM10.5785 19.0032C10.5442 19.2473 10.6006 19.4552 10.7476 19.6269C10.8947 19.7987 11.0892 19.9016 11.3312 19.9356C11.5731 19.9696 11.7884 19.9243 11.9772 19.7997C12.1659 19.6752 12.2774 19.4908 12.3117 19.2468C12.3466 18.9984 12.2908 18.7861 12.1444 18.61C11.9979 18.4339 11.8037 18.3288 11.5618 18.2948C11.3198 18.2608 11.1042 18.3083 10.9148 18.4372C10.7255 18.5661 10.6134 18.7548 10.5785 19.0032Z" fill="white"/>
</svg>
