<svg width="71" height="30" viewBox="0 0 71 30" fill="none" xmlns="http://www.w3.org/2000/svg">
<path fill-rule="evenodd" clip-rule="evenodd" d="M2.78324 24.1451H6.36564C6.36203 24.0538 6.35969 23.9621 6.35969 23.8699C6.35969 20.0869 9.42807 17.02 13.2128 17.02C16.9976 17.02 20.0659 20.0869 20.0659 23.8699C20.0659 23.9621 20.0635 24.0538 20.0599 24.1451H49.3386C49.3349 24.0538 49.3326 23.9621 49.3326 23.8699C49.3326 20.0869 52.4009 17.02 56.1856 17.02C59.9704 17.02 63.0387 20.0869 63.0387 23.8699C63.0387 23.9621 63.0364 24.0538 63.0327 24.1451H67.9995C68.5788 24.1451 69.0775 23.8729 69.4777 23.3384C69.8781 22.8036 70.1671 22.1443 70.043 21.4159C69.7828 19.8873 69.4913 18.6224 69.161 17.5689H64.8022C64.3389 17.5689 63.9489 17.256 63.8484 16.8041L63.6654 15.9797C63.5989 15.6807 63.6654 15.3958 63.8571 15.157C64.0489 14.9181 64.3126 14.7916 64.6191 14.7916H67.9192C66.2957 12.3122 63.9823 12.104 60.5483 11.3216C54.7001 9.98903 53.3832 9.75684 52.4599 9.06103C48.233 5.876 43.4034 1.7904 42.0574 0.994213C40.7697 0.232497 32.9269 -0.0431463 25.6994 0.00538254C20.3397 0.0413153 14.5237 -0.0269397 12.746 0.825683C11.2067 1.56397 10.4611 2.62525 9.41039 4.09879C6.6974 7.90376 6.10003 9.91628 3.29502 11.109C2.30779 11.5288 1.70798 12.3733 1.34244 13.4569H4.9863C5.29245 13.4569 5.55581 13.5831 5.74767 13.8215C5.93943 14.0601 6.00616 14.3442 5.94042 14.6431L5.46536 16.8022C5.36572 17.2551 4.97515 17.5689 4.51124 17.5689H0.786207C0.751137 18.8712 0.777807 20.2084 0.739318 21.4267C0.716069 22.1638 0.907532 22.8097 1.30776 23.342C1.70808 23.8744 2.20532 24.1451 2.78324 24.1451ZM28.358 1.35569C24.7828 1.30453 18.8262 1.23637 16.422 1.4591L15.504 9.18533L29.7533 9.20144L28.358 1.35569ZM15.3691 1.55752C14.9266 1.64296 14.1629 1.84479 13.8651 1.97299C11.8474 2.84231 9.82107 5.21808 8.94999 9.20144H14.4013L15.3691 1.55752ZM30.0953 1.30404C36.0719 1.11588 38.9072 1.5628 40.56 2.26095C42.5208 3.08906 44.5626 5.18371 48.1097 9.20144L31.4784 9.08134L30.0953 1.30404Z" fill="#004E89"/>
<path fill-rule="evenodd" clip-rule="evenodd" d="M13.0835 17.9257C16.2252 17.9257 18.7721 20.4713 18.7721 23.6117C18.7721 26.7521 16.2252 29.2978 13.0835 29.2978C9.94172 29.2978 7.3948 26.7521 7.3948 23.6117C7.3948 20.4713 9.94172 17.9257 13.0835 17.9257ZM13.0835 19.1412C15.5535 19.1412 17.5559 21.1428 17.5559 23.6117C17.5559 26.0806 15.5535 28.0822 13.0835 28.0822C10.6134 28.0822 8.61102 26.0806 8.61102 23.6117C8.61102 21.1428 10.6134 19.1412 13.0835 19.1412Z" fill="#004E89"/>
<path fill-rule="evenodd" clip-rule="evenodd" d="M56.1857 17.9638C59.4491 17.9638 62.0946 20.608 62.0946 23.8699C62.0946 27.1319 59.4491 29.7762 56.1857 29.7762C52.9223 29.7762 50.2768 27.1319 50.2768 23.8699C50.2768 20.608 52.9223 17.9638 56.1857 17.9638ZM56.1858 19.3995C58.6558 19.3995 60.6582 21.401 60.6582 23.8699C60.6582 26.3388 58.6558 28.3404 56.1858 28.3404C53.7157 28.3404 51.7133 26.3388 51.7133 23.8699C51.7133 21.401 53.7157 19.3995 56.1858 19.3995Z" fill="#004E89"/>
<path fill-rule="evenodd" clip-rule="evenodd" d="M13.2129 19.8722C13.9397 19.8969 14.6139 20.1286 15.1783 20.5102L14.1461 21.9301C13.8729 21.7572 13.5546 21.6492 13.2129 21.6273V19.8722ZM15.3873 20.6622C15.9352 21.0903 16.3608 21.6676 16.6029 22.3329L14.9324 22.8754C14.8084 22.5648 14.6084 22.2927 14.3552 22.0822L15.3873 20.6622ZM16.6826 22.5786C16.7768 22.9068 16.8274 23.2533 16.8274 23.6117C16.8274 23.97 16.7768 24.3165 16.6827 24.6446L15.0122 24.1021C15.052 23.9453 15.0733 23.781 15.0733 23.6117C15.0733 23.4423 15.0521 23.278 15.0122 23.1211L16.6826 22.5786ZM16.6029 24.8904C16.3607 25.5558 15.9351 26.133 15.3873 26.5611L14.3552 25.1412C14.6084 24.9307 14.8084 24.6586 14.9324 24.3479L16.6029 24.8904ZM15.1783 26.7131C14.6138 27.0948 13.9397 27.3265 13.2129 27.3512V25.5961C13.5546 25.5741 13.8729 25.466 14.1461 25.2932L15.1783 26.7131ZM12.9544 27.3512C12.2276 27.3265 11.5536 27.0948 10.989 26.7131L12.0212 25.2932C12.2944 25.4661 12.6126 25.5741 12.9544 25.5961V27.3512ZM10.7801 26.5611C10.2323 26.133 9.80663 25.5558 9.56447 24.8904L11.2349 24.3479C11.3589 24.6586 11.559 24.9307 11.8122 25.1412L10.7801 26.5611ZM9.48465 24.6446C9.39058 24.3165 9.33997 23.97 9.33997 23.6117C9.33997 23.2533 9.39058 22.9068 9.48475 22.5786L11.1551 23.1211C11.1154 23.278 11.0941 23.4423 11.0941 23.6117C11.0941 23.781 11.1153 23.9453 11.1551 24.1021L9.48465 24.6446ZM9.56447 22.3329C9.80654 21.6676 10.2322 21.0903 10.7801 20.6622L11.8122 22.0822C11.559 22.2927 11.3589 22.5647 11.2349 22.8754L9.56447 22.3329ZM10.989 20.5102C11.5535 20.1286 12.2276 19.8969 12.9544 19.8722V21.6273C12.6127 21.6492 12.2944 21.7573 12.0212 21.9301L10.989 20.5102Z" fill="#004E89"/>
<path fill-rule="evenodd" clip-rule="evenodd" d="M13.0835 22.5093C13.6926 22.5093 14.1864 23.0029 14.1864 23.6117C14.1864 24.2205 13.6926 24.7141 13.0835 24.7141C12.4744 24.7141 11.9806 24.2205 11.9806 23.6117C11.9806 23.0029 12.4744 22.5093 13.0835 22.5093Z" fill="#004E89"/>
<path fill-rule="evenodd" clip-rule="evenodd" d="M56.3148 20.1305C57.0416 20.1552 57.7158 20.3869 58.2802 20.7685L57.2481 22.1884C56.9748 22.0156 56.6565 21.9074 56.3148 21.8855V20.1305ZM58.4892 20.9206C59.037 21.3488 59.4627 21.9257 59.7048 22.5912L58.0343 23.1337C57.9104 22.823 57.7102 22.551 57.457 22.3404L58.4892 20.9206ZM59.7845 22.8369C59.8786 23.1649 59.9293 23.5115 59.9293 23.8699C59.9293 24.2283 59.8786 24.5747 59.7845 24.9029L58.1141 24.3604C58.1539 24.2035 58.1752 24.0392 58.1752 23.8699C58.1752 23.7006 58.154 23.5363 58.1141 23.3794L59.7845 22.8369ZM59.7048 25.1487C59.4627 25.814 59.0371 26.3913 58.4892 26.8193L57.457 25.3994C57.7102 25.1889 57.9104 24.9169 58.0343 24.6062L59.7048 25.1487ZM58.2802 26.9714C57.7158 27.353 57.0416 27.5847 56.3148 27.6094V25.8543C56.6566 25.8325 56.975 25.7243 57.2481 25.5514L58.2802 26.9714ZM56.0564 27.6094C55.3296 27.5847 54.6554 27.353 54.091 26.9714L55.123 25.5514C55.3962 25.7243 55.7145 25.8325 56.0564 25.8543V27.6094ZM53.882 26.8193C53.3341 26.3913 52.9085 25.814 52.6664 25.1487L54.3368 24.6062C54.4608 24.9169 54.661 25.1889 54.9142 25.3994L53.882 26.8193ZM52.5867 24.9029C52.4926 24.5747 52.4419 24.2283 52.4419 23.8699C52.4419 23.5115 52.4926 23.1649 52.5867 22.8369L54.257 23.3794C54.2172 23.5363 54.196 23.7006 54.196 23.8699C54.196 24.0392 54.2173 24.2035 54.257 24.3604L52.5867 24.9029ZM52.6664 22.5912C52.9085 21.9257 53.3342 21.3488 53.882 20.9206L54.9142 22.3404C54.661 22.551 54.4608 22.823 54.3368 23.1337L52.6664 22.5912ZM54.091 20.7685C54.6554 20.3869 55.3296 20.1552 56.0564 20.1305V21.8855C55.7146 21.9074 55.3964 22.0156 55.123 22.1884L54.091 20.7685Z" fill="#004E89"/>
<path fill-rule="evenodd" clip-rule="evenodd" d="M56.1859 22.7675C56.795 22.7675 57.2888 23.2611 57.2888 23.8699C57.2888 24.4787 56.795 24.9723 56.1859 24.9723C55.5768 24.9723 55.083 24.4787 55.083 23.8699C55.083 23.2611 55.5768 22.7675 56.1859 22.7675Z" fill="#004E89"/>
<path fill-rule="evenodd" clip-rule="evenodd" d="M45.7707 7.11167H47.0632C47.8451 7.11167 48.4847 7.75095 48.4847 8.53248V11.1161C48.4847 11.8977 47.8451 12.5369 47.0632 12.5369H45.7707C44.9888 12.5369 44.3493 11.8977 44.3493 11.1161V8.53248C44.3493 7.75095 44.9888 7.11167 45.7707 7.11167Z" fill="#004E89"/>
<path fill-rule="evenodd" clip-rule="evenodd" d="M37.1199 1.99398C38.5105 1.99398 39.6379 3.12079 39.6379 4.51084C39.6379 5.90079 38.5105 7.0277 37.1199 7.0277C35.7293 7.0277 34.6019 5.90079 34.6019 4.51084C34.6019 3.12079 35.7293 1.99398 37.1199 1.99398Z" fill="#004E89"/>
<path fill-rule="evenodd" clip-rule="evenodd" d="M34.5088 6.94489C32.6853 9.22057 32.7492 12.9577 32.6067 16.4805C33.5334 16.7308 35.3641 16.8294 36.4956 16.4948C36.168 12.9948 36.1433 10.5467 36.9506 7.49082C36.0085 7.2802 35.3702 7.13754 34.5088 6.94489Z" fill="#004E89"/>
<path fill-rule="evenodd" clip-rule="evenodd" d="M3.71048 24.1451H0.863956C0.388118 24.1451 0 23.7065 0 23.1687V22.7263C0 22.1885 0.388118 21.7499 0.863956 21.7499H3.71048C4.18632 21.7499 4.57444 22.1885 4.57444 22.7263V23.1687C4.57444 23.7065 4.18632 24.1451 3.71048 24.1451Z" fill="#004E89"/>
<path fill-rule="evenodd" clip-rule="evenodd" d="M69.9155 24.1451H67.069C66.5931 24.1451 66.205 23.7065 66.205 23.1687V22.7263C66.205 22.1885 66.5931 21.7499 67.069 21.7499H69.9155C70.3913 21.7499 70.7794 22.1885 70.7794 22.7263V23.1687C70.7794 23.7065 70.3913 24.1451 69.9155 24.1451Z" fill="#004E89"/>
<path d="M27.3359 16.5806C27.3359 15.4745 27.7326 14.5515 28.5259 13.8117C29.3267 13.0648 30.3334 12.6914 31.5458 12.6914C32.7957 12.6914 33.8247 13.0261 34.633 13.6954L33.69 15.0799C33.458 14.8826 33.1587 14.717 32.7919 14.5832C32.4252 14.4493 32.0734 14.3824 31.7367 14.3824C30.9433 14.3824 30.3483 14.5867 29.9517 14.9953C29.5625 15.397 29.3679 15.9042 29.3679 16.5172C29.3679 17.2147 29.5887 17.7713 30.0303 18.187C30.4793 18.6027 31.0257 18.8106 31.6693 18.8106C32.2531 18.8106 32.7957 18.6274 33.2971 18.261V17.6798H32.1633V16.105H35.0372V20.3747H33.3981V20.1634L33.4094 19.8463H33.3869C33.1474 20.0436 32.8331 20.2021 32.4439 20.3219C32.0622 20.4417 31.673 20.5016 31.2764 20.5016C30.1986 20.5016 29.2706 20.1457 28.4922 19.4341C27.7214 18.7225 27.3359 17.7713 27.3359 16.5806Z" fill="white"/>
<path d="M36.3668 19.7195C35.7381 19.1911 35.4238 18.5076 35.4238 17.6692C35.4238 16.8307 35.7381 16.1438 36.3668 15.6083C36.9955 15.0728 37.7701 14.8051 38.6907 14.8051C39.6187 14.8051 40.3971 15.0728 41.0257 15.6083C41.6619 16.1367 41.98 16.8237 41.98 17.6692C41.98 18.5076 41.6656 19.1911 41.037 19.7195C40.4083 20.2409 39.6299 20.5016 38.7019 20.5016C37.7738 20.5016 36.9955 20.2409 36.3668 19.7195ZM37.3884 17.6692C37.3884 18.0637 37.5156 18.3808 37.7701 18.6204C38.0246 18.8599 38.3352 18.9797 38.7019 18.9797C39.0686 18.9797 39.3792 18.8599 39.6337 18.6204C39.8881 18.3808 40.0154 18.0637 40.0154 17.6692C40.0154 17.2676 39.8881 16.9435 39.6337 16.6969C39.3792 16.4503 39.0686 16.327 38.7019 16.327C38.3352 16.327 38.0246 16.4503 37.7701 16.6969C37.5156 16.9435 37.3884 17.2676 37.3884 17.6692Z" fill="white"/>
</svg>
