<svg width="360" height="432" viewBox="0 0 360 432" fill="none" xmlns="http://www.w3.org/2000/svg">
<g clip-path="url(#clip0_3925_308707)">
<rect width="360" height="432" fill="#001746"/>
<rect width="360" height="432" fill="url(#paint0_linear_3925_308707)" fill-opacity="0.15"/>
<rect width="360" height="432" fill="url(#paint1_radial_3925_308707)" fill-opacity="0.15"/>
<rect width="360" height="432" fill="url(#paint2_radial_3925_308707)" fill-opacity="0.15"/>
<g opacity="0.1">
<path d="M266.491 35.3944C266.647 35.6642 266.799 35.9367 266.946 36.2117C266.678 36.0364 266.499 35.7366 266.491 35.3944Z" fill="white"/>
<path d="M260.991 28.4597C261.459 28.899 261.914 29.353 262.353 29.8211C262.183 30.135 261.851 30.3482 261.469 30.3482C260.914 30.3482 260.464 29.8985 260.464 29.3437C260.464 28.9618 260.678 28.6296 260.991 28.4597Z" fill="white"/>
<path d="M254.601 23.8662C254.876 24.0137 255.148 24.1654 255.418 24.3211C255.076 24.3132 254.776 24.1341 254.601 23.8662Z" fill="white"/>
<path d="M225.332 24.3211C225.602 24.1654 225.874 24.0137 226.149 23.8662C225.974 24.1341 225.674 24.3132 225.332 24.3211Z" fill="white"/>
<path d="M218.397 29.8211C218.836 29.353 219.291 28.899 219.759 28.4597C220.072 28.6296 220.286 28.9618 220.286 29.3437C220.286 29.8985 219.836 30.3482 219.281 30.3482C218.899 30.3482 218.567 30.135 218.397 29.8211Z" fill="white"/>
<path d="M213.804 36.2117C213.951 35.9367 214.103 35.6642 214.259 35.3944C214.251 35.7366 214.072 36.0364 213.804 36.2117Z" fill="white"/>
<path d="M266.946 64.6633C266.799 64.9383 266.647 65.2108 266.491 65.4806C266.499 65.1384 266.678 64.8386 266.946 64.6633Z" fill="white"/>
<path d="M262.353 71.0539C262.183 70.74 261.851 70.5268 261.469 70.5268C260.914 70.5268 260.464 70.9765 260.464 71.5312C260.464 71.9132 260.678 72.2454 260.991 72.4153C261.459 71.976 261.914 71.522 262.353 71.0539Z" fill="white"/>
<path d="M255.418 76.5538C255.076 76.5618 254.776 76.7409 254.601 77.0088C254.876 76.8613 255.148 76.7096 255.418 76.5538Z" fill="white"/>
<path d="M226.149 77.0088C225.974 76.7409 225.674 76.5618 225.332 76.5538C225.602 76.7096 225.874 76.8613 226.149 77.0088Z" fill="white"/>
<path d="M219.759 72.4153C220.072 72.2454 220.286 71.9132 220.286 71.5312C220.286 70.9765 219.836 70.5268 219.281 70.5268C218.899 70.5268 218.567 70.74 218.397 71.0539C218.836 71.522 219.291 71.976 219.759 72.4153Z" fill="white"/>
<path d="M214.259 65.4806C214.251 65.1384 214.072 64.8386 213.804 64.6633C213.951 64.9383 214.103 65.2108 214.259 65.4806Z" fill="white"/>
<path d="M232.339 23.317C232.339 23.8717 231.89 24.3214 231.335 24.3214C230.78 24.3214 230.33 23.8717 230.33 23.317C230.33 22.7622 230.78 22.3125 231.335 22.3125C231.89 22.3125 232.339 22.7622 232.339 23.317Z" fill="white"/>
<path d="M238.366 23.317C238.366 23.8717 237.916 24.3214 237.362 24.3214C236.807 24.3214 236.357 23.8717 236.357 23.317C236.357 22.7622 236.807 22.3125 237.362 22.3125C237.916 22.3125 238.366 22.7622 238.366 23.317Z" fill="white"/>
<path d="M244.393 23.317C244.393 23.8717 243.943 24.3214 243.388 24.3214C242.834 24.3214 242.384 23.8717 242.384 23.317C242.384 22.7622 242.834 22.3125 243.388 22.3125C243.943 22.3125 244.393 22.7622 244.393 23.317Z" fill="white"/>
<path d="M250.42 23.317C250.42 23.8717 249.97 24.3214 249.415 24.3214C248.86 24.3214 248.411 23.8717 248.411 23.317C248.411 22.7622 248.86 22.3125 249.415 22.3125C249.97 22.3125 250.42 22.7622 250.42 23.317Z" fill="white"/>
<path d="M226.312 29.3437C226.312 29.8985 225.863 30.3482 225.308 30.3482C224.753 30.3482 224.304 29.8985 224.304 29.3437C224.304 28.789 224.753 28.3393 225.308 28.3393C225.863 28.3393 226.312 28.789 226.312 29.3437Z" fill="white"/>
<path d="M232.339 29.3437C232.339 29.8985 231.89 30.3482 231.335 30.3482C230.78 30.3482 230.33 29.8985 230.33 29.3437C230.33 28.789 230.78 28.3393 231.335 28.3393C231.89 28.3393 232.339 28.789 232.339 29.3437Z" fill="white"/>
<path d="M238.366 29.3437C238.366 29.8985 237.916 30.3482 237.362 30.3482C236.807 30.3482 236.357 29.8985 236.357 29.3437C236.357 28.789 236.807 28.3393 237.362 28.3393C237.916 28.3393 238.366 28.789 238.366 29.3437Z" fill="white"/>
<path d="M244.393 29.3437C244.393 29.8985 243.943 30.3482 243.388 30.3482C242.834 30.3482 242.384 29.8985 242.384 29.3437C242.384 28.789 242.834 28.3393 243.388 28.3393C243.943 28.3393 244.393 28.789 244.393 29.3437Z" fill="white"/>
<path d="M250.42 29.3437C250.42 29.8985 249.97 30.3482 249.415 30.3482C248.86 30.3482 248.411 29.8985 248.411 29.3437C248.411 28.789 248.86 28.3393 249.415 28.3393C249.97 28.3393 250.42 28.789 250.42 29.3437Z" fill="white"/>
<path d="M256.446 29.3437C256.446 29.8985 255.997 30.3482 255.442 30.3482C254.887 30.3482 254.437 29.8985 254.437 29.3437C254.437 28.789 254.887 28.3393 255.442 28.3393C255.997 28.3393 256.446 28.789 256.446 29.3437Z" fill="white"/>
<path d="M220.286 35.3705C220.286 35.9253 219.836 36.375 219.281 36.375C218.726 36.375 218.277 35.9253 218.277 35.3705C218.277 34.8158 218.726 34.3661 219.281 34.3661C219.836 34.3661 220.286 34.8158 220.286 35.3705Z" fill="white"/>
<path d="M226.312 35.3705C226.312 35.9253 225.863 36.375 225.308 36.375C224.753 36.375 224.304 35.9253 224.304 35.3705C224.304 34.8158 224.753 34.3661 225.308 34.3661C225.863 34.3661 226.312 34.8158 226.312 35.3705Z" fill="white"/>
<path d="M232.339 35.3705C232.339 35.9253 231.89 36.375 231.335 36.375C230.78 36.375 230.33 35.9253 230.33 35.3705C230.33 34.8158 230.78 34.3661 231.335 34.3661C231.89 34.3661 232.339 34.8158 232.339 35.3705Z" fill="white"/>
<path d="M238.366 35.3705C238.366 35.9253 237.916 36.375 237.362 36.375C236.807 36.375 236.357 35.9253 236.357 35.3705C236.357 34.8158 236.807 34.3661 237.362 34.3661C237.916 34.3661 238.366 34.8158 238.366 35.3705Z" fill="white"/>
<path d="M244.393 35.3705C244.393 35.9253 243.943 36.375 243.388 36.375C242.834 36.375 242.384 35.9253 242.384 35.3705C242.384 34.8158 242.834 34.3661 243.388 34.3661C243.943 34.3661 244.393 34.8158 244.393 35.3705Z" fill="white"/>
<path d="M250.42 35.3705C250.42 35.9253 249.97 36.375 249.415 36.375C248.86 36.375 248.411 35.9253 248.411 35.3705C248.411 34.8158 248.86 34.3661 249.415 34.3661C249.97 34.3661 250.42 34.8158 250.42 35.3705Z" fill="white"/>
<path d="M256.446 35.3705C256.446 35.9253 255.997 36.375 255.442 36.375C254.887 36.375 254.437 35.9253 254.437 35.3705C254.437 34.8158 254.887 34.3661 255.442 34.3661C255.997 34.3661 256.446 34.8158 256.446 35.3705Z" fill="white"/>
<path d="M262.473 35.3705C262.473 35.9253 262.023 36.375 261.469 36.375C260.914 36.375 260.464 35.9253 260.464 35.3705C260.464 34.8158 260.914 34.3661 261.469 34.3661C262.023 34.3661 262.473 34.8158 262.473 35.3705Z" fill="white"/>
<path d="M214.259 41.3973C214.259 41.9521 213.809 42.4018 213.254 42.4018C212.7 42.4018 212.25 41.9521 212.25 41.3973C212.25 40.8426 212.7 40.3929 213.254 40.3929C213.809 40.3929 214.259 40.8426 214.259 41.3973Z" fill="white"/>
<path d="M220.286 41.3973C220.286 41.9521 219.836 42.4018 219.281 42.4018C218.726 42.4018 218.277 41.9521 218.277 41.3973C218.277 40.8426 218.726 40.3929 219.281 40.3929C219.836 40.3929 220.286 40.8426 220.286 41.3973Z" fill="white"/>
<path d="M226.312 41.3973C226.312 41.9521 225.863 42.4018 225.308 42.4018C224.753 42.4018 224.304 41.9521 224.304 41.3973C224.304 40.8426 224.753 40.3929 225.308 40.3929C225.863 40.3929 226.312 40.8426 226.312 41.3973Z" fill="white"/>
<path d="M232.339 41.3973C232.339 41.9521 231.89 42.4018 231.335 42.4018C230.78 42.4018 230.33 41.9521 230.33 41.3973C230.33 40.8426 230.78 40.3929 231.335 40.3929C231.89 40.3929 232.339 40.8426 232.339 41.3973Z" fill="white"/>
<path d="M238.366 41.3973C238.366 41.9521 237.916 42.4018 237.362 42.4018C236.807 42.4018 236.357 41.9521 236.357 41.3973C236.357 40.8426 236.807 40.3929 237.362 40.3929C237.916 40.3929 238.366 40.8426 238.366 41.3973Z" fill="white"/>
<path d="M244.393 41.3973C244.393 41.9521 243.943 42.4018 243.388 42.4018C242.834 42.4018 242.384 41.9521 242.384 41.3973C242.384 40.8426 242.834 40.3929 243.388 40.3929C243.943 40.3929 244.393 40.8426 244.393 41.3973Z" fill="white"/>
<path d="M250.42 41.3973C250.42 41.9521 249.97 42.4018 249.415 42.4018C248.86 42.4018 248.411 41.9521 248.411 41.3973C248.411 40.8426 248.86 40.3929 249.415 40.3929C249.97 40.3929 250.42 40.8426 250.42 41.3973Z" fill="white"/>
<path d="M256.446 41.3973C256.446 41.9521 255.997 42.4018 255.442 42.4018C254.887 42.4018 254.437 41.9521 254.437 41.3973C254.437 40.8426 254.887 40.3929 255.442 40.3929C255.997 40.3929 256.446 40.8426 256.446 41.3973Z" fill="white"/>
<path d="M262.473 41.3973C262.473 41.9521 262.023 42.4018 261.469 42.4018C260.914 42.4018 260.464 41.9521 260.464 41.3973C260.464 40.8426 260.914 40.3929 261.469 40.3929C262.023 40.3929 262.473 40.8426 262.473 41.3973Z" fill="white"/>
<path d="M268.5 41.3973C268.5 41.9521 268.05 42.4018 267.496 42.4018C266.941 42.4018 266.491 41.9521 266.491 41.3973C266.491 40.8426 266.941 40.3929 267.496 40.3929C268.05 40.3929 268.5 40.8426 268.5 41.3973Z" fill="white"/>
<path d="M214.259 47.4241C214.259 47.9789 213.809 48.4286 213.254 48.4286C212.7 48.4286 212.25 47.9789 212.25 47.4241C212.25 46.8694 212.7 46.4196 213.254 46.4196C213.809 46.4196 214.259 46.8694 214.259 47.4241Z" fill="white"/>
<path d="M220.286 47.4241C220.286 47.9789 219.836 48.4286 219.281 48.4286C218.726 48.4286 218.277 47.9789 218.277 47.4241C218.277 46.8694 218.726 46.4196 219.281 46.4196C219.836 46.4196 220.286 46.8694 220.286 47.4241Z" fill="white"/>
<path d="M226.312 47.4241C226.312 47.9789 225.863 48.4286 225.308 48.4286C224.753 48.4286 224.304 47.9789 224.304 47.4241C224.304 46.8694 224.753 46.4196 225.308 46.4196C225.863 46.4196 226.312 46.8694 226.312 47.4241Z" fill="white"/>
<path d="M232.339 47.4241C232.339 47.9789 231.89 48.4286 231.335 48.4286C230.78 48.4286 230.33 47.9789 230.33 47.4241C230.33 46.8694 230.78 46.4196 231.335 46.4196C231.89 46.4196 232.339 46.8694 232.339 47.4241Z" fill="white"/>
<path d="M238.366 47.4241C238.366 47.9789 237.916 48.4286 237.362 48.4286C236.807 48.4286 236.357 47.9789 236.357 47.4241C236.357 46.8694 236.807 46.4196 237.362 46.4196C237.916 46.4196 238.366 46.8694 238.366 47.4241Z" fill="white"/>
<path d="M244.393 47.4241C244.393 47.9789 243.943 48.4286 243.388 48.4286C242.834 48.4286 242.384 47.9789 242.384 47.4241C242.384 46.8694 242.834 46.4196 243.388 46.4196C243.943 46.4196 244.393 46.8694 244.393 47.4241Z" fill="white"/>
<path d="M250.42 47.4241C250.42 47.9789 249.97 48.4286 249.415 48.4286C248.86 48.4286 248.411 47.9789 248.411 47.4241C248.411 46.8694 248.86 46.4196 249.415 46.4196C249.97 46.4196 250.42 46.8694 250.42 47.4241Z" fill="white"/>
<path d="M256.446 47.4241C256.446 47.9789 255.997 48.4286 255.442 48.4286C254.887 48.4286 254.437 47.9789 254.437 47.4241C254.437 46.8694 254.887 46.4196 255.442 46.4196C255.997 46.4196 256.446 46.8694 256.446 47.4241Z" fill="white"/>
<path d="M262.473 47.4241C262.473 47.9789 262.023 48.4286 261.469 48.4286C260.914 48.4286 260.464 47.9789 260.464 47.4241C260.464 46.8694 260.914 46.4196 261.469 46.4196C262.023 46.4196 262.473 46.8694 262.473 47.4241Z" fill="white"/>
<path d="M268.5 47.4241C268.5 47.9789 268.05 48.4286 267.496 48.4286C266.941 48.4286 266.491 47.9789 266.491 47.4241C266.491 46.8694 266.941 46.4196 267.496 46.4196C268.05 46.4196 268.5 46.8694 268.5 47.4241Z" fill="white"/>
<path d="M214.259 53.4509C214.259 54.0056 213.809 54.4554 213.254 54.4554C212.7 54.4554 212.25 54.0056 212.25 53.4509C212.25 52.8961 212.7 52.4464 213.254 52.4464C213.809 52.4464 214.259 52.8961 214.259 53.4509Z" fill="white"/>
<path d="M220.286 53.4509C220.286 54.0056 219.836 54.4554 219.281 54.4554C218.726 54.4554 218.277 54.0056 218.277 53.4509C218.277 52.8961 218.726 52.4464 219.281 52.4464C219.836 52.4464 220.286 52.8961 220.286 53.4509Z" fill="white"/>
<path d="M226.312 53.4509C226.312 54.0056 225.863 54.4554 225.308 54.4554C224.753 54.4554 224.304 54.0056 224.304 53.4509C224.304 52.8961 224.753 52.4464 225.308 52.4464C225.863 52.4464 226.312 52.8961 226.312 53.4509Z" fill="white"/>
<path d="M232.339 53.4509C232.339 54.0056 231.89 54.4554 231.335 54.4554C230.78 54.4554 230.33 54.0056 230.33 53.4509C230.33 52.8961 230.78 52.4464 231.335 52.4464C231.89 52.4464 232.339 52.8961 232.339 53.4509Z" fill="white"/>
<path d="M238.366 53.4509C238.366 54.0056 237.916 54.4554 237.362 54.4554C236.807 54.4554 236.357 54.0056 236.357 53.4509C236.357 52.8961 236.807 52.4464 237.362 52.4464C237.916 52.4464 238.366 52.8961 238.366 53.4509Z" fill="white"/>
<path d="M244.393 53.4509C244.393 54.0056 243.943 54.4554 243.388 54.4554C242.834 54.4554 242.384 54.0056 242.384 53.4509C242.384 52.8961 242.834 52.4464 243.388 52.4464C243.943 52.4464 244.393 52.8961 244.393 53.4509Z" fill="white"/>
<path d="M250.42 53.4509C250.42 54.0056 249.97 54.4554 249.415 54.4554C248.86 54.4554 248.411 54.0056 248.411 53.4509C248.411 52.8961 248.86 52.4464 249.415 52.4464C249.97 52.4464 250.42 52.8961 250.42 53.4509Z" fill="white"/>
<path d="M256.446 53.4509C256.446 54.0056 255.997 54.4554 255.442 54.4554C254.887 54.4554 254.437 54.0056 254.437 53.4509C254.437 52.8961 254.887 52.4464 255.442 52.4464C255.997 52.4464 256.446 52.8961 256.446 53.4509Z" fill="white"/>
<path d="M262.473 53.4509C262.473 54.0056 262.023 54.4554 261.469 54.4554C260.914 54.4554 260.464 54.0056 260.464 53.4509C260.464 52.8961 260.914 52.4464 261.469 52.4464C262.023 52.4464 262.473 52.8961 262.473 53.4509Z" fill="white"/>
<path d="M268.5 53.4509C268.5 54.0056 268.05 54.4554 267.496 54.4554C266.941 54.4554 266.491 54.0056 266.491 53.4509C266.491 52.8961 266.941 52.4464 267.496 52.4464C268.05 52.4464 268.5 52.8961 268.5 53.4509Z" fill="white"/>
<path d="M214.259 59.4777C214.259 60.0324 213.809 60.4821 213.254 60.4821C212.7 60.4821 212.25 60.0324 212.25 59.4777C212.25 58.9229 212.7 58.4732 213.254 58.4732C213.809 58.4732 214.259 58.9229 214.259 59.4777Z" fill="white"/>
<path d="M220.286 59.4777C220.286 60.0324 219.836 60.4821 219.281 60.4821C218.726 60.4821 218.277 60.0324 218.277 59.4777C218.277 58.9229 218.726 58.4732 219.281 58.4732C219.836 58.4732 220.286 58.9229 220.286 59.4777Z" fill="white"/>
<path d="M226.312 59.4777C226.312 60.0324 225.863 60.4821 225.308 60.4821C224.753 60.4821 224.304 60.0324 224.304 59.4777C224.304 58.9229 224.753 58.4732 225.308 58.4732C225.863 58.4732 226.312 58.9229 226.312 59.4777Z" fill="white"/>
<path d="M232.339 59.4777C232.339 60.0324 231.89 60.4821 231.335 60.4821C230.78 60.4821 230.33 60.0324 230.33 59.4777C230.33 58.9229 230.78 58.4732 231.335 58.4732C231.89 58.4732 232.339 58.9229 232.339 59.4777Z" fill="white"/>
<path d="M238.366 59.4777C238.366 60.0324 237.916 60.4821 237.362 60.4821C236.807 60.4821 236.357 60.0324 236.357 59.4777C236.357 58.9229 236.807 58.4732 237.362 58.4732C237.916 58.4732 238.366 58.9229 238.366 59.4777Z" fill="white"/>
<path d="M244.393 59.4777C244.393 60.0324 243.943 60.4821 243.388 60.4821C242.834 60.4821 242.384 60.0324 242.384 59.4777C242.384 58.9229 242.834 58.4732 243.388 58.4732C243.943 58.4732 244.393 58.9229 244.393 59.4777Z" fill="white"/>
<path d="M250.42 59.4777C250.42 60.0324 249.97 60.4821 249.415 60.4821C248.86 60.4821 248.411 60.0324 248.411 59.4777C248.411 58.9229 248.86 58.4732 249.415 58.4732C249.97 58.4732 250.42 58.9229 250.42 59.4777Z" fill="white"/>
<path d="M256.446 59.4777C256.446 60.0324 255.997 60.4821 255.442 60.4821C254.887 60.4821 254.437 60.0324 254.437 59.4777C254.437 58.9229 254.887 58.4732 255.442 58.4732C255.997 58.4732 256.446 58.9229 256.446 59.4777Z" fill="white"/>
<path d="M262.473 59.4777C262.473 60.0324 262.023 60.4821 261.469 60.4821C260.914 60.4821 260.464 60.0324 260.464 59.4777C260.464 58.9229 260.914 58.4732 261.469 58.4732C262.023 58.4732 262.473 58.9229 262.473 59.4777Z" fill="white"/>
<path d="M268.5 59.4777C268.5 60.0324 268.05 60.4821 267.496 60.4821C266.941 60.4821 266.491 60.0324 266.491 59.4777C266.491 58.9229 266.941 58.4732 267.496 58.4732C268.05 58.4732 268.5 58.9229 268.5 59.4777Z" fill="white"/>
<path d="M220.286 65.5045C220.286 66.0592 219.836 66.5089 219.281 66.5089C218.726 66.5089 218.277 66.0592 218.277 65.5045C218.277 64.9497 218.726 64.5 219.281 64.5C219.836 64.5 220.286 64.9497 220.286 65.5045Z" fill="white"/>
<path d="M226.312 65.5045C226.312 66.0592 225.863 66.5089 225.308 66.5089C224.753 66.5089 224.304 66.0592 224.304 65.5045C224.304 64.9497 224.753 64.5 225.308 64.5C225.863 64.5 226.312 64.9497 226.312 65.5045Z" fill="white"/>
<path d="M232.339 65.5045C232.339 66.0592 231.89 66.5089 231.335 66.5089C230.78 66.5089 230.33 66.0592 230.33 65.5045C230.33 64.9497 230.78 64.5 231.335 64.5C231.89 64.5 232.339 64.9497 232.339 65.5045Z" fill="white"/>
<path d="M238.366 65.5045C238.366 66.0592 237.916 66.5089 237.362 66.5089C236.807 66.5089 236.357 66.0592 236.357 65.5045C236.357 64.9497 236.807 64.5 237.362 64.5C237.916 64.5 238.366 64.9497 238.366 65.5045Z" fill="white"/>
<path d="M244.393 65.5045C244.393 66.0592 243.943 66.5089 243.388 66.5089C242.834 66.5089 242.384 66.0592 242.384 65.5045C242.384 64.9497 242.834 64.5 243.388 64.5C243.943 64.5 244.393 64.9497 244.393 65.5045Z" fill="white"/>
<path d="M250.42 65.5045C250.42 66.0592 249.97 66.5089 249.415 66.5089C248.86 66.5089 248.411 66.0592 248.411 65.5045C248.411 64.9497 248.86 64.5 249.415 64.5C249.97 64.5 250.42 64.9497 250.42 65.5045Z" fill="white"/>
<path d="M256.446 65.5045C256.446 66.0592 255.997 66.5089 255.442 66.5089C254.887 66.5089 254.437 66.0592 254.437 65.5045C254.437 64.9497 254.887 64.5 255.442 64.5C255.997 64.5 256.446 64.9497 256.446 65.5045Z" fill="white"/>
<path d="M262.473 65.5045C262.473 66.0592 262.023 66.5089 261.469 66.5089C260.914 66.5089 260.464 66.0592 260.464 65.5045C260.464 64.9497 260.914 64.5 261.469 64.5C262.023 64.5 262.473 64.9497 262.473 65.5045Z" fill="white"/>
<path d="M226.312 71.5312C226.312 72.086 225.863 72.5357 225.308 72.5357C224.753 72.5357 224.304 72.086 224.304 71.5312C224.304 70.9765 224.753 70.5268 225.308 70.5268C225.863 70.5268 226.312 70.9765 226.312 71.5312Z" fill="white"/>
<path d="M232.339 71.5312C232.339 72.086 231.89 72.5357 231.335 72.5357C230.78 72.5357 230.33 72.086 230.33 71.5312C230.33 70.9765 230.78 70.5268 231.335 70.5268C231.89 70.5268 232.339 70.9765 232.339 71.5312Z" fill="white"/>
<path d="M238.366 71.5312C238.366 72.086 237.916 72.5357 237.362 72.5357C236.807 72.5357 236.357 72.086 236.357 71.5312C236.357 70.9765 236.807 70.5268 237.362 70.5268C237.916 70.5268 238.366 70.9765 238.366 71.5312Z" fill="white"/>
<path d="M244.393 71.5312C244.393 72.086 243.943 72.5357 243.388 72.5357C242.834 72.5357 242.384 72.086 242.384 71.5312C242.384 70.9765 242.834 70.5268 243.388 70.5268C243.943 70.5268 244.393 70.9765 244.393 71.5312Z" fill="white"/>
<path d="M250.42 71.5312C250.42 72.086 249.97 72.5357 249.415 72.5357C248.86 72.5357 248.411 72.086 248.411 71.5312C248.411 70.9765 248.86 70.5268 249.415 70.5268C249.97 70.5268 250.42 70.9765 250.42 71.5312Z" fill="white"/>
<path d="M256.446 71.5312C256.446 72.086 255.997 72.5357 255.442 72.5357C254.887 72.5357 254.437 72.086 254.437 71.5312C254.437 70.9765 254.887 70.5268 255.442 70.5268C255.997 70.5268 256.446 70.9765 256.446 71.5312Z" fill="white"/>
<path d="M232.339 77.558C232.339 78.1128 231.89 78.5625 231.335 78.5625C230.78 78.5625 230.33 78.1128 230.33 77.558C230.33 77.0033 230.78 76.5536 231.335 76.5536C231.89 76.5536 232.339 77.0033 232.339 77.558Z" fill="white"/>
<path d="M238.366 77.558C238.366 78.1128 237.916 78.5625 237.362 78.5625C236.807 78.5625 236.357 78.1128 236.357 77.558C236.357 77.0033 236.807 76.5536 237.362 76.5536C237.916 76.5536 238.366 77.0033 238.366 77.558Z" fill="white"/>
<path d="M244.393 77.558C244.393 78.1128 243.943 78.5625 243.388 78.5625C242.834 78.5625 242.384 78.1128 242.384 77.558C242.384 77.0033 242.834 76.5536 243.388 76.5536C243.943 76.5536 244.393 77.0033 244.393 77.558Z" fill="white"/>
<path d="M250.42 77.558C250.42 78.1128 249.97 78.5625 249.415 78.5625C248.86 78.5625 248.411 78.1128 248.411 77.558C248.411 77.0033 248.86 76.5536 249.415 76.5536C249.97 76.5536 250.42 77.0033 250.42 77.558Z" fill="white"/>
</g>
<g opacity="0.1">
<path d="M266.491 219.082C266.647 219.352 266.799 219.624 266.946 219.899C266.678 219.724 266.499 219.424 266.491 219.082Z" fill="white"/>
<path d="M260.991 212.147C261.459 212.586 261.914 213.041 262.353 213.509C262.183 213.822 261.851 214.036 261.469 214.036C260.914 214.036 260.464 213.586 260.464 213.031C260.464 212.649 260.678 212.317 260.991 212.147Z" fill="white"/>
<path d="M254.601 207.554C254.876 207.701 255.148 207.853 255.418 208.009C255.076 208.001 254.776 207.822 254.601 207.554Z" fill="white"/>
<path d="M225.332 208.009C225.602 207.853 225.874 207.701 226.149 207.554C225.974 207.822 225.674 208.001 225.332 208.009Z" fill="white"/>
<path d="M218.397 213.509C218.836 213.041 219.291 212.586 219.759 212.147C220.072 212.317 220.286 212.649 220.286 213.031C220.286 213.586 219.836 214.036 219.281 214.036C218.899 214.036 218.567 213.822 218.397 213.509Z" fill="white"/>
<path d="M213.804 219.899C213.951 219.624 214.103 219.352 214.259 219.082C214.251 219.424 214.072 219.724 213.804 219.899Z" fill="white"/>
<path d="M266.946 248.351C266.799 248.626 266.647 248.898 266.491 249.168C266.499 248.826 266.678 248.526 266.946 248.351Z" fill="white"/>
<path d="M262.353 254.741C262.183 254.428 261.851 254.214 261.469 254.214C260.914 254.214 260.464 254.664 260.464 255.219C260.464 255.601 260.678 255.933 260.991 256.103C261.459 255.664 261.914 255.209 262.353 254.741Z" fill="white"/>
<path d="M255.418 260.241C255.076 260.249 254.776 260.428 254.601 260.696C254.876 260.549 255.148 260.397 255.418 260.241Z" fill="white"/>
<path d="M226.149 260.696C225.974 260.428 225.674 260.249 225.332 260.241C225.602 260.397 225.874 260.549 226.149 260.696Z" fill="white"/>
<path d="M219.759 256.103C220.072 255.933 220.286 255.601 220.286 255.219C220.286 254.664 219.836 254.214 219.281 254.214C218.899 254.214 218.567 254.428 218.397 254.741C218.836 255.209 219.291 255.664 219.759 256.103Z" fill="white"/>
<path d="M214.259 249.168C214.251 248.826 214.072 248.526 213.804 248.351C213.951 248.626 214.103 248.898 214.259 249.168Z" fill="white"/>
<path d="M232.339 207.004C232.339 207.559 231.89 208.009 231.335 208.009C230.78 208.009 230.33 207.559 230.33 207.004C230.33 206.45 230.78 206 231.335 206C231.89 206 232.339 206.45 232.339 207.004Z" fill="white"/>
<path d="M238.366 207.004C238.366 207.559 237.916 208.009 237.362 208.009C236.807 208.009 236.357 207.559 236.357 207.004C236.357 206.45 236.807 206 237.362 206C237.916 206 238.366 206.45 238.366 207.004Z" fill="white"/>
<path d="M244.393 207.004C244.393 207.559 243.943 208.009 243.388 208.009C242.834 208.009 242.384 207.559 242.384 207.004C242.384 206.45 242.834 206 243.388 206C243.943 206 244.393 206.45 244.393 207.004Z" fill="white"/>
<path d="M250.42 207.004C250.42 207.559 249.97 208.009 249.415 208.009C248.86 208.009 248.411 207.559 248.411 207.004C248.411 206.45 248.86 206 249.415 206C249.97 206 250.42 206.45 250.42 207.004Z" fill="white"/>
<path d="M226.312 213.031C226.312 213.586 225.863 214.036 225.308 214.036C224.753 214.036 224.304 213.586 224.304 213.031C224.304 212.476 224.753 212.027 225.308 212.027C225.863 212.027 226.312 212.476 226.312 213.031Z" fill="white"/>
<path d="M232.339 213.031C232.339 213.586 231.89 214.036 231.335 214.036C230.78 214.036 230.33 213.586 230.33 213.031C230.33 212.476 230.78 212.027 231.335 212.027C231.89 212.027 232.339 212.476 232.339 213.031Z" fill="white"/>
<path d="M238.366 213.031C238.366 213.586 237.916 214.036 237.362 214.036C236.807 214.036 236.357 213.586 236.357 213.031C236.357 212.476 236.807 212.027 237.362 212.027C237.916 212.027 238.366 212.476 238.366 213.031Z" fill="white"/>
<path d="M244.393 213.031C244.393 213.586 243.943 214.036 243.388 214.036C242.834 214.036 242.384 213.586 242.384 213.031C242.384 212.476 242.834 212.027 243.388 212.027C243.943 212.027 244.393 212.476 244.393 213.031Z" fill="white"/>
<path d="M250.42 213.031C250.42 213.586 249.97 214.036 249.415 214.036C248.86 214.036 248.411 213.586 248.411 213.031C248.411 212.476 248.86 212.027 249.415 212.027C249.97 212.027 250.42 212.476 250.42 213.031Z" fill="white"/>
<path d="M256.446 213.031C256.446 213.586 255.997 214.036 255.442 214.036C254.887 214.036 254.437 213.586 254.437 213.031C254.437 212.476 254.887 212.027 255.442 212.027C255.997 212.027 256.446 212.476 256.446 213.031Z" fill="white"/>
<path d="M220.286 219.058C220.286 219.613 219.836 220.062 219.281 220.062C218.726 220.062 218.277 219.613 218.277 219.058C218.277 218.503 218.726 218.054 219.281 218.054C219.836 218.054 220.286 218.503 220.286 219.058Z" fill="white"/>
<path d="M226.312 219.058C226.312 219.613 225.863 220.062 225.308 220.062C224.753 220.062 224.304 219.613 224.304 219.058C224.304 218.503 224.753 218.054 225.308 218.054C225.863 218.054 226.312 218.503 226.312 219.058Z" fill="white"/>
<path d="M232.339 219.058C232.339 219.613 231.89 220.062 231.335 220.062C230.78 220.062 230.33 219.613 230.33 219.058C230.33 218.503 230.78 218.054 231.335 218.054C231.89 218.054 232.339 218.503 232.339 219.058Z" fill="white"/>
<path d="M238.366 219.058C238.366 219.613 237.916 220.062 237.362 220.062C236.807 220.062 236.357 219.613 236.357 219.058C236.357 218.503 236.807 218.054 237.362 218.054C237.916 218.054 238.366 218.503 238.366 219.058Z" fill="white"/>
<path d="M244.393 219.058C244.393 219.613 243.943 220.062 243.388 220.062C242.834 220.062 242.384 219.613 242.384 219.058C242.384 218.503 242.834 218.054 243.388 218.054C243.943 218.054 244.393 218.503 244.393 219.058Z" fill="white"/>
<path d="M250.42 219.058C250.42 219.613 249.97 220.062 249.415 220.062C248.86 220.062 248.411 219.613 248.411 219.058C248.411 218.503 248.86 218.054 249.415 218.054C249.97 218.054 250.42 218.503 250.42 219.058Z" fill="white"/>
<path d="M256.446 219.058C256.446 219.613 255.997 220.062 255.442 220.062C254.887 220.062 254.437 219.613 254.437 219.058C254.437 218.503 254.887 218.054 255.442 218.054C255.997 218.054 256.446 218.503 256.446 219.058Z" fill="white"/>
<path d="M262.473 219.058C262.473 219.613 262.023 220.062 261.469 220.062C260.914 220.062 260.464 219.613 260.464 219.058C260.464 218.503 260.914 218.054 261.469 218.054C262.023 218.054 262.473 218.503 262.473 219.058Z" fill="white"/>
<path d="M214.259 225.085C214.259 225.64 213.809 226.089 213.254 226.089C212.7 226.089 212.25 225.64 212.25 225.085C212.25 224.53 212.7 224.08 213.254 224.08C213.809 224.08 214.259 224.53 214.259 225.085Z" fill="white"/>
<path d="M220.286 225.085C220.286 225.64 219.836 226.089 219.281 226.089C218.726 226.089 218.277 225.64 218.277 225.085C218.277 224.53 218.726 224.08 219.281 224.08C219.836 224.08 220.286 224.53 220.286 225.085Z" fill="white"/>
<path d="M226.312 225.085C226.312 225.64 225.863 226.089 225.308 226.089C224.753 226.089 224.304 225.64 224.304 225.085C224.304 224.53 224.753 224.08 225.308 224.08C225.863 224.08 226.312 224.53 226.312 225.085Z" fill="white"/>
<path d="M232.339 225.085C232.339 225.64 231.89 226.089 231.335 226.089C230.78 226.089 230.33 225.64 230.33 225.085C230.33 224.53 230.78 224.08 231.335 224.08C231.89 224.08 232.339 224.53 232.339 225.085Z" fill="white"/>
<path d="M238.366 225.085C238.366 225.64 237.916 226.089 237.362 226.089C236.807 226.089 236.357 225.64 236.357 225.085C236.357 224.53 236.807 224.08 237.362 224.08C237.916 224.08 238.366 224.53 238.366 225.085Z" fill="white"/>
<path d="M244.393 225.085C244.393 225.64 243.943 226.089 243.388 226.089C242.834 226.089 242.384 225.64 242.384 225.085C242.384 224.53 242.834 224.08 243.388 224.08C243.943 224.08 244.393 224.53 244.393 225.085Z" fill="white"/>
<path d="M250.42 225.085C250.42 225.64 249.97 226.089 249.415 226.089C248.86 226.089 248.411 225.64 248.411 225.085C248.411 224.53 248.86 224.08 249.415 224.08C249.97 224.08 250.42 224.53 250.42 225.085Z" fill="white"/>
<path d="M256.446 225.085C256.446 225.64 255.997 226.089 255.442 226.089C254.887 226.089 254.437 225.64 254.437 225.085C254.437 224.53 254.887 224.08 255.442 224.08C255.997 224.08 256.446 224.53 256.446 225.085Z" fill="white"/>
<path d="M262.473 225.085C262.473 225.64 262.023 226.089 261.469 226.089C260.914 226.089 260.464 225.64 260.464 225.085C260.464 224.53 260.914 224.08 261.469 224.08C262.023 224.08 262.473 224.53 262.473 225.085Z" fill="white"/>
<path d="M268.5 225.085C268.5 225.64 268.05 226.089 267.496 226.089C266.941 226.089 266.491 225.64 266.491 225.085C266.491 224.53 266.941 224.08 267.496 224.08C268.05 224.08 268.5 224.53 268.5 225.085Z" fill="white"/>
<path d="M214.259 231.112C214.259 231.666 213.809 232.116 213.254 232.116C212.7 232.116 212.25 231.666 212.25 231.112C212.25 230.557 212.7 230.107 213.254 230.107C213.809 230.107 214.259 230.557 214.259 231.112Z" fill="white"/>
<path d="M220.286 231.112C220.286 231.666 219.836 232.116 219.281 232.116C218.726 232.116 218.277 231.666 218.277 231.112C218.277 230.557 218.726 230.107 219.281 230.107C219.836 230.107 220.286 230.557 220.286 231.112Z" fill="white"/>
<path d="M226.312 231.112C226.312 231.666 225.863 232.116 225.308 232.116C224.753 232.116 224.304 231.666 224.304 231.112C224.304 230.557 224.753 230.107 225.308 230.107C225.863 230.107 226.312 230.557 226.312 231.112Z" fill="white"/>
<path d="M232.339 231.112C232.339 231.666 231.89 232.116 231.335 232.116C230.78 232.116 230.33 231.666 230.33 231.112C230.33 230.557 230.78 230.107 231.335 230.107C231.89 230.107 232.339 230.557 232.339 231.112Z" fill="white"/>
<path d="M238.366 231.112C238.366 231.666 237.916 232.116 237.362 232.116C236.807 232.116 236.357 231.666 236.357 231.112C236.357 230.557 236.807 230.107 237.362 230.107C237.916 230.107 238.366 230.557 238.366 231.112Z" fill="white"/>
<path d="M244.393 231.112C244.393 231.666 243.943 232.116 243.388 232.116C242.834 232.116 242.384 231.666 242.384 231.112C242.384 230.557 242.834 230.107 243.388 230.107C243.943 230.107 244.393 230.557 244.393 231.112Z" fill="white"/>
<path d="M250.42 231.112C250.42 231.666 249.97 232.116 249.415 232.116C248.86 232.116 248.411 231.666 248.411 231.112C248.411 230.557 248.86 230.107 249.415 230.107C249.97 230.107 250.42 230.557 250.42 231.112Z" fill="white"/>
<path d="M256.446 231.112C256.446 231.666 255.997 232.116 255.442 232.116C254.887 232.116 254.437 231.666 254.437 231.112C254.437 230.557 254.887 230.107 255.442 230.107C255.997 230.107 256.446 230.557 256.446 231.112Z" fill="white"/>
<path d="M262.473 231.112C262.473 231.666 262.023 232.116 261.469 232.116C260.914 232.116 260.464 231.666 260.464 231.112C260.464 230.557 260.914 230.107 261.469 230.107C262.023 230.107 262.473 230.557 262.473 231.112Z" fill="white"/>
<path d="M268.5 231.112C268.5 231.666 268.05 232.116 267.496 232.116C266.941 232.116 266.491 231.666 266.491 231.112C266.491 230.557 266.941 230.107 267.496 230.107C268.05 230.107 268.5 230.557 268.5 231.112Z" fill="white"/>
<path d="M214.259 237.138C214.259 237.693 213.809 238.143 213.254 238.143C212.7 238.143 212.25 237.693 212.25 237.138C212.25 236.584 212.7 236.134 213.254 236.134C213.809 236.134 214.259 236.584 214.259 237.138Z" fill="white"/>
<path d="M220.286 237.138C220.286 237.693 219.836 238.143 219.281 238.143C218.726 238.143 218.277 237.693 218.277 237.138C218.277 236.584 218.726 236.134 219.281 236.134C219.836 236.134 220.286 236.584 220.286 237.138Z" fill="white"/>
<path d="M226.312 237.138C226.312 237.693 225.863 238.143 225.308 238.143C224.753 238.143 224.304 237.693 224.304 237.138C224.304 236.584 224.753 236.134 225.308 236.134C225.863 236.134 226.312 236.584 226.312 237.138Z" fill="white"/>
<path d="M232.339 237.138C232.339 237.693 231.89 238.143 231.335 238.143C230.78 238.143 230.33 237.693 230.33 237.138C230.33 236.584 230.78 236.134 231.335 236.134C231.89 236.134 232.339 236.584 232.339 237.138Z" fill="white"/>
<path d="M238.366 237.138C238.366 237.693 237.916 238.143 237.362 238.143C236.807 238.143 236.357 237.693 236.357 237.138C236.357 236.584 236.807 236.134 237.362 236.134C237.916 236.134 238.366 236.584 238.366 237.138Z" fill="white"/>
<path d="M244.393 237.138C244.393 237.693 243.943 238.143 243.388 238.143C242.834 238.143 242.384 237.693 242.384 237.138C242.384 236.584 242.834 236.134 243.388 236.134C243.943 236.134 244.393 236.584 244.393 237.138Z" fill="white"/>
<path d="M250.42 237.138C250.42 237.693 249.97 238.143 249.415 238.143C248.86 238.143 248.411 237.693 248.411 237.138C248.411 236.584 248.86 236.134 249.415 236.134C249.97 236.134 250.42 236.584 250.42 237.138Z" fill="white"/>
<path d="M256.446 237.138C256.446 237.693 255.997 238.143 255.442 238.143C254.887 238.143 254.437 237.693 254.437 237.138C254.437 236.584 254.887 236.134 255.442 236.134C255.997 236.134 256.446 236.584 256.446 237.138Z" fill="white"/>
<path d="M262.473 237.138C262.473 237.693 262.023 238.143 261.469 238.143C260.914 238.143 260.464 237.693 260.464 237.138C260.464 236.584 260.914 236.134 261.469 236.134C262.023 236.134 262.473 236.584 262.473 237.138Z" fill="white"/>
<path d="M268.5 237.138C268.5 237.693 268.05 238.143 267.496 238.143C266.941 238.143 266.491 237.693 266.491 237.138C266.491 236.584 266.941 236.134 267.496 236.134C268.05 236.134 268.5 236.584 268.5 237.138Z" fill="white"/>
<path d="M214.259 243.165C214.259 243.72 213.809 244.17 213.254 244.17C212.7 244.17 212.25 243.72 212.25 243.165C212.25 242.61 212.7 242.161 213.254 242.161C213.809 242.161 214.259 242.61 214.259 243.165Z" fill="white"/>
<path d="M220.286 243.165C220.286 243.72 219.836 244.17 219.281 244.17C218.726 244.17 218.277 243.72 218.277 243.165C218.277 242.61 218.726 242.161 219.281 242.161C219.836 242.161 220.286 242.61 220.286 243.165Z" fill="white"/>
<path d="M226.312 243.165C226.312 243.72 225.863 244.17 225.308 244.17C224.753 244.17 224.304 243.72 224.304 243.165C224.304 242.61 224.753 242.161 225.308 242.161C225.863 242.161 226.312 242.61 226.312 243.165Z" fill="white"/>
<path d="M232.339 243.165C232.339 243.72 231.89 244.17 231.335 244.17C230.78 244.17 230.33 243.72 230.33 243.165C230.33 242.61 230.78 242.161 231.335 242.161C231.89 242.161 232.339 242.61 232.339 243.165Z" fill="white"/>
<path d="M238.366 243.165C238.366 243.72 237.916 244.17 237.362 244.17C236.807 244.17 236.357 243.72 236.357 243.165C236.357 242.61 236.807 242.161 237.362 242.161C237.916 242.161 238.366 242.61 238.366 243.165Z" fill="white"/>
<path d="M244.393 243.165C244.393 243.72 243.943 244.17 243.388 244.17C242.834 244.17 242.384 243.72 242.384 243.165C242.384 242.61 242.834 242.161 243.388 242.161C243.943 242.161 244.393 242.61 244.393 243.165Z" fill="white"/>
<path d="M250.42 243.165C250.42 243.72 249.97 244.17 249.415 244.17C248.86 244.17 248.411 243.72 248.411 243.165C248.411 242.61 248.86 242.161 249.415 242.161C249.97 242.161 250.42 242.61 250.42 243.165Z" fill="white"/>
<path d="M256.446 243.165C256.446 243.72 255.997 244.17 255.442 244.17C254.887 244.17 254.437 243.72 254.437 243.165C254.437 242.61 254.887 242.161 255.442 242.161C255.997 242.161 256.446 242.61 256.446 243.165Z" fill="white"/>
<path d="M262.473 243.165C262.473 243.72 262.023 244.17 261.469 244.17C260.914 244.17 260.464 243.72 260.464 243.165C260.464 242.61 260.914 242.161 261.469 242.161C262.023 242.161 262.473 242.61 262.473 243.165Z" fill="white"/>
<path d="M268.5 243.165C268.5 243.72 268.05 244.17 267.496 244.17C266.941 244.17 266.491 243.72 266.491 243.165C266.491 242.61 266.941 242.161 267.496 242.161C268.05 242.161 268.5 242.61 268.5 243.165Z" fill="white"/>
<path d="M220.286 249.192C220.286 249.747 219.836 250.196 219.281 250.196C218.726 250.196 218.277 249.747 218.277 249.192C218.277 248.637 218.726 248.187 219.281 248.187C219.836 248.187 220.286 248.637 220.286 249.192Z" fill="white"/>
<path d="M226.312 249.192C226.312 249.747 225.863 250.196 225.308 250.196C224.753 250.196 224.304 249.747 224.304 249.192C224.304 248.637 224.753 248.187 225.308 248.187C225.863 248.187 226.312 248.637 226.312 249.192Z" fill="white"/>
<path d="M232.339 249.192C232.339 249.747 231.89 250.196 231.335 250.196C230.78 250.196 230.33 249.747 230.33 249.192C230.33 248.637 230.78 248.187 231.335 248.187C231.89 248.187 232.339 248.637 232.339 249.192Z" fill="white"/>
<path d="M238.366 249.192C238.366 249.747 237.916 250.196 237.362 250.196C236.807 250.196 236.357 249.747 236.357 249.192C236.357 248.637 236.807 248.187 237.362 248.187C237.916 248.187 238.366 248.637 238.366 249.192Z" fill="white"/>
<path d="M244.393 249.192C244.393 249.747 243.943 250.196 243.388 250.196C242.834 250.196 242.384 249.747 242.384 249.192C242.384 248.637 242.834 248.187 243.388 248.187C243.943 248.187 244.393 248.637 244.393 249.192Z" fill="white"/>
<path d="M250.42 249.192C250.42 249.747 249.97 250.196 249.415 250.196C248.86 250.196 248.411 249.747 248.411 249.192C248.411 248.637 248.86 248.187 249.415 248.187C249.97 248.187 250.42 248.637 250.42 249.192Z" fill="white"/>
<path d="M256.446 249.192C256.446 249.747 255.997 250.196 255.442 250.196C254.887 250.196 254.437 249.747 254.437 249.192C254.437 248.637 254.887 248.187 255.442 248.187C255.997 248.187 256.446 248.637 256.446 249.192Z" fill="white"/>
<path d="M262.473 249.192C262.473 249.747 262.023 250.196 261.469 250.196C260.914 250.196 260.464 249.747 260.464 249.192C260.464 248.637 260.914 248.187 261.469 248.187C262.023 248.187 262.473 248.637 262.473 249.192Z" fill="white"/>
<path d="M226.312 255.219C226.312 255.773 225.863 256.223 225.308 256.223C224.753 256.223 224.304 255.773 224.304 255.219C224.304 254.664 224.753 254.214 225.308 254.214C225.863 254.214 226.312 254.664 226.312 255.219Z" fill="white"/>
<path d="M232.339 255.219C232.339 255.773 231.89 256.223 231.335 256.223C230.78 256.223 230.33 255.773 230.33 255.219C230.33 254.664 230.78 254.214 231.335 254.214C231.89 254.214 232.339 254.664 232.339 255.219Z" fill="white"/>
<path d="M238.366 255.219C238.366 255.773 237.916 256.223 237.362 256.223C236.807 256.223 236.357 255.773 236.357 255.219C236.357 254.664 236.807 254.214 237.362 254.214C237.916 254.214 238.366 254.664 238.366 255.219Z" fill="white"/>
<path d="M244.393 255.219C244.393 255.773 243.943 256.223 243.388 256.223C242.834 256.223 242.384 255.773 242.384 255.219C242.384 254.664 242.834 254.214 243.388 254.214C243.943 254.214 244.393 254.664 244.393 255.219Z" fill="white"/>
<path d="M250.42 255.219C250.42 255.773 249.97 256.223 249.415 256.223C248.86 256.223 248.411 255.773 248.411 255.219C248.411 254.664 248.86 254.214 249.415 254.214C249.97 254.214 250.42 254.664 250.42 255.219Z" fill="white"/>
<path d="M256.446 255.219C256.446 255.773 255.997 256.223 255.442 256.223C254.887 256.223 254.437 255.773 254.437 255.219C254.437 254.664 254.887 254.214 255.442 254.214C255.997 254.214 256.446 254.664 256.446 255.219Z" fill="white"/>
<path d="M232.339 261.246C232.339 261.8 231.89 262.25 231.335 262.25C230.78 262.25 230.33 261.8 230.33 261.246C230.33 260.691 230.78 260.241 231.335 260.241C231.89 260.241 232.339 260.691 232.339 261.246Z" fill="white"/>
<path d="M238.366 261.246C238.366 261.8 237.916 262.25 237.362 262.25C236.807 262.25 236.357 261.8 236.357 261.246C236.357 260.691 236.807 260.241 237.362 260.241C237.916 260.241 238.366 260.691 238.366 261.246Z" fill="white"/>
<path d="M244.393 261.246C244.393 261.8 243.943 262.25 243.388 262.25C242.834 262.25 242.384 261.8 242.384 261.246C242.384 260.691 242.834 260.241 243.388 260.241C243.943 260.241 244.393 260.691 244.393 261.246Z" fill="white"/>
<path d="M250.42 261.246C250.42 261.8 249.97 262.25 249.415 262.25C248.86 262.25 248.411 261.8 248.411 261.246C248.411 260.691 248.86 260.241 249.415 260.241C249.97 260.241 250.42 260.691 250.42 261.246Z" fill="white"/>
</g>
<g opacity="0.1">
<path d="M154.241 219.082C154.397 219.352 154.549 219.624 154.696 219.899C154.428 219.724 154.249 219.424 154.241 219.082Z" fill="white"/>
<path d="M148.741 212.147C149.209 212.586 149.664 213.041 150.103 213.509C149.933 213.822 149.601 214.036 149.219 214.036C148.664 214.036 148.214 213.586 148.214 213.031C148.214 212.649 148.428 212.317 148.741 212.147Z" fill="white"/>
<path d="M142.351 207.554C142.626 207.701 142.898 207.853 143.168 208.009C142.826 208.001 142.526 207.822 142.351 207.554Z" fill="white"/>
<path d="M113.082 208.009C113.352 207.853 113.624 207.701 113.899 207.554C113.724 207.822 113.424 208.001 113.082 208.009Z" fill="white"/>
<path d="M106.147 213.509C106.586 213.041 107.041 212.586 107.509 212.147C107.822 212.317 108.036 212.649 108.036 213.031C108.036 213.586 107.586 214.036 107.031 214.036C106.649 214.036 106.317 213.822 106.147 213.509Z" fill="white"/>
<path d="M101.554 219.899C101.701 219.624 101.853 219.352 102.009 219.082C102.001 219.424 101.822 219.724 101.554 219.899Z" fill="white"/>
<path d="M154.696 248.351C154.549 248.626 154.397 248.898 154.241 249.168C154.249 248.826 154.428 248.526 154.696 248.351Z" fill="white"/>
<path d="M150.103 254.741C149.933 254.428 149.601 254.214 149.219 254.214C148.664 254.214 148.214 254.664 148.214 255.219C148.214 255.601 148.428 255.933 148.741 256.103C149.209 255.664 149.664 255.209 150.103 254.741Z" fill="white"/>
<path d="M143.168 260.241C142.826 260.249 142.526 260.428 142.351 260.696C142.626 260.549 142.898 260.397 143.168 260.241Z" fill="white"/>
<path d="M113.899 260.696C113.724 260.428 113.424 260.249 113.082 260.241C113.352 260.397 113.624 260.549 113.899 260.696Z" fill="white"/>
<path d="M107.509 256.103C107.822 255.933 108.036 255.601 108.036 255.219C108.036 254.664 107.586 254.214 107.031 254.214C106.649 254.214 106.317 254.428 106.147 254.741C106.586 255.209 107.041 255.664 107.509 256.103Z" fill="white"/>
<path d="M102.009 249.168C102.001 248.826 101.822 248.526 101.554 248.351C101.701 248.626 101.853 248.898 102.009 249.168Z" fill="white"/>
<path d="M120.089 207.004C120.089 207.559 119.64 208.009 119.085 208.009C118.53 208.009 118.08 207.559 118.08 207.004C118.08 206.45 118.53 206 119.085 206C119.64 206 120.089 206.45 120.089 207.004Z" fill="white"/>
<path d="M126.116 207.004C126.116 207.559 125.666 208.009 125.112 208.009C124.557 208.009 124.107 207.559 124.107 207.004C124.107 206.45 124.557 206 125.112 206C125.666 206 126.116 206.45 126.116 207.004Z" fill="white"/>
<path d="M132.143 207.004C132.143 207.559 131.693 208.009 131.138 208.009C130.584 208.009 130.134 207.559 130.134 207.004C130.134 206.45 130.584 206 131.138 206C131.693 206 132.143 206.45 132.143 207.004Z" fill="white"/>
<path d="M138.17 207.004C138.17 207.559 137.72 208.009 137.165 208.009C136.61 208.009 136.161 207.559 136.161 207.004C136.161 206.45 136.61 206 137.165 206C137.72 206 138.17 206.45 138.17 207.004Z" fill="white"/>
<path d="M114.062 213.031C114.062 213.586 113.613 214.036 113.058 214.036C112.503 214.036 112.054 213.586 112.054 213.031C112.054 212.476 112.503 212.027 113.058 212.027C113.613 212.027 114.062 212.476 114.062 213.031Z" fill="white"/>
<path d="M120.089 213.031C120.089 213.586 119.64 214.036 119.085 214.036C118.53 214.036 118.08 213.586 118.08 213.031C118.08 212.476 118.53 212.027 119.085 212.027C119.64 212.027 120.089 212.476 120.089 213.031Z" fill="white"/>
<path d="M126.116 213.031C126.116 213.586 125.666 214.036 125.112 214.036C124.557 214.036 124.107 213.586 124.107 213.031C124.107 212.476 124.557 212.027 125.112 212.027C125.666 212.027 126.116 212.476 126.116 213.031Z" fill="white"/>
<path d="M132.143 213.031C132.143 213.586 131.693 214.036 131.138 214.036C130.584 214.036 130.134 213.586 130.134 213.031C130.134 212.476 130.584 212.027 131.138 212.027C131.693 212.027 132.143 212.476 132.143 213.031Z" fill="white"/>
<path d="M138.17 213.031C138.17 213.586 137.72 214.036 137.165 214.036C136.61 214.036 136.161 213.586 136.161 213.031C136.161 212.476 136.61 212.027 137.165 212.027C137.72 212.027 138.17 212.476 138.17 213.031Z" fill="white"/>
<path d="M144.196 213.031C144.196 213.586 143.747 214.036 143.192 214.036C142.637 214.036 142.187 213.586 142.187 213.031C142.187 212.476 142.637 212.027 143.192 212.027C143.747 212.027 144.196 212.476 144.196 213.031Z" fill="white"/>
<path d="M108.036 219.058C108.036 219.613 107.586 220.062 107.031 220.062C106.476 220.062 106.027 219.613 106.027 219.058C106.027 218.503 106.476 218.054 107.031 218.054C107.586 218.054 108.036 218.503 108.036 219.058Z" fill="white"/>
<path d="M114.062 219.058C114.062 219.613 113.613 220.062 113.058 220.062C112.503 220.062 112.054 219.613 112.054 219.058C112.054 218.503 112.503 218.054 113.058 218.054C113.613 218.054 114.062 218.503 114.062 219.058Z" fill="white"/>
<path d="M120.089 219.058C120.089 219.613 119.64 220.062 119.085 220.062C118.53 220.062 118.08 219.613 118.08 219.058C118.08 218.503 118.53 218.054 119.085 218.054C119.64 218.054 120.089 218.503 120.089 219.058Z" fill="white"/>
<path d="M126.116 219.058C126.116 219.613 125.666 220.062 125.112 220.062C124.557 220.062 124.107 219.613 124.107 219.058C124.107 218.503 124.557 218.054 125.112 218.054C125.666 218.054 126.116 218.503 126.116 219.058Z" fill="white"/>
<path d="M132.143 219.058C132.143 219.613 131.693 220.062 131.138 220.062C130.584 220.062 130.134 219.613 130.134 219.058C130.134 218.503 130.584 218.054 131.138 218.054C131.693 218.054 132.143 218.503 132.143 219.058Z" fill="white"/>
<path d="M138.17 219.058C138.17 219.613 137.72 220.062 137.165 220.062C136.61 220.062 136.161 219.613 136.161 219.058C136.161 218.503 136.61 218.054 137.165 218.054C137.72 218.054 138.17 218.503 138.17 219.058Z" fill="white"/>
<path d="M144.196 219.058C144.196 219.613 143.747 220.062 143.192 220.062C142.637 220.062 142.187 219.613 142.187 219.058C142.187 218.503 142.637 218.054 143.192 218.054C143.747 218.054 144.196 218.503 144.196 219.058Z" fill="white"/>
<path d="M150.223 219.058C150.223 219.613 149.773 220.062 149.219 220.062C148.664 220.062 148.214 219.613 148.214 219.058C148.214 218.503 148.664 218.054 149.219 218.054C149.773 218.054 150.223 218.503 150.223 219.058Z" fill="white"/>
<path d="M102.009 225.085C102.009 225.64 101.559 226.089 101.004 226.089C100.45 226.089 100 225.64 100 225.085C100 224.53 100.45 224.08 101.004 224.08C101.559 224.08 102.009 224.53 102.009 225.085Z" fill="white"/>
<path d="M108.036 225.085C108.036 225.64 107.586 226.089 107.031 226.089C106.476 226.089 106.027 225.64 106.027 225.085C106.027 224.53 106.476 224.08 107.031 224.08C107.586 224.08 108.036 224.53 108.036 225.085Z" fill="white"/>
<path d="M114.062 225.085C114.062 225.64 113.613 226.089 113.058 226.089C112.503 226.089 112.054 225.64 112.054 225.085C112.054 224.53 112.503 224.08 113.058 224.08C113.613 224.08 114.062 224.53 114.062 225.085Z" fill="white"/>
<path d="M120.089 225.085C120.089 225.64 119.64 226.089 119.085 226.089C118.53 226.089 118.08 225.64 118.08 225.085C118.08 224.53 118.53 224.08 119.085 224.08C119.64 224.08 120.089 224.53 120.089 225.085Z" fill="white"/>
<path d="M126.116 225.085C126.116 225.64 125.666 226.089 125.112 226.089C124.557 226.089 124.107 225.64 124.107 225.085C124.107 224.53 124.557 224.08 125.112 224.08C125.666 224.08 126.116 224.53 126.116 225.085Z" fill="white"/>
<path d="M132.143 225.085C132.143 225.64 131.693 226.089 131.138 226.089C130.584 226.089 130.134 225.64 130.134 225.085C130.134 224.53 130.584 224.08 131.138 224.08C131.693 224.08 132.143 224.53 132.143 225.085Z" fill="white"/>
<path d="M138.17 225.085C138.17 225.64 137.72 226.089 137.165 226.089C136.61 226.089 136.161 225.64 136.161 225.085C136.161 224.53 136.61 224.08 137.165 224.08C137.72 224.08 138.17 224.53 138.17 225.085Z" fill="white"/>
<path d="M144.196 225.085C144.196 225.64 143.747 226.089 143.192 226.089C142.637 226.089 142.187 225.64 142.187 225.085C142.187 224.53 142.637 224.08 143.192 224.08C143.747 224.08 144.196 224.53 144.196 225.085Z" fill="white"/>
<path d="M150.223 225.085C150.223 225.64 149.773 226.089 149.219 226.089C148.664 226.089 148.214 225.64 148.214 225.085C148.214 224.53 148.664 224.08 149.219 224.08C149.773 224.08 150.223 224.53 150.223 225.085Z" fill="white"/>
<path d="M156.25 225.085C156.25 225.64 155.8 226.089 155.246 226.089C154.691 226.089 154.241 225.64 154.241 225.085C154.241 224.53 154.691 224.08 155.246 224.08C155.8 224.08 156.25 224.53 156.25 225.085Z" fill="white"/>
<path d="M102.009 231.112C102.009 231.666 101.559 232.116 101.004 232.116C100.45 232.116 100 231.666 100 231.112C100 230.557 100.45 230.107 101.004 230.107C101.559 230.107 102.009 230.557 102.009 231.112Z" fill="white"/>
<path d="M108.036 231.112C108.036 231.666 107.586 232.116 107.031 232.116C106.476 232.116 106.027 231.666 106.027 231.112C106.027 230.557 106.476 230.107 107.031 230.107C107.586 230.107 108.036 230.557 108.036 231.112Z" fill="white"/>
<path d="M114.062 231.112C114.062 231.666 113.613 232.116 113.058 232.116C112.503 232.116 112.054 231.666 112.054 231.112C112.054 230.557 112.503 230.107 113.058 230.107C113.613 230.107 114.062 230.557 114.062 231.112Z" fill="white"/>
<path d="M120.089 231.112C120.089 231.666 119.64 232.116 119.085 232.116C118.53 232.116 118.08 231.666 118.08 231.112C118.08 230.557 118.53 230.107 119.085 230.107C119.64 230.107 120.089 230.557 120.089 231.112Z" fill="white"/>
<path d="M126.116 231.112C126.116 231.666 125.666 232.116 125.112 232.116C124.557 232.116 124.107 231.666 124.107 231.112C124.107 230.557 124.557 230.107 125.112 230.107C125.666 230.107 126.116 230.557 126.116 231.112Z" fill="white"/>
<path d="M132.143 231.112C132.143 231.666 131.693 232.116 131.138 232.116C130.584 232.116 130.134 231.666 130.134 231.112C130.134 230.557 130.584 230.107 131.138 230.107C131.693 230.107 132.143 230.557 132.143 231.112Z" fill="white"/>
<path d="M138.17 231.112C138.17 231.666 137.72 232.116 137.165 232.116C136.61 232.116 136.161 231.666 136.161 231.112C136.161 230.557 136.61 230.107 137.165 230.107C137.72 230.107 138.17 230.557 138.17 231.112Z" fill="white"/>
<path d="M144.196 231.112C144.196 231.666 143.747 232.116 143.192 232.116C142.637 232.116 142.187 231.666 142.187 231.112C142.187 230.557 142.637 230.107 143.192 230.107C143.747 230.107 144.196 230.557 144.196 231.112Z" fill="white"/>
<path d="M150.223 231.112C150.223 231.666 149.773 232.116 149.219 232.116C148.664 232.116 148.214 231.666 148.214 231.112C148.214 230.557 148.664 230.107 149.219 230.107C149.773 230.107 150.223 230.557 150.223 231.112Z" fill="white"/>
<path d="M156.25 231.112C156.25 231.666 155.8 232.116 155.246 232.116C154.691 232.116 154.241 231.666 154.241 231.112C154.241 230.557 154.691 230.107 155.246 230.107C155.8 230.107 156.25 230.557 156.25 231.112Z" fill="white"/>
<path d="M102.009 237.138C102.009 237.693 101.559 238.143 101.004 238.143C100.45 238.143 100 237.693 100 237.138C100 236.584 100.45 236.134 101.004 236.134C101.559 236.134 102.009 236.584 102.009 237.138Z" fill="white"/>
<path d="M108.036 237.138C108.036 237.693 107.586 238.143 107.031 238.143C106.476 238.143 106.027 237.693 106.027 237.138C106.027 236.584 106.476 236.134 107.031 236.134C107.586 236.134 108.036 236.584 108.036 237.138Z" fill="white"/>
<path d="M114.062 237.138C114.062 237.693 113.613 238.143 113.058 238.143C112.503 238.143 112.054 237.693 112.054 237.138C112.054 236.584 112.503 236.134 113.058 236.134C113.613 236.134 114.062 236.584 114.062 237.138Z" fill="white"/>
<path d="M120.089 237.138C120.089 237.693 119.64 238.143 119.085 238.143C118.53 238.143 118.08 237.693 118.08 237.138C118.08 236.584 118.53 236.134 119.085 236.134C119.64 236.134 120.089 236.584 120.089 237.138Z" fill="white"/>
<path d="M126.116 237.138C126.116 237.693 125.666 238.143 125.112 238.143C124.557 238.143 124.107 237.693 124.107 237.138C124.107 236.584 124.557 236.134 125.112 236.134C125.666 236.134 126.116 236.584 126.116 237.138Z" fill="white"/>
<path d="M132.143 237.138C132.143 237.693 131.693 238.143 131.138 238.143C130.584 238.143 130.134 237.693 130.134 237.138C130.134 236.584 130.584 236.134 131.138 236.134C131.693 236.134 132.143 236.584 132.143 237.138Z" fill="white"/>
<path d="M138.17 237.138C138.17 237.693 137.72 238.143 137.165 238.143C136.61 238.143 136.161 237.693 136.161 237.138C136.161 236.584 136.61 236.134 137.165 236.134C137.72 236.134 138.17 236.584 138.17 237.138Z" fill="white"/>
<path d="M144.196 237.138C144.196 237.693 143.747 238.143 143.192 238.143C142.637 238.143 142.187 237.693 142.187 237.138C142.187 236.584 142.637 236.134 143.192 236.134C143.747 236.134 144.196 236.584 144.196 237.138Z" fill="white"/>
<path d="M150.223 237.138C150.223 237.693 149.773 238.143 149.219 238.143C148.664 238.143 148.214 237.693 148.214 237.138C148.214 236.584 148.664 236.134 149.219 236.134C149.773 236.134 150.223 236.584 150.223 237.138Z" fill="white"/>
<path d="M156.25 237.138C156.25 237.693 155.8 238.143 155.246 238.143C154.691 238.143 154.241 237.693 154.241 237.138C154.241 236.584 154.691 236.134 155.246 236.134C155.8 236.134 156.25 236.584 156.25 237.138Z" fill="white"/>
<path d="M102.009 243.165C102.009 243.72 101.559 244.17 101.004 244.17C100.45 244.17 100 243.72 100 243.165C100 242.61 100.45 242.161 101.004 242.161C101.559 242.161 102.009 242.61 102.009 243.165Z" fill="white"/>
<path d="M108.036 243.165C108.036 243.72 107.586 244.17 107.031 244.17C106.476 244.17 106.027 243.72 106.027 243.165C106.027 242.61 106.476 242.161 107.031 242.161C107.586 242.161 108.036 242.61 108.036 243.165Z" fill="white"/>
<path d="M114.062 243.165C114.062 243.72 113.613 244.17 113.058 244.17C112.503 244.17 112.054 243.72 112.054 243.165C112.054 242.61 112.503 242.161 113.058 242.161C113.613 242.161 114.062 242.61 114.062 243.165Z" fill="white"/>
<path d="M120.089 243.165C120.089 243.72 119.64 244.17 119.085 244.17C118.53 244.17 118.08 243.72 118.08 243.165C118.08 242.61 118.53 242.161 119.085 242.161C119.64 242.161 120.089 242.61 120.089 243.165Z" fill="white"/>
<path d="M126.116 243.165C126.116 243.72 125.666 244.17 125.112 244.17C124.557 244.17 124.107 243.72 124.107 243.165C124.107 242.61 124.557 242.161 125.112 242.161C125.666 242.161 126.116 242.61 126.116 243.165Z" fill="white"/>
<path d="M132.143 243.165C132.143 243.72 131.693 244.17 131.138 244.17C130.584 244.17 130.134 243.72 130.134 243.165C130.134 242.61 130.584 242.161 131.138 242.161C131.693 242.161 132.143 242.61 132.143 243.165Z" fill="white"/>
<path d="M138.17 243.165C138.17 243.72 137.72 244.17 137.165 244.17C136.61 244.17 136.161 243.72 136.161 243.165C136.161 242.61 136.61 242.161 137.165 242.161C137.72 242.161 138.17 242.61 138.17 243.165Z" fill="white"/>
<path d="M144.196 243.165C144.196 243.72 143.747 244.17 143.192 244.17C142.637 244.17 142.187 243.72 142.187 243.165C142.187 242.61 142.637 242.161 143.192 242.161C143.747 242.161 144.196 242.61 144.196 243.165Z" fill="white"/>
<path d="M150.223 243.165C150.223 243.72 149.773 244.17 149.219 244.17C148.664 244.17 148.214 243.72 148.214 243.165C148.214 242.61 148.664 242.161 149.219 242.161C149.773 242.161 150.223 242.61 150.223 243.165Z" fill="white"/>
<path d="M156.25 243.165C156.25 243.72 155.8 244.17 155.246 244.17C154.691 244.17 154.241 243.72 154.241 243.165C154.241 242.61 154.691 242.161 155.246 242.161C155.8 242.161 156.25 242.61 156.25 243.165Z" fill="white"/>
<path d="M108.036 249.192C108.036 249.747 107.586 250.196 107.031 250.196C106.476 250.196 106.027 249.747 106.027 249.192C106.027 248.637 106.476 248.187 107.031 248.187C107.586 248.187 108.036 248.637 108.036 249.192Z" fill="white"/>
<path d="M114.062 249.192C114.062 249.747 113.613 250.196 113.058 250.196C112.503 250.196 112.054 249.747 112.054 249.192C112.054 248.637 112.503 248.187 113.058 248.187C113.613 248.187 114.062 248.637 114.062 249.192Z" fill="white"/>
<path d="M120.089 249.192C120.089 249.747 119.64 250.196 119.085 250.196C118.53 250.196 118.08 249.747 118.08 249.192C118.08 248.637 118.53 248.187 119.085 248.187C119.64 248.187 120.089 248.637 120.089 249.192Z" fill="white"/>
<path d="M126.116 249.192C126.116 249.747 125.666 250.196 125.112 250.196C124.557 250.196 124.107 249.747 124.107 249.192C124.107 248.637 124.557 248.187 125.112 248.187C125.666 248.187 126.116 248.637 126.116 249.192Z" fill="white"/>
<path d="M132.143 249.192C132.143 249.747 131.693 250.196 131.138 250.196C130.584 250.196 130.134 249.747 130.134 249.192C130.134 248.637 130.584 248.187 131.138 248.187C131.693 248.187 132.143 248.637 132.143 249.192Z" fill="white"/>
<path d="M138.17 249.192C138.17 249.747 137.72 250.196 137.165 250.196C136.61 250.196 136.161 249.747 136.161 249.192C136.161 248.637 136.61 248.187 137.165 248.187C137.72 248.187 138.17 248.637 138.17 249.192Z" fill="white"/>
<path d="M144.196 249.192C144.196 249.747 143.747 250.196 143.192 250.196C142.637 250.196 142.187 249.747 142.187 249.192C142.187 248.637 142.637 248.187 143.192 248.187C143.747 248.187 144.196 248.637 144.196 249.192Z" fill="white"/>
<path d="M150.223 249.192C150.223 249.747 149.773 250.196 149.219 250.196C148.664 250.196 148.214 249.747 148.214 249.192C148.214 248.637 148.664 248.187 149.219 248.187C149.773 248.187 150.223 248.637 150.223 249.192Z" fill="white"/>
<path d="M114.062 255.219C114.062 255.773 113.613 256.223 113.058 256.223C112.503 256.223 112.054 255.773 112.054 255.219C112.054 254.664 112.503 254.214 113.058 254.214C113.613 254.214 114.062 254.664 114.062 255.219Z" fill="white"/>
<path d="M120.089 255.219C120.089 255.773 119.64 256.223 119.085 256.223C118.53 256.223 118.08 255.773 118.08 255.219C118.08 254.664 118.53 254.214 119.085 254.214C119.64 254.214 120.089 254.664 120.089 255.219Z" fill="white"/>
<path d="M126.116 255.219C126.116 255.773 125.666 256.223 125.112 256.223C124.557 256.223 124.107 255.773 124.107 255.219C124.107 254.664 124.557 254.214 125.112 254.214C125.666 254.214 126.116 254.664 126.116 255.219Z" fill="white"/>
<path d="M132.143 255.219C132.143 255.773 131.693 256.223 131.138 256.223C130.584 256.223 130.134 255.773 130.134 255.219C130.134 254.664 130.584 254.214 131.138 254.214C131.693 254.214 132.143 254.664 132.143 255.219Z" fill="white"/>
<path d="M138.17 255.219C138.17 255.773 137.72 256.223 137.165 256.223C136.61 256.223 136.161 255.773 136.161 255.219C136.161 254.664 136.61 254.214 137.165 254.214C137.72 254.214 138.17 254.664 138.17 255.219Z" fill="white"/>
<path d="M144.196 255.219C144.196 255.773 143.747 256.223 143.192 256.223C142.637 256.223 142.187 255.773 142.187 255.219C142.187 254.664 142.637 254.214 143.192 254.214C143.747 254.214 144.196 254.664 144.196 255.219Z" fill="white"/>
<path d="M120.089 261.246C120.089 261.8 119.64 262.25 119.085 262.25C118.53 262.25 118.08 261.8 118.08 261.246C118.08 260.691 118.53 260.241 119.085 260.241C119.64 260.241 120.089 260.691 120.089 261.246Z" fill="white"/>
<path d="M126.116 261.246C126.116 261.8 125.666 262.25 125.112 262.25C124.557 262.25 124.107 261.8 124.107 261.246C124.107 260.691 124.557 260.241 125.112 260.241C125.666 260.241 126.116 260.691 126.116 261.246Z" fill="white"/>
<path d="M132.143 261.246C132.143 261.8 131.693 262.25 131.138 262.25C130.584 262.25 130.134 261.8 130.134 261.246C130.134 260.691 130.584 260.241 131.138 260.241C131.693 260.241 132.143 260.691 132.143 261.246Z" fill="white"/>
<path d="M138.17 261.246C138.17 261.8 137.72 262.25 137.165 262.25C136.61 262.25 136.161 261.8 136.161 261.246C136.161 260.691 136.61 260.241 137.165 260.241C137.72 260.241 138.17 260.691 138.17 261.246Z" fill="white"/>
</g>
<path fill-rule="evenodd" clip-rule="evenodd" d="M58.2217 6.10352e-06C102.55 6.10352e-06 149.902 6.10352e-06 190.015 6.10352e-06C207.613 134.6 247.004 225.963 248.633 279.6C250.277 333.725 247.408 390.451 218.729 432C175.856 432 126.632 432 51.2087 432C51.2087 406.2 45.3865 264.4 0 169.4C0 120.4 4.11733e-06 161.6 2.01908e-06 98C0 36.8 1.51431e-06 52 0 0C27.523 0 13.8938 6.10352e-06 58.2217 6.10352e-06Z" fill="#0061AA" fill-opacity="0.26"/>
<g opacity="0.1">
<ellipse rx="1.86194" ry="1.85758" transform="matrix(-4.37114e-08 -1 -1 4.37114e-08 0.000395217 1.862)" fill="white"/>
<ellipse rx="1.86194" ry="1.85758" transform="matrix(-4.37114e-08 -1 -1 4.37114e-08 9.52017 1.86206)" fill="white"/>
<ellipse rx="1.86194" ry="1.85758" transform="matrix(-4.37114e-08 -1 -1 4.37114e-08 0.000395217 11.4042)" fill="white"/>
<ellipse rx="1.86194" ry="1.85758" transform="matrix(-4.37114e-08 -1 -1 4.37114e-08 9.52017 11.4042)" fill="white"/>
<ellipse rx="1.86194" ry="1.85758" transform="matrix(-4.37114e-08 -1 -1 4.37114e-08 0.000395217 20.9468)" fill="white"/>
<ellipse rx="1.86194" ry="1.85758" transform="matrix(-4.37114e-08 -1 -1 4.37114e-08 -0.000337205 30.4892)" fill="white"/>
<ellipse rx="1.86194" ry="1.85758" transform="matrix(-4.37114e-08 -1 -1 4.37114e-08 9.52041 20.9468)" fill="white"/>
<ellipse rx="1.86194" ry="1.85758" transform="matrix(-4.37114e-08 -1 -1 4.37114e-08 9.51993 30.4892)" fill="white"/>
<ellipse rx="1.86194" ry="1.85758" transform="matrix(-4.37114e-08 -1 -1 4.37114e-08 19.0403 11.4042)" fill="white"/>
<ellipse rx="1.86194" ry="1.85758" transform="matrix(-4.37114e-08 -1 -1 4.37114e-08 19.0403 20.9468)" fill="white"/>
<ellipse rx="1.86194" ry="1.85758" transform="matrix(-4.37114e-08 -1 -1 4.37114e-08 19.0399 30.4892)" fill="white"/>
</g>
<g opacity="0.1">
<ellipse rx="1.86194" ry="1.85758" transform="matrix(-4.37114e-08 -1 -1 4.37114e-08 19.0399 39.9634)" fill="white"/>
<ellipse rx="1.86194" ry="1.85758" transform="matrix(-4.37114e-08 -1 -1 4.37114e-08 -0.000337205 39.9634)" fill="white"/>
<ellipse rx="1.86194" ry="1.85758" transform="matrix(-4.37114e-08 -1 -1 4.37114e-08 38.0799 39.9634)" fill="white"/>
<ellipse rx="1.86194" ry="1.85758" transform="matrix(-4.37114e-08 -1 -1 4.37114e-08 28.5598 39.9634)" fill="white"/>
<ellipse rx="1.86194" ry="1.85758" transform="matrix(-4.37114e-08 -1 -1 4.37114e-08 9.51993 39.9634)" fill="white"/>
<ellipse rx="1.86194" ry="1.85758" transform="matrix(-4.37114e-08 -1 -1 4.37114e-08 -0.000337205 59.0482)" fill="white"/>
<ellipse rx="1.86194" ry="1.85758" transform="matrix(-4.37114e-08 -1 -1 4.37114e-08 9.51993 59.0482)" fill="white"/>
<ellipse rx="1.86194" ry="1.85758" transform="matrix(-4.37114e-08 -1 -1 4.37114e-08 19.0399 49.5056)" fill="white"/>
<ellipse rx="1.86194" ry="1.85758" transform="matrix(-4.37114e-08 -1 -1 4.37114e-08 -0.000337205 49.5056)" fill="white"/>
<ellipse rx="1.86194" ry="1.85758" transform="matrix(-4.37114e-08 -1 -1 4.37114e-08 28.5598 49.5056)" fill="white"/>
<ellipse rx="1.86194" ry="1.85758" transform="matrix(-4.37114e-08 -1 -1 4.37114e-08 9.51993 49.5056)" fill="white"/>
<ellipse rx="1.86194" ry="1.85758" transform="matrix(-4.37114e-08 -1 -1 4.37114e-08 -0.000337205 68.5906)" fill="white"/>
<ellipse rx="1.86194" ry="1.85758" transform="matrix(-4.37114e-08 -1 -1 4.37114e-08 9.51944 68.5906)" fill="white"/>
<ellipse rx="1.86194" ry="1.85758" transform="matrix(-4.37114e-08 -1 -1 4.37114e-08 19.0397 59.0482)" fill="white"/>
<ellipse rx="1.86194" ry="1.85758" transform="matrix(-4.37114e-08 -1 -1 4.37114e-08 19.0392 68.5906)" fill="white"/>
<ellipse rx="1.86194" ry="1.85758" transform="matrix(-4.37114e-08 -1 -1 4.37114e-08 28.56 59.0482)" fill="white"/>
<ellipse rx="1.86194" ry="1.85758" transform="matrix(-4.37114e-08 -1 -1 4.37114e-08 38.0799 49.5056)" fill="white"/>
</g>
<path d="M273 19.4066C273 17.5845 273.671 16.0611 275.012 14.8367C276.353 13.6122 278.043 13 280.083 13C282.186 13 283.917 13.5513 285.277 14.6539L283.69 16.9345C283.3 16.6095 282.796 16.3368 282.179 16.1163C281.562 15.8957 280.971 15.7855 280.404 15.7855C279.069 15.7855 278.071 16.1192 277.41 16.7865C276.749 17.4539 276.419 18.2924 276.419 19.3022C276.419 20.4512 276.793 21.3681 277.542 22.0528C278.292 22.7376 279.208 23.08 280.291 23.08C281.273 23.08 282.186 22.7782 283.029 22.1747V21.2172H281.122V18.6232H285.957V25.6565H283.199V25.3084L283.218 24.7861H283.18C282.778 25.1111 282.252 25.3722 281.603 25.5695C280.955 25.7668 280.297 25.8655 279.63 25.8655C277.816 25.8655 276.258 25.2793 274.955 24.1071C273.652 22.9349 273 21.3681 273 19.4066ZM288.191 24.5685C287.133 23.7038 286.604 22.5809 286.604 21.1998C286.604 19.8186 287.133 18.687 288.191 17.805C289.248 16.9229 290.552 16.4819 292.1 16.4819C293.662 16.4819 294.974 16.92 296.038 17.7963C297.102 18.6725 297.634 19.807 297.634 21.1998C297.634 22.5809 297.106 23.7038 296.048 24.5685C294.99 25.4331 293.681 25.8655 292.119 25.8655C290.558 25.8655 289.248 25.4331 288.191 24.5685ZM289.909 21.1998C289.909 21.8497 290.123 22.372 290.552 22.7666C290.98 23.1612 291.502 23.3585 292.119 23.3585C292.736 23.3585 293.259 23.1612 293.687 22.7666C294.115 22.372 294.329 21.8497 294.329 21.1998C294.329 20.5382 294.115 20.0043 293.687 19.5981C293.259 19.1919 292.736 18.9888 292.119 18.9888C291.502 18.9888 290.98 19.1919 290.552 19.5981C290.123 20.0043 289.909 20.5382 289.909 21.1998ZM299.793 26.2311C300.649 26.6141 301.562 26.8056 302.531 26.8056C304.03 26.8056 304.779 26.2311 304.779 25.082V24.7861L304.798 24.4553H304.76C304.193 25.082 303.381 25.3954 302.323 25.3954C300.938 25.3954 299.862 24.9544 299.094 24.0723C298.326 23.1902 297.942 22.1283 297.942 20.8864C297.942 19.6562 298.319 18.6145 299.075 17.7614C299.83 16.9084 300.907 16.4819 302.305 16.4819C303.438 16.4819 304.319 16.772 304.949 17.3523H305.006C304.993 17.2827 304.987 17.213 304.987 17.1434V16.6908H308.046V24.8383C308.046 25.6275 307.889 26.3181 307.574 26.91C307.259 27.5019 306.831 27.9691 306.29 28.3115C305.748 28.6538 305.166 28.9063 304.543 29.0688C303.919 29.2313 303.255 29.3125 302.55 29.3125C301.203 29.3125 299.975 29.0456 298.867 28.5117L299.793 26.2311ZM301.228 20.782C301.228 21.3855 301.385 21.8874 301.7 22.2879C302.015 22.6883 302.481 22.8885 303.098 22.8885C303.602 22.8885 304.02 22.7405 304.354 22.4445C304.688 22.1486 304.854 21.6408 304.854 20.9212C304.854 19.6329 304.225 18.9888 302.966 18.9888C302.412 18.9888 301.983 19.1542 301.681 19.485C301.379 19.8157 301.228 20.2481 301.228 20.782ZM310.431 24.5685C309.373 23.7038 308.845 22.5809 308.845 21.1998C308.845 19.8186 309.373 18.687 310.431 17.805C311.489 16.9229 312.792 16.4819 314.341 16.4819C315.902 16.4819 317.215 16.92 318.279 17.7963C319.343 18.6725 319.875 19.807 319.875 21.1998C319.875 22.5809 319.346 23.7038 318.288 24.5685C317.231 25.4331 315.921 25.8655 314.36 25.8655C312.798 25.8655 311.489 25.4331 310.431 24.5685ZM312.15 21.1998C312.15 21.8497 312.364 22.372 312.792 22.7666C313.22 23.1612 313.743 23.3585 314.36 23.3585C314.977 23.3585 315.499 23.1612 315.927 22.7666C316.356 22.372 316.57 21.8497 316.57 21.1998C316.57 20.5382 316.356 20.0043 315.927 19.5981C315.499 19.1919 314.977 18.9888 314.36 18.9888C313.743 18.9888 313.22 19.1919 312.792 19.5981C312.364 20.0043 312.15 20.5382 312.15 21.1998Z" fill="white" fill-opacity="0.32"/>
<rect x="379.116" y="113.518" width="7.07043" height="59.1164" transform="rotate(90 379.116 113.518)" fill="white" fill-opacity="0.1"/>
<rect x="379.116" y="154.07" width="7.07043" height="59.1164" transform="rotate(90 379.116 154.07)" fill="white" fill-opacity="0.1"/>
<rect x="379.116" y="127.035" width="7.07043" height="59.1164" transform="rotate(90 379.116 127.035)" fill="white" fill-opacity="0.1"/>
<rect x="379.116" y="100" width="7.07043" height="59.1164" transform="rotate(90 379.116 100)" fill="white" fill-opacity="0.1"/>
<rect x="379.116" y="167.588" width="7.07043" height="59.1164" transform="rotate(90 379.116 167.588)" fill="white" fill-opacity="0.1"/>
<rect x="379.116" y="140.553" width="7.07043" height="59.1164" transform="rotate(90 379.116 140.553)" fill="white" fill-opacity="0.1"/>
<rect x="379.116" y="181.105" width="7.07043" height="59.1164" transform="rotate(90 379.116 181.105)" fill="white" fill-opacity="0.1"/>
</g>
<defs>
<linearGradient id="paint0_linear_3925_308707" x1="180" y1="-17.9769" x2="180" y2="405.095" gradientUnits="userSpaceOnUse">
<stop stop-color="#0DD3FF"/>
<stop offset="1" stop-color="#000744"/>
</linearGradient>
<radialGradient id="paint1_radial_3925_308707" cx="0" cy="0" r="1" gradientUnits="userSpaceOnUse" gradientTransform="translate(-37 517.05) rotate(-103.715) scale(276.257 462.116)">
<stop stop-color="#EA6CFF" stop-opacity="0.9"/>
<stop offset="1" stop-color="#EB6FFF" stop-opacity="0"/>
</radialGradient>
<radialGradient id="paint2_radial_3925_308707" cx="0" cy="0" r="1" gradientUnits="userSpaceOnUse" gradientTransform="translate(441.5 39.96) rotate(142.976) scale(303.113 315.128)">
<stop stop-color="#EA6CFF" stop-opacity="0.9"/>
<stop offset="1" stop-color="#EB6FFF" stop-opacity="0"/>
</radialGradient>
<clipPath id="clip0_3925_308707">
<rect width="360" height="432" fill="white"/>
</clipPath>
</defs>
</svg>
