<svg width="134" height="134" viewBox="0 0 134 134" fill="none" xmlns="http://www.w3.org/2000/svg">
<rect width="133.136" height="133.136" rx="29.4598" fill="#1E3F82"/>
<rect width="133.136" height="133.136" rx="29.4598" fill="url(#paint0_radial_2985_240777)" fill-opacity="0.55"/>
<rect width="133.136" height="133.136" rx="29.4598" fill="url(#paint1_radial_2985_240777)" fill-opacity="0.25"/>
<path d="M29.1948 66.431C29.1948 56.4374 32.9154 48.0824 40.3561 41.3669C47.797 34.6513 57.1764 31.2935 68.4948 31.2935C80.1628 31.2935 89.7693 34.3172 97.3151 40.3642L88.5119 52.8724C86.3458 51.0902 83.5514 49.5942 80.1279 48.3848C76.7043 47.1752 73.4205 46.5706 70.2766 46.5706C62.8707 46.5706 57.3337 48.4008 53.6658 52.0609C49.9977 55.7211 48.1636 60.3201 48.1636 65.8582C48.1636 72.16 50.2423 77.1888 54.3995 80.9445C58.5563 84.7001 63.6392 86.5778 69.6478 86.5778C75.0973 86.5778 80.1628 84.923 84.8438 81.6126V76.3612H74.259V62.1343H101.088V100.709H85.7871V98.7997L85.8919 95.9351H85.682C83.4463 97.7175 80.5294 99.1499 76.9314 100.232C73.3332 101.314 69.6826 101.855 65.9798 101.855C55.9188 101.855 47.2729 98.6404 40.0418 92.2115C32.8105 85.7823 29.1948 77.1888 29.1948 66.431Z" fill="white"/>
<defs>
<radialGradient id="paint0_radial_2985_240777" cx="0" cy="0" r="1" gradientUnits="userSpaceOnUse" gradientTransform="translate(9.31948 -9.3195) rotate(58.3195) scale(136.892 139.781)">
<stop stop-color="#0DFFC5"/>
<stop offset="1" stop-color="white" stop-opacity="0"/>
</radialGradient>
<radialGradient id="paint1_radial_2985_240777" cx="0" cy="0" r="1" gradientUnits="userSpaceOnUse" gradientTransform="translate(133.136) rotate(135.535) scale(151.103)">
<stop stop-color="#14FF00"/>
<stop offset="1" stop-color="white" stop-opacity="0"/>
<stop offset="1" stop-color="#FCFEFF" stop-opacity="0"/>
</radialGradient>
</defs>
</svg>
