<svg width="635" height="156" viewBox="0 0 635 156" fill="none" xmlns="http://www.w3.org/2000/svg">
<path d="M634.186 145.06C634.771 144.475 634.771 143.525 634.186 142.939L624.64 133.393C624.054 132.807 623.104 132.807 622.518 133.393C621.933 133.979 621.933 134.929 622.518 135.514L631.004 144L622.518 152.485C621.933 153.071 621.933 154.021 622.518 154.606C623.104 155.192 624.054 155.192 624.64 154.606L634.186 145.06ZM57.875 0.374756H28.25V3.37476H57.875V0.374756ZM0.5 28.1248V117.75H3.5V28.1248H0.5ZM28.25 145.5H633.125V142.5H28.25V145.5ZM0.5 117.75C0.5 133.076 12.9241 145.5 28.25 145.5V142.5C14.581 142.5 3.5 131.419 3.5 117.75H0.5ZM28.25 0.374756C12.9241 0.374756 0.5 12.7989 0.5 28.1248H3.5C3.5 14.4557 14.581 3.37476 28.25 3.37476V0.374756Z" fill="#004E89"/>
</svg>
