<svg width="617" height="188" viewBox="0 0 617 188" fill="none" xmlns="http://www.w3.org/2000/svg">
<path d="M0.93934 174.939C0.353554 175.525 0.353554 176.475 0.93934 177.061L10.4853 186.606C11.0711 187.192 12.0208 187.192 12.6066 186.606C13.1924 186.021 13.1924 185.071 12.6066 184.485L4.12132 176L12.6066 167.515C13.1924 166.929 13.1924 165.979 12.6066 165.393C12.0208 164.807 11.0711 164.807 10.4853 165.393L0.93934 174.939ZM557.375 3.49988H588.875V0.499878H557.375V3.49988ZM613.625 28.2499V149.75H616.625V28.2499H613.625ZM588.875 174.5H308.562V177.5H588.875V174.5ZM308.562 174.5H2V177.5H308.562V174.5ZM613.625 149.75C613.625 163.419 602.544 174.5 588.875 174.5V177.5C604.201 177.5 616.625 165.076 616.625 149.75H613.625ZM588.875 3.49988C602.544 3.49988 613.625 14.5808 613.625 28.2499H616.625C616.625 12.924 604.201 0.499878 588.875 0.499878V3.49988Z" fill="#004E89"/>
</svg>
