<svg width="84" height="84" viewBox="0 0 84 84" fill="none" xmlns="http://www.w3.org/2000/svg">
<circle cx="41.7033" cy="41.5854" r="40.1188" fill="#004E89"/>
<g filter="url(#filter0_d_3353_241103)">
<circle cx="42.0781" cy="41.9602" r="28.4956" fill="white"/>
</g>
<path fill-rule="evenodd" clip-rule="evenodd" d="M28.749 44.5494C32.57 44.5494 35.6674 47.6629 35.6674 51.5037C35.6674 55.3444 32.57 58.4579 28.749 58.4579C24.928 58.4579 21.8306 55.3444 21.8306 51.5037C21.8306 47.6629 24.928 44.5494 28.749 44.5494ZM28.749 46.2251C31.6493 46.2251 34.0003 48.5884 34.0003 51.5037C34.0003 54.4189 31.6493 56.7822 28.749 56.7822C25.8487 56.7822 23.4977 54.4189 23.4977 51.5037C23.4977 48.5884 25.8487 46.2251 28.749 46.2251Z" fill="#343434"/>
<path fill-rule="evenodd" clip-rule="evenodd" d="M54.656 44.5494C58.477 44.5494 61.5744 47.6629 61.5744 51.5037C61.5744 55.3444 58.477 58.4579 54.656 58.4579C50.835 58.4579 47.7376 55.3444 47.7376 51.5037C47.7376 47.6629 50.835 44.5494 54.656 44.5494ZM54.656 46.2251C57.5563 46.2251 59.9073 48.5884 59.9073 51.5037C59.9073 54.4189 57.5563 56.7822 54.656 56.7822C51.7557 56.7822 49.4047 54.4189 49.4047 51.5037C49.4047 48.5884 51.7557 46.2251 54.656 46.2251Z" fill="#343434"/>
<path d="M28.749 54.8594C30.5927 54.8594 32.0874 53.357 32.0874 51.5037C32.0874 49.6504 30.5927 48.148 28.749 48.148C26.9053 48.148 25.4106 49.6504 25.4106 51.5037C25.4106 53.357 26.9053 54.8594 28.749 54.8594Z" fill="#343434"/>
<path d="M54.656 54.8594C56.4997 54.8594 57.9944 53.357 57.9944 51.5037C57.9944 49.6504 56.4997 48.148 54.656 48.148C52.8123 48.148 51.3176 49.6504 51.3176 51.5037C51.3176 53.357 52.8123 54.8594 54.656 54.8594Z" fill="#343434"/>
<path d="M43.5915 50.3898H28.2543V52.9034H43.5915V50.3898Z" fill="#343434"/>
<path d="M43.6067 52.9002L51.6452 39.7707L49.5156 38.4533L41.4771 51.5828L43.6067 52.9002Z" fill="#343434"/>
<path d="M55.8378 51.3868L50.5389 36.9195L48.1923 37.7879L53.4911 52.2552L55.8378 51.3868Z" fill="#343434"/>
<path fill-rule="evenodd" clip-rule="evenodd" d="M34.7367 41.7289H50.176L44.5605 50.3073L36.4871 51.1377L34.7367 41.7289Z" fill="#343434"/>
<path fill-rule="evenodd" clip-rule="evenodd" d="M23.6924 41.7498L34.7367 41.7289L36.2789 43.3416H23.6924V41.7498Z" fill="#343434"/>
<path fill-rule="evenodd" clip-rule="evenodd" d="M44.0125 35.5918L50.6315 36.9734L50.3069 38.545L43.6878 37.1635L44.0125 35.5918Z" fill="#343434"/>
<path fill-rule="evenodd" clip-rule="evenodd" d="M40.7797 24.7131C42.4139 24.7131 43.7388 26.0448 43.7388 27.6875C43.7388 29.3301 42.4139 30.6618 40.7797 30.6618C39.1456 30.6618 37.8207 29.3301 37.8207 27.6875C37.8207 26.0448 39.1456 24.7131 40.7797 24.7131Z" fill="#343434"/>
<path fill-rule="evenodd" clip-rule="evenodd" d="M30.1691 30.3513L37.7004 31.5622L36.2489 40.6839L28.7177 39.473L30.1691 30.3513Z" fill="#343434"/>
<path fill-rule="evenodd" clip-rule="evenodd" d="M37.7116 30.564C35.5688 33.2533 35.6438 37.6698 35.4763 41.8329C36.5654 42.1287 38.7168 42.2453 40.0465 41.8498C39.6614 37.7136 39.6324 34.8205 40.581 31.2092C39.474 30.9603 38.7239 30.7917 37.7116 30.564Z" fill="#343434"/>
<path fill-rule="evenodd" clip-rule="evenodd" d="M38.2727 42.9099L38.6713 40.2652L46.1374 42.6331L45.3699 45.0781L38.2727 42.9099Z" fill="#343434"/>
<path fill-rule="evenodd" clip-rule="evenodd" d="M43.4999 42.5985L46.0877 42.6574L45.4023 49.4844L43.5601 50.4677L43.4999 42.5985Z" fill="#343434"/>
<path fill-rule="evenodd" clip-rule="evenodd" d="M37.1371 42.0784L40.0465 41.8498L43.5638 47.5412L41.4049 48.9066L37.1371 42.0784Z" fill="#343434"/>
<path fill-rule="evenodd" clip-rule="evenodd" d="M37.639 32.4347L39.6258 31.8677L41.5657 36.8159L39.8473 38.1044L37.639 32.4347Z" fill="#343434"/>
<path fill-rule="evenodd" clip-rule="evenodd" d="M46.5686 36.6L46.4486 38.0958L39.1665 38.4448L39.8464 36.3681L46.5686 36.6Z" fill="#343434"/>
<path fill-rule="evenodd" clip-rule="evenodd" d="M34.4161 41.9389L38.4506 44.871L36.7642 47.2155L31.9129 43.2479L34.4161 41.9389Z" fill="#343434"/>
<defs>
<filter id="filter0_d_3353_241103" x="0.834486" y="0.716566" width="82.4873" height="82.4873" filterUnits="userSpaceOnUse" color-interpolation-filters="sRGB">
<feFlood flood-opacity="0" result="BackgroundImageFix"/>
<feColorMatrix in="SourceAlpha" type="matrix" values="0 0 0 0 0 0 0 0 0 0 0 0 0 0 0 0 0 0 127 0" result="hardAlpha"/>
<feMorphology radius="5.24919" operator="dilate" in="SourceAlpha" result="effect1_dropShadow_3353_241103"/>
<feOffset/>
<feGaussianBlur stdDeviation="3.74942"/>
<feComposite in2="hardAlpha" operator="out"/>
<feColorMatrix type="matrix" values="0 0 0 0 0 0 0 0 0 0 0 0 0 0 0 0 0 0 0.25 0"/>
<feBlend mode="normal" in2="BackgroundImageFix" result="effect1_dropShadow_3353_241103"/>
<feBlend mode="normal" in="SourceGraphic" in2="effect1_dropShadow_3353_241103" result="shape"/>
</filter>
</defs>
</svg>
