<svg width="52" height="52" viewBox="0 0 52 52" fill="none" xmlns="http://www.w3.org/2000/svg">
<path fill-rule="evenodd" clip-rule="evenodd" d="M25.991 51.688C11.7633 51.688 0.229492 40.1542 0.229492 25.9266C0.229492 11.6989 11.7633 0.1651 25.991 0.1651C40.2186 0.1651 51.7524 11.6989 51.7524 25.9266C51.7524 40.1542 40.2186 51.688 25.991 51.688ZM27.1049 19.4981C24.7976 20.4577 20.1864 22.444 13.2711 25.4569C12.1482 25.9034 11.5599 26.3403 11.5064 26.7675C11.4159 27.4894 12.3199 27.7736 13.551 28.1607C13.7184 28.2134 13.8919 28.268 14.0698 28.3258C15.281 28.7195 16.9102 29.1801 17.7572 29.1984C18.5255 29.215 19.383 28.8982 20.3297 28.2482C26.7909 23.8867 30.1261 21.6822 30.3355 21.6347C30.4833 21.6011 30.688 21.559 30.8267 21.6823C30.9654 21.8055 30.9517 22.039 30.9371 22.1017C30.8475 22.4834 27.2988 25.7826 25.4624 27.4899C24.8899 28.0222 24.4838 28.3997 24.4008 28.486C24.2148 28.6791 24.0253 28.8618 23.8431 29.0374C22.7179 30.1221 21.8741 30.9356 23.8898 32.2639C24.8585 32.9022 25.6337 33.4301 26.407 33.9567C27.2515 34.5319 28.0938 35.1055 29.1837 35.8199C29.4613 36.0019 29.7265 36.191 29.9848 36.3751C30.9676 37.0758 31.8506 37.7053 32.9415 37.6049C33.5754 37.5465 34.2301 36.9505 34.5626 35.1729C35.3485 30.9718 36.8932 21.8693 37.2501 18.1184C37.2814 17.7897 37.2421 17.3692 37.2105 17.1845C37.1789 16.9999 37.1129 16.7369 36.8729 16.5421C36.5887 16.3115 36.1499 16.2629 35.9537 16.2662C35.0615 16.2821 33.6926 16.758 27.1049 19.4981Z" fill="white"/>
</svg>
