<svg width="51" height="53" viewBox="0 0 51 53" fill="none" xmlns="http://www.w3.org/2000/svg">
<path d="M16.8027 21.207C16.9366 27.905 20.1997 31.9238 25.9227 31.9238H26.2574V28.0939C28.3575 28.3086 29.9472 29.8887 30.5831 31.9238H33.5534C33.2487 30.7674 32.7087 29.6903 31.9688 28.7637C31.229 27.8371 30.3061 27.0821 29.2611 26.5483C30.1975 25.963 31.0063 25.1859 31.6368 24.2654C32.2674 23.3449 32.7062 22.3008 32.9259 21.1985H30.2317C29.646 23.3281 27.9057 25.2602 26.2574 25.4405V21.207H23.5549V28.6263C21.8815 28.197 19.773 26.1189 19.6809 21.207H16.8027Z" fill="white"/>
<path fill-rule="evenodd" clip-rule="evenodd" d="M25.1195 0.486267C38.9823 0.486267 50.2204 12.0201 50.2204 26.2477C50.2204 40.4754 38.9823 52.0092 25.1195 52.0092C11.2566 52.0092 0.0185547 40.4754 0.0185547 26.2477C0.0185547 12.0201 11.2566 0.486267 25.1195 0.486267ZM12.569 25.7325C12.569 19.9018 12.569 16.9908 14.3261 15.1703C16.1082 13.367 18.9446 13.367 24.6175 13.367H25.6215C31.3027 13.367 34.1391 13.367 35.9129 15.1703C37.6699 16.9994 37.6699 19.9104 37.6699 25.7325V26.763C37.6699 32.5936 37.6699 35.5047 35.9129 37.3252C34.1307 39.1285 31.2943 39.1285 25.6215 39.1285H24.6175C18.9363 39.1285 16.0999 39.1285 14.3261 37.3252C12.569 35.4961 12.569 32.5851 12.569 26.763V25.7325Z" fill="white"/>
</svg>
