<svg width="52" height="52" viewBox="0 0 52 52" fill="none" xmlns="http://www.w3.org/2000/svg">
<path fill-rule="evenodd" clip-rule="evenodd" d="M20.5718 35.1041C22.1819 36.0701 24.114 36.5532 26.0461 36.5532C32.0035 36.5532 36.6727 31.7229 36.6727 26.0876C36.6727 23.1894 35.7067 20.6133 33.6136 18.5201C31.5205 16.588 28.9443 15.461 26.0461 15.461C20.2498 15.461 15.4195 20.2912 15.4195 26.0876C15.4195 28.0197 15.9026 29.9518 17.0296 31.7229L17.3517 32.2059L16.2246 36.0701L20.2498 34.9431L20.5718 35.1041ZM29.5884 27.5367C29.9104 27.5367 31.5205 28.3417 31.8425 28.5027C31.8926 28.5278 31.9428 28.5489 31.9923 28.5699C32.2609 28.6832 32.5116 28.7891 32.6475 29.4688C32.8085 29.4688 32.8085 30.1128 32.4865 30.9178C32.3255 31.5619 31.0374 32.3669 30.3934 32.3669C30.2843 32.3669 30.1798 32.3762 30.0682 32.386C29.521 32.4344 28.8026 32.498 26.5291 31.5619C23.7075 30.4332 21.7512 27.6975 21.2019 26.9293C21.1243 26.8208 21.0748 26.7515 21.0548 26.7316C21.0274 26.6768 20.972 26.5893 20.8989 26.4739C20.5427 25.9115 19.7668 24.6864 19.7668 23.3504C19.7668 21.7403 20.5718 20.9353 20.8938 20.6133C21.2158 20.2912 21.5379 20.2912 21.6989 20.2912H22.3429C22.504 20.2912 22.826 20.2912 22.987 20.7743C23.309 21.4183 23.953 23.0284 23.953 23.1894C23.953 23.2431 23.9709 23.2968 23.9888 23.3504C24.0246 23.4578 24.0604 23.5651 23.953 23.6724C23.8725 23.7529 23.8323 23.8334 23.792 23.914C23.7518 23.9945 23.7115 24.075 23.631 24.1555L23.148 24.6385C22.987 24.7995 22.826 24.9605 22.987 25.2825C23.148 25.6046 23.792 26.7316 24.7581 27.5367C25.8451 28.4878 26.7027 28.8656 27.1375 29.0571C27.218 29.0926 27.2839 29.1216 27.3342 29.1468C27.6562 29.1468 27.8173 29.1468 27.9783 28.9857C28.0588 28.8247 28.26 28.5832 28.4613 28.3417C28.6625 28.1002 28.8638 27.8587 28.9443 27.6977C29.1053 27.3757 29.2663 27.3757 29.5884 27.5367Z" fill="white"/>
<path fill-rule="evenodd" clip-rule="evenodd" d="M0.284668 25.9266C0.284668 11.6989 11.8185 0.1651 26.0461 0.1651C40.2738 0.1651 51.8076 11.6989 51.8076 25.9266C51.8076 40.1542 40.2738 51.688 26.0461 51.688C11.8185 51.688 0.284668 40.1542 0.284668 25.9266ZM26.0461 13.0458C29.4273 13.0458 32.6475 14.3339 35.0627 16.7491C37.4778 19.1642 38.9269 22.3844 38.9269 25.7656C38.9269 32.85 33.1305 38.6463 26.0461 38.6463C23.953 38.6463 21.8599 38.0023 19.9278 37.0362L13.1654 38.8073L14.9365 32.3669C13.8095 30.4348 13.1654 28.1807 13.1654 25.9266C13.1654 18.8422 18.9617 13.0458 26.0461 13.0458Z" fill="white"/>
</svg>
