<svg width="53" height="53" viewBox="0 0 53 53" fill="none" xmlns="http://www.w3.org/2000/svg">
<path fill-rule="evenodd" clip-rule="evenodd" d="M26.5139 0.486267C12.2862 0.486267 0.752441 12.0201 0.752441 26.2477C0.752441 40.4754 12.2862 52.0092 26.5139 52.0092C40.7416 52.0092 52.2754 40.4754 52.2754 26.2477C52.2754 12.0201 40.7416 0.486267 26.5139 0.486267ZM26.6519 39.1285C26.8267 33.4241 26.9739 30.8204 28.9981 28.7319C31.0866 26.7078 33.6903 26.5698 39.3946 26.3857C39.3946 31.5288 39.3762 35.3747 37.5361 37.27C35.6408 39.1101 31.9698 39.1285 26.6519 39.1285ZM15.4917 37.27C13.6516 35.3747 13.6332 31.5288 13.6332 26.3857C19.3375 26.5606 21.9412 26.7078 24.0298 28.7319C26.0539 30.8204 26.1919 33.4241 26.3759 39.1285C21.058 39.1285 17.387 39.1101 15.4917 37.27ZM15.4917 15.2255C17.387 13.3854 21.0672 13.367 26.3759 13.367C26.2011 19.0713 26.0539 21.6751 24.0298 23.7636C21.9412 25.7877 19.3375 25.9257 13.6332 26.1097C13.6332 20.9666 13.6516 17.1208 15.4917 15.2255ZM26.6519 13.367C26.8267 19.0713 26.9739 21.6751 28.9981 23.7636C31.0866 25.7877 33.6903 25.9257 39.3946 26.1097C39.3946 20.9666 39.3762 17.1208 37.5361 15.2255C35.6408 13.3854 31.9698 13.367 26.6519 13.367Z" fill="white"/>
</svg>
