<svg width="29" height="35" viewBox="0 0 29 35" fill="none" xmlns="http://www.w3.org/2000/svg">
<path d="M24.2455 18.4963C24.2289 15.6274 25.5109 13.4652 28.0997 11.8709C26.6518 9.76765 24.4612 8.61084 21.5737 8.38789C18.8396 8.16915 15.8484 10.0032 14.7531 10.0032C13.5956 10.0032 10.9486 8.46361 8.86595 8.46361C4.56781 8.53092 0 11.9382 0 18.8707C0 20.9193 0.369242 23.0352 1.10773 25.2142C2.09514 28.083 5.65479 35.1122 9.36795 34.9986C11.3096 34.9524 12.6828 33.6021 15.2094 33.6021C17.6614 33.6021 18.9309 34.9986 21.0966 34.9986C24.8429 34.944 28.0624 28.5542 29 25.6769C23.9758 23.2749 24.2455 18.6435 24.2455 18.4963ZM23.8057 29.7278C23.2124 30.5649 22.615 31.2253 22.0674 31.6502C21.6318 31.9867 21.2957 32.1298 21.0717 32.1382C20.6983 32.134 20.3373 32.0414 19.632 31.768C19.5823 31.747 19.5283 31.7259 19.4578 31.7007L19.2752 31.6292C18.5534 31.3473 18.1219 31.1959 17.5701 31.0487C16.7984 30.8468 16.0309 30.7374 15.2094 30.7374C14.3714 30.7374 13.5831 30.8426 12.799 31.0403C12.2223 31.1875 11.7369 31.3515 11.0275 31.6208C10.9984 31.6334 10.6914 31.7512 10.6043 31.7848C10.4591 31.8395 10.3471 31.8816 10.2433 31.9194C9.81187 32.0709 9.53805 32.134 9.29328 32.1382C9.26423 32.1382 9.23934 32.134 9.2186 32.1298C9.17296 32.1213 9.11488 32.1045 9.0485 32.0751C8.8618 31.9994 8.63777 31.8605 8.38469 31.6628C7.80386 31.2043 7.16495 30.485 6.51359 29.5638C5.37267 27.94 4.29399 25.7863 3.77539 24.2761C3.13648 22.3916 2.82117 20.5869 2.82117 18.8665C2.82117 16.3341 3.55966 14.4075 4.82918 13.0992C5.92031 11.9803 7.38898 11.3535 8.8867 11.3199C9.13147 11.3241 9.48827 11.383 9.94049 11.5092C10.2973 11.6059 10.6873 11.7363 11.2142 11.9256C11.3718 11.9845 11.9153 12.1822 11.9817 12.2075C12.3011 12.3252 12.5418 12.4094 12.7783 12.4851C13.5333 12.7291 14.1183 12.8637 14.7531 12.8637C15.3961 12.8637 15.9479 12.7249 16.732 12.4514C17.0266 12.3505 18.097 11.9467 18.2878 11.8793C19.3499 11.4965 20.134 11.2904 20.8103 11.2399C21.0094 11.2231 21.1878 11.2231 21.3579 11.2357C22.2997 11.3115 23.1046 11.5008 23.7891 11.8162C22.2292 13.6419 21.4243 15.8756 21.4285 18.4795C21.416 19.0978 21.4658 19.8129 21.6401 20.6585C21.9056 21.9415 22.4117 23.2118 23.2124 24.4023C23.8223 25.3067 24.5774 26.1228 25.4818 26.8337C25.0047 27.8307 24.4197 28.8613 23.8057 29.7278ZM19.8851 5.66625C21.9886 3.13389 21.7977 0.828694 21.7355 0C19.8768 0.109371 17.7278 1.283 16.5039 2.72586C15.1555 4.27387 14.3631 6.18786 14.5332 8.34583C16.5412 8.50147 18.375 7.45404 19.8851 5.66625Z" fill="black" fill-opacity="0.85"/>
</svg>
