<svg width="57" height="49" viewBox="0 0 57 49" fill="none" xmlns="http://www.w3.org/2000/svg">
<path fill-rule="evenodd" clip-rule="evenodd" d="M9.77997 28.3078C15.1813 28.3078 19.56 32.751 19.56 38.2321C19.56 43.7131 15.1813 48.1563 9.77997 48.1563C4.37862 48.1563 0 43.7131 0 38.2321C0 32.751 4.37862 28.3078 9.77997 28.3078ZM9.77997 30.6992C13.8798 30.6992 17.2033 34.0717 17.2033 38.2321C17.2033 42.3924 13.8798 45.7649 9.77997 45.7649C5.68014 45.7649 2.35665 42.3924 2.35665 38.2321C2.35665 34.0717 5.68014 30.6992 9.77997 30.6992Z" fill="#004E89"/>
<path fill-rule="evenodd" clip-rule="evenodd" d="M46.4024 28.3078C51.8037 28.3078 56.1824 32.751 56.1824 38.2321C56.1824 43.7131 51.8037 48.1563 46.4024 48.1563C41.001 48.1563 36.6224 43.7131 36.6224 38.2321C36.6224 32.751 41.001 28.3078 46.4024 28.3078ZM46.4024 30.6992C50.5022 30.6992 53.8257 34.0717 53.8257 38.2321C53.8257 42.3924 50.5022 45.7649 46.4024 45.7649C42.3025 45.7649 38.9791 42.3924 38.9791 38.2321C38.9791 34.0717 42.3025 30.6992 46.4024 30.6992Z" fill="#004E89"/>
<path d="M9.77997 43.0209C12.3863 43.0209 14.4992 40.8768 14.4992 38.2321C14.4992 35.5873 12.3863 33.4432 9.77997 33.4432C7.17363 33.4432 5.06078 35.5873 5.06078 38.2321C5.06078 40.8768 7.17363 43.0209 9.77997 43.0209Z" fill="#004E89"/>
<path d="M46.4024 43.0209C49.0087 43.0209 51.1216 40.8768 51.1216 38.2321C51.1216 35.5873 49.0087 33.4432 46.4024 33.4432C43.796 33.4432 41.6832 35.5873 41.6832 38.2321C41.6832 40.8768 43.796 43.0209 46.4024 43.0209Z" fill="#004E89"/>
<path d="M30.7615 36.6424H9.08068V40.2295H30.7615V36.6424Z" fill="#004E89"/>
<path d="M30.783 40.225L42.1463 21.4883L39.1359 19.6082L27.7725 38.345L30.783 40.225Z" fill="#004E89"/>
<path d="M48.073 38.0652L40.5824 17.4194L37.2652 18.6587L44.7557 39.3046L48.073 38.0652Z" fill="#004E89"/>
<path fill-rule="evenodd" clip-rule="evenodd" d="M18.2442 24.2827H40.0694L32.1312 36.5247L20.7186 37.7098L18.2442 24.2827Z" fill="#004E89"/>
<path fill-rule="evenodd" clip-rule="evenodd" d="M2.63187 24.3125L18.2442 24.2827L20.4244 26.5842H2.63187V24.3125Z" fill="#004E89"/>
<path fill-rule="evenodd" clip-rule="evenodd" d="M31.3566 15.5247L40.7133 17.4963L40.2544 19.739L30.8976 17.7676L31.3566 15.5247Z" fill="#004E89"/>
<path fill-rule="evenodd" clip-rule="evenodd" d="M26.7868 0C29.0969 0 30.9697 1.90041 30.9697 4.24461C30.9697 6.5888 29.0969 8.48921 26.7868 8.48921C24.4767 8.48921 22.6039 6.5888 22.6039 4.24461C22.6039 1.90041 24.4767 0 26.7868 0Z" fill="#004E89"/>
<path fill-rule="evenodd" clip-rule="evenodd" d="M11.7875 8.04611L22.4338 9.77411L20.3819 22.7914L9.73566 21.0634L11.7875 8.04611Z" fill="#004E89"/>
<path fill-rule="evenodd" clip-rule="evenodd" d="M22.4496 8.34968C19.4204 12.1874 19.5266 18.4901 19.2897 24.4312C20.8293 24.8534 23.8705 25.0197 25.7502 24.4553C25.2059 18.5527 25.1648 14.424 26.5059 9.27034C24.9409 8.91514 23.8806 8.67449 22.4496 8.34968Z" fill="#004E89"/>
<path fill-rule="evenodd" clip-rule="evenodd" d="M23.2428 25.9681L23.8063 22.194L34.3604 25.5731L33.2754 29.0624L23.2428 25.9681Z" fill="#004E89"/>
<path fill-rule="evenodd" clip-rule="evenodd" d="M30.632 25.5238L34.2901 25.6078L33.3212 35.3504L30.717 36.7536L30.632 25.5238Z" fill="#004E89"/>
<path fill-rule="evenodd" clip-rule="evenodd" d="M21.6375 24.7815L25.7502 24.4553L30.7224 32.5774L27.6704 34.5259L21.6375 24.7815Z" fill="#004E89"/>
<path fill-rule="evenodd" clip-rule="evenodd" d="M22.347 11.0192L25.1556 10.2101L27.8978 17.2716L25.4687 19.1103L22.347 11.0192Z" fill="#004E89"/>
<path fill-rule="evenodd" clip-rule="evenodd" d="M34.97 16.9634L34.8003 19.0981L24.5063 19.5961L25.4674 16.6325L34.97 16.9634Z" fill="#004E89"/>
<path fill-rule="evenodd" clip-rule="evenodd" d="M17.791 24.5824L23.4942 28.7667L21.1103 32.1126L14.2525 26.4505L17.791 24.5824Z" fill="#004E89"/>
<path d="M12.4433 12.168C12.5197 11.6244 12.7914 11.2001 13.2583 10.895C13.7296 10.587 14.2831 10.4776 14.9186 10.567C15.5737 10.659 16.09 10.8993 16.4675 11.2878L15.8776 11.8986C15.7696 11.7846 15.6241 11.6812 15.4411 11.5884C15.2581 11.4956 15.0784 11.4368 14.9018 11.412C14.486 11.3535 14.16 11.4101 13.9239 11.5817C13.6921 11.7504 13.5551 11.9853 13.5128 12.2866C13.4646 12.6293 13.5419 12.9191 13.7446 13.1559C13.9513 13.3933 14.2233 13.5356 14.5607 13.5831C14.8667 13.6261 15.1638 13.576 15.4519 13.4329L15.4921 13.1473L14.8977 13.0638L15.0065 12.2899L16.5129 12.5016L16.218 14.5998L15.3589 14.4791L15.3735 14.3752L15.4013 14.2202L15.3895 14.2186C15.2503 14.2979 15.0746 14.3526 14.8624 14.3828C14.654 14.4135 14.4459 14.4143 14.238 14.3851C13.6731 14.3057 13.2112 14.0625 12.8523 13.6554C12.4974 13.249 12.3611 12.7532 12.4433 12.168Z" fill="white"/>
<path d="M16.9602 14.3758C16.6672 14.0698 16.5496 13.7108 16.6075 13.2988C16.6654 12.8867 16.8776 12.5723 17.2441 12.3555C17.6107 12.1387 18.0352 12.0642 18.5177 12.132C19.0042 12.2004 19.3937 12.3893 19.6862 12.6987C19.9832 13.0052 20.1024 13.3663 20.044 13.7817C19.9861 14.1937 19.7742 14.5064 19.4082 14.7198C19.0426 14.9297 18.6166 15.0004 18.1302 14.9321C17.6437 14.8637 17.2537 14.6783 16.9602 14.3758ZM17.6373 13.4435C17.6101 13.6374 17.6548 13.8025 17.7717 13.939C17.8885 14.0755 18.0431 14.1572 18.2353 14.1842C18.4275 14.2112 18.5986 14.1753 18.7485 14.0763C18.8984 13.9773 18.987 13.8309 19.0143 13.637C19.042 13.4396 18.9977 13.271 18.8813 13.1311C18.765 12.9912 18.6107 12.9077 18.4185 12.8807C18.2263 12.8537 18.0549 12.8914 17.9045 12.9938C17.7541 13.0962 17.665 13.2461 17.6373 13.4435Z" fill="white"/>
</svg>
