<svg width="53" height="53" viewBox="0 0 53 53" fill="none" xmlns="http://www.w3.org/2000/svg">
<path fill-rule="evenodd" clip-rule="evenodd" d="M29.0646 30.756C29.451 31.2455 29.9147 31.7993 29.9147 31.7993C32.7614 31.7092 33.8562 29.8415 33.8562 29.8415C33.8562 25.6939 32.0014 22.332 32.0014 22.332C30.1466 20.9409 28.3819 20.9795 28.3819 20.9795L28.2016 21.1856C30.3913 21.8554 31.4089 22.8215 31.4089 22.8215C30.0693 22.0873 28.7554 21.7266 27.5318 21.5849C26.6044 21.4819 25.7156 21.5076 24.9299 21.6107C24.8624 21.6107 24.8047 21.6205 24.7398 21.6316L24.7109 21.6364C24.2601 21.6751 23.1652 21.8425 21.787 22.4479C21.3104 22.6669 21.027 22.8215 21.027 22.8215C21.027 22.8215 22.0961 21.8039 24.4146 21.1341L24.2858 20.9795C24.2858 20.9795 22.5212 20.9409 20.6663 22.332C20.6663 22.332 18.8115 25.6939 18.8115 29.8415C18.8115 29.8415 19.8935 31.7092 22.7401 31.7993C22.7401 31.7993 23.2167 31.2197 23.6032 30.7302C21.9673 30.2408 21.349 29.2103 21.349 29.2103C21.349 29.2103 21.4778 29.3005 21.7097 29.4293C21.7226 29.4422 21.7354 29.455 21.7612 29.4679C21.7805 29.4808 21.7999 29.4905 21.8192 29.5001C21.8385 29.5098 21.8578 29.5194 21.8771 29.5323C22.1992 29.7127 22.5212 29.8543 22.8174 29.9703C23.3455 30.1764 23.9767 30.3824 24.7109 30.5241C25.677 30.7045 26.8105 30.7689 28.047 30.537C28.6524 30.434 29.2707 30.2536 29.9147 29.9831C30.3655 29.8157 30.8679 29.571 31.396 29.2232C31.396 29.2232 30.752 30.2794 29.0646 30.756ZM22.6113 27.2138C22.6113 26.4281 23.191 25.784 23.9252 25.784C24.6594 25.784 25.2519 26.4281 25.239 27.2138C25.239 27.9995 24.6594 28.6435 23.9252 28.6435C23.2039 28.6435 22.6113 27.9995 22.6113 27.2138ZM27.3128 27.2138C27.3128 26.4281 27.8924 25.784 28.6266 25.784C29.3608 25.784 29.9405 26.4281 29.9405 27.2138C29.9405 27.9995 29.3608 28.6435 28.6266 28.6435C27.9053 28.6435 27.3128 27.9995 27.3128 27.2138Z" fill="white"/>
<path fill-rule="evenodd" clip-rule="evenodd" d="M26.2566 0.486267C40.4842 0.486267 52.0181 12.0201 52.0181 26.2477C52.0181 40.4754 40.4842 52.0092 26.2566 52.0092C12.0289 52.0092 0.495117 40.4754 0.495117 26.2477C0.495117 12.0201 12.0289 0.486267 26.2566 0.486267ZM14.9859 17.6305C14.9859 16.1621 16.171 14.9771 17.6265 14.9771H34.8867C36.3422 14.9771 37.5272 16.1621 37.5272 17.6305V40.7386L34.7579 38.2912L33.1993 36.8486L31.5506 35.3158L32.2332 37.6987H17.6265C16.171 37.6987 14.9859 36.5137 14.9859 35.0453V17.6305Z" fill="white"/>
</svg>
