<svg width="424" height="75" viewBox="0 0 424 75" fill="none" xmlns="http://www.w3.org/2000/svg">
<path d="M209.051 55.6158V2.83252H214.42V25.7328H223.602L238.386 2.83252H244.533L228.115 27.76V27.9102L245.623 55.6158H239.32L223.602 30.3879H214.42V55.6158H209.051ZM242.315 65.0762C243.767 66.2275 245.324 66.8031 246.984 66.8031C250.096 66.8031 252.586 64.7509 254.453 60.6463L256.788 55.2403L240.525 17.8491H246.361L257.799 45.4045L259.278 49.3839H259.433C259.796 47.9824 260.237 46.6559 260.756 45.4045L272.039 17.8491H277.719L258.422 63.4995C257.384 65.9522 255.893 67.8793 253.948 69.2809C252.002 70.6824 249.759 71.3832 247.217 71.3832C246.024 71.3832 244.844 71.1955 243.676 70.82C242.509 70.4446 241.666 70.0817 241.148 69.7314L240.292 69.1307L242.315 65.0762V65.0762ZM280.247 70.6323V17.8491H285.305V21.8285L285.071 24.7567H285.227C286.42 22.304 288.223 20.3894 290.635 19.0129C293.047 17.6363 295.783 16.9481 298.844 16.9481C304.083 16.9481 308.233 18.7626 311.294 22.3916C314.354 26.0206 315.885 30.7884 315.885 36.6949C315.885 42.6515 314.251 47.4443 310.983 51.0733C307.715 54.7023 303.513 56.5168 298.377 56.5168C295.628 56.5168 293.112 55.8535 290.829 54.5271C288.547 53.2006 286.757 51.3611 285.46 49.0085H285.305C285.46 49.9095 285.538 51.0107 285.538 52.3121V70.6323H280.247ZM285.383 36.845C285.383 40.8995 286.511 44.4284 288.767 47.4317C291.024 50.435 294.046 51.9367 297.832 51.9367C301.412 51.9367 304.42 50.5727 306.859 47.8447C309.297 45.1167 310.516 41.4251 310.516 36.77C310.516 32.2149 309.362 28.5484 307.053 25.7703C304.745 22.9923 301.749 21.6032 298.066 21.6032C294.487 21.6032 291.478 22.8796 289.04 25.4324C286.602 27.9853 285.383 31.7895 285.383 36.845ZM320.28 55.6158V17.8491H325.571V32.265H334.053C337.995 32.265 341.263 33.191 343.857 35.0431C346.451 36.8951 347.748 39.8984 347.748 44.053C347.748 47.6069 346.581 50.4225 344.246 52.4998C341.912 54.5771 338.462 55.6158 333.897 55.6158H320.28V55.6158ZM325.571 51.5613H333.43C339.344 51.5613 342.301 49.0335 342.301 43.9779C342.301 41.5753 341.575 39.6982 340.122 38.3467C338.67 36.9952 336.465 36.3195 333.508 36.3195H325.571V51.5613V51.5613ZM348.253 36.77C348.253 30.7633 350.107 25.958 353.816 22.354C357.525 18.7501 362.129 16.9481 367.628 16.9481C372.815 16.9481 376.835 18.6124 379.688 21.9411C382.542 25.2698 383.968 29.4118 383.968 34.3673C383.968 34.968 383.916 35.8189 383.812 36.9201H353.777C353.881 41.5753 355.385 45.2293 358.29 47.8822C361.195 50.5352 364.749 51.8616 368.95 51.8616C373.464 51.8616 377.432 50.36 380.856 47.3567L383.268 51.261C381.452 52.8627 379.235 54.1391 376.615 55.0902C373.995 56.0412 371.389 56.5168 368.795 56.5168C362.933 56.5168 358.044 54.6647 354.127 50.9606C350.211 47.2565 348.253 42.5263 348.253 36.77V36.77ZM354.011 32.8656H378.599C378.444 29.1115 377.328 26.2208 375.253 24.1936C373.178 22.1663 370.584 21.1527 367.472 21.1527C364.1 21.1527 361.169 22.1789 358.679 24.2311C356.189 26.2834 354.633 29.1616 354.011 32.8656V32.8656ZM388.13 70.6323V17.8491H393.188V21.8285L392.954 24.7567H393.11C394.303 22.304 396.106 20.3894 398.518 19.0129C400.93 17.6363 403.666 16.9481 406.727 16.9481C411.966 16.9481 416.116 18.7626 419.177 22.3916C422.238 26.0206 423.768 30.7884 423.768 36.6949C423.768 42.6515 422.134 47.4443 418.866 51.0733C415.598 54.7023 411.396 56.5168 406.26 56.5168C403.511 56.5168 400.995 55.8535 398.712 54.5271C396.43 53.2006 394.64 51.3611 393.343 49.0085H393.188C393.343 49.9095 393.421 51.0107 393.421 52.3121V70.6323H388.13ZM393.266 36.845C393.266 40.8995 394.394 44.4284 396.65 47.4317C398.907 50.435 401.929 51.9367 405.716 51.9367C409.295 51.9367 412.304 50.5727 414.742 47.8447C417.18 45.1167 418.399 41.4251 418.399 36.77C418.399 32.2149 417.245 28.5484 414.936 25.7703C412.628 22.9923 409.632 21.6032 405.949 21.6032C402.37 21.6032 399.361 22.8796 396.923 25.4324C394.485 27.9853 393.266 31.7895 393.266 36.845Z" fill="white"/>
<path d="M0 29.1478C0 20.8576 2.91736 13.9271 8.75214 8.35624C14.5869 2.78542 21.942 0 30.8175 0C39.9669 0 47.5 2.5082 53.417 7.52459L46.5139 17.9006C44.8155 16.422 42.624 15.1812 39.9395 14.1779C37.2549 13.1746 34.6799 12.673 32.2146 12.673C26.4072 12.673 22.0653 14.1911 19.189 17.2273C16.3127 20.2635 14.8745 24.0786 14.8745 28.6726C14.8745 33.9002 16.5045 38.0717 19.7643 41.1871C23.0241 44.3026 27.0098 45.8603 31.7215 45.8603C35.9948 45.8603 39.9669 44.4874 43.6376 41.7416V37.3853H35.3374V25.5835H56.3755V57.5828H44.3772V55.9987L44.4594 53.6225H44.295C42.5418 55.101 40.2545 56.2891 37.433 57.1867C34.6115 58.0844 31.7489 58.5332 28.8452 58.5332C20.9559 58.5332 14.1761 55.8666 8.50564 50.5334C2.83522 45.2002 0 38.0717 0 29.1478ZM66.094 52.6324C61.4919 48.6985 59.1908 43.5897 59.1908 37.306C59.1908 31.0223 61.4919 25.874 66.094 21.8609C70.6961 17.8478 76.3665 15.8412 83.1052 15.8412C89.8988 15.8412 95.6103 17.8346 100.24 21.8213C104.869 25.808 107.184 30.9695 107.184 37.306C107.184 43.5897 104.883 48.6985 100.281 52.6324C95.6788 56.5663 89.981 58.5332 83.1875 58.5332C76.3939 58.5332 70.6961 56.5663 66.094 52.6324ZM73.5724 37.306C73.5724 40.2631 74.5037 42.6392 76.3665 44.4346C78.2292 46.2299 80.5029 47.1276 83.1875 47.1276C85.872 47.1276 88.1457 46.2299 90.0084 44.4346C91.8711 42.6392 92.8025 40.2631 92.8025 37.306C92.8025 34.2962 91.8711 31.8672 90.0084 30.0191C88.1457 28.171 85.872 27.2469 83.1875 27.2469C80.5029 27.2469 78.2292 28.171 76.3665 30.0191C74.5037 31.8672 73.5724 34.2962 73.5724 37.306ZM116.574 60.1966C120.299 61.9391 124.271 62.8104 128.49 62.8104C135.01 62.8104 138.269 60.1966 138.269 54.9689V53.6225L138.351 52.1176H138.187C135.722 54.969 132.188 56.3947 127.586 56.3947C121.559 56.3947 116.875 54.3881 113.533 50.375C110.191 46.3619 108.52 41.5304 108.52 35.8803C108.52 30.2831 110.164 25.5439 113.451 21.6629C116.738 17.7818 121.422 15.8412 127.504 15.8412C132.434 15.8412 136.27 17.1613 139.009 19.8015H139.255C139.201 19.4847 139.173 19.1679 139.173 18.851V16.7917H152.486V53.8601C152.486 57.4508 151.802 60.5926 150.432 63.2856C149.062 65.9786 147.2 68.1039 144.844 69.6617C142.488 71.2194 139.954 72.3679 137.242 73.1071C134.53 73.8464 131.64 74.216 128.572 74.216C122.71 74.216 117.368 73.0015 112.547 70.5725L116.574 60.1966ZM122.819 35.4051C122.819 38.1509 123.504 40.4347 124.874 42.2564C126.244 44.0782 128.271 44.989 130.955 44.989C133.147 44.989 134.968 44.3158 136.42 42.9693C137.872 41.6228 138.598 39.3126 138.598 36.0387C138.598 30.1775 135.859 27.2469 130.38 27.2469C127.969 27.2469 126.107 27.9993 124.792 29.5042C123.477 31.0092 122.819 32.9761 122.819 35.4051ZM162.862 52.6324C158.26 48.6985 155.959 43.5897 155.959 37.306C155.959 31.0223 158.26 25.874 162.862 21.8609C167.464 17.8478 173.135 15.8412 179.874 15.8412C186.667 15.8412 192.379 17.8346 197.008 21.8213C201.638 25.808 203.952 30.9695 203.952 37.306C203.952 43.5897 201.651 48.6985 197.049 52.6324C192.447 56.5663 186.749 58.5332 179.956 58.5332C173.162 58.5332 167.464 56.5663 162.862 52.6324ZM170.341 37.306C170.341 40.2631 171.272 42.6392 173.135 44.4346C174.998 46.2299 177.271 47.1276 179.956 47.1276C182.64 47.1276 184.914 46.2299 186.777 44.4346C188.639 42.6392 189.571 40.2631 189.571 37.306C189.571 34.2962 188.639 31.8672 186.777 30.0191C184.914 28.171 182.64 27.2469 179.956 27.2469C177.271 27.2469 174.998 28.171 173.135 30.0191C171.272 31.8672 170.341 34.2962 170.341 37.306Z" fill="white"/>
</svg>
