<svg width="95" height="12" viewBox="0 0 95 12" fill="none" xmlns="http://www.w3.org/2000/svg">
<path d="M1.35107 5.21032C0.936925 5.21032 0.60119 5.54606 0.60119 5.96021C0.60119 6.37435 0.936925 6.71009 1.35107 6.71009V5.21032ZM94.1171 6.49045C94.4099 6.19761 94.4099 5.7228 94.1171 5.42996L89.3448 0.657722C89.052 0.364875 88.5772 0.364875 88.2844 0.657722C87.9915 0.950571 87.9915 1.42537 88.2844 1.71822L92.5263 5.96021L88.2844 10.2022C87.9915 10.495 87.9915 10.9698 88.2844 11.2627C88.5772 11.5555 89.052 11.5555 89.3448 11.2627L94.1171 6.49045ZM1.35107 6.71009H93.5868V5.21032H1.35107V6.71009Z" fill="#004E89"/>
</svg>
