<svg width="53" height="52" viewBox="0 0 53 52" fill="none" xmlns="http://www.w3.org/2000/svg">
<path d="M30.6171 25.9266L23.8547 22.0624V29.7908L30.6171 25.9266Z" fill="white"/>
<path fill-rule="evenodd" clip-rule="evenodd" d="M0.669434 25.9266C0.669434 11.6989 12.2032 0.1651 26.4309 0.1651C40.6586 0.1651 52.1924 11.6989 52.1924 25.9266C52.1924 40.1542 40.6586 51.688 26.4309 51.688C12.2032 51.688 0.669434 40.1542 0.669434 25.9266ZM36.4135 17.3931C37.5406 17.7151 38.3456 18.5201 38.6676 19.6472C39.3116 21.7403 39.3116 25.9266 39.3116 25.9266C39.3116 25.9266 39.3117 30.1128 38.8286 32.2059C38.5066 33.333 37.7015 34.138 36.5745 34.4601C34.4813 34.9431 26.4309 34.9431 26.4309 34.9431C26.4309 34.9431 18.2194 34.9431 16.2873 34.4601C15.1603 34.138 14.3552 33.333 14.0332 32.2059C13.5502 30.1128 13.5502 25.9266 13.5502 25.9266C13.5502 25.9266 13.5502 21.7403 13.8722 19.6472C14.1942 18.5201 14.9993 17.7151 16.1263 17.3931C18.2194 16.9101 26.2699 16.9101 26.2699 16.9101C26.2699 16.9101 34.4814 16.9101 36.4135 17.3931Z" fill="white"/>
</svg>
