<svg width="38" height="43" viewBox="0 0 38 43" fill="none" xmlns="http://www.w3.org/2000/svg">
<path d="M22.8125 26.2715H0.98633V21.6719H22.8125C24.9414 21.6719 26.6895 21.3301 28.0566 20.6465C29.4238 19.9629 30.4297 18.9961 31.0742 17.7461C31.7383 16.4961 32.0703 15.0215 32.0703 13.3223C32.0703 11.9355 31.7578 10.6074 31.1328 9.33789C30.5273 8.06836 29.541 7.02344 28.1738 6.20313C26.8262 5.38281 25.0391 4.97266 22.8125 4.97266H12.6758V43H7.05078V0.343753H22.8125C26.0352 0.343753 28.75 0.900393 30.957 2.01367C33.1641 3.10742 34.834 4.63086 35.9668 6.58399C37.1191 8.51758 37.6953 10.7441 37.6953 13.2637C37.6953 15.998 37.1191 18.3418 35.9668 20.2949C34.834 22.2285 33.1641 23.7129 30.957 24.748C28.75 25.7637 26.0352 26.2715 22.8125 26.2715ZM22.4609 30.2852V34.9141H0.98633V30.2852H22.4609Z" fill="#004E89"/>
</svg>
