<svg width="29" height="33" viewBox="0 0 29 33" fill="none" xmlns="http://www.w3.org/2000/svg">
<path d="M17.6114 19.6092H0.872851V16.0683H17.6114C19.1565 16.0683 20.4333 15.8001 21.4419 15.2636C22.4505 14.7164 23.2016 13.976 23.6952 13.0425C24.1887 12.0983 24.4355 11.0253 24.4355 9.82359C24.4355 8.62185 24.1887 7.55423 23.6952 6.62074C23.2016 5.67651 22.4505 4.93616 21.4419 4.39967C20.4333 3.85244 19.1565 3.57883 17.6114 3.57883H10.079V33H6.08754V0.0379934H17.6114C20.0578 0.0379934 22.075 0.483281 23.663 1.37386C25.251 2.26443 26.4313 3.45008 27.2038 4.93079C27.9764 6.41151 28.3627 8.04244 28.3627 9.82359C28.3627 11.6047 27.9764 13.2357 27.2038 14.7164C26.4313 16.1971 25.251 17.3827 23.663 18.2733C22.075 19.1639 20.0578 19.6092 17.6114 19.6092ZM17.3539 22.6994V26.2402H0.872851V22.6994H17.3539Z" fill="#004E89"/>
</svg>
